<svg xmlns="http://www.w3.org/2000/svg" id="Layer_1" data-name="Layer 1" viewBox="0 0 422.85 443.15"><defs><style>.cls-1{fill:#ffcb83;}.cls-2{fill:#fff;}.cls-3{fill:#ff6e53;}.cls-4{fill:#65cefe;}.cls-5{fill:#c9edf9;}.cls-6{fill:#eefbff;}.cls-7{fill:#f7a491;}.cls-8{fill:#e74a60;}.cls-9{fill:#f47458;}.cls-10{fill:#f8a492;}.cls-11{fill:#031322;}.cls-12{fill:#063e70;}.cls-13{fill:#4054e7;}.cls-14{fill:#6577ff;}.cls-15{fill:#fe875e;}.cls-16{fill:#064c91;}</style></defs><title>whys-us-home</title><path class="cls-1" d="M209.69,112.14a27.28,27.28,0,1,1,14.62-35.71A27.31,27.31,0,0,1,209.69,112.14Z" transform="translate(-58.15 -41.22)"></path><path class="cls-1" d="M209.41,111.48A26.57,26.57,0,1,1,223.65,76.7,26.6,26.6,0,0,1,209.41,111.48Z" transform="translate(-58.15 -41.22)"></path><circle class="cls-2" cx="199.19" cy="87.09" r="21.7" transform="translate(-76.33 42.54) rotate(-22.74)"></circle><path class="cls-2" d="M207.1,106a20.57,20.57,0,1,1,11-26.92A20.59,20.59,0,0,1,207.1,106Z" transform="translate(-58.15 -41.22)"></path><path class="cls-1" d="M182.31,92.85l-3.4,1.42a1.1,1.1,0,1,0,.85,2l3.4-1.42a1.1,1.1,0,1,0-.85-2Z" transform="translate(-58.15 -41.22)"></path><path class="cls-1" d="M205.6,102.39a1.1,1.1,0,0,0-.59,1.44l1.42,3.4a1.1,1.1,0,0,0,2-.85L207,103A1.1,1.1,0,0,0,205.6,102.39Z" transform="translate(-58.15 -41.22)"></path><path class="cls-1" d="M218.54,77.67l-3.4,1.42a1.1,1.1,0,0,0,.85,2l3.4-1.42a1.1,1.1,0,0,0-.85-2Z" transform="translate(-58.15 -41.22)"></path><path class="cls-1" d="M190.42,66.16a1.1,1.1,0,0,0-.59,1.44l1.42,3.4a1.1,1.1,0,0,0,2-.85l-1.42-3.4A1.1,1.1,0,0,0,190.42,66.16Z" transform="translate(-58.15 -41.22)"></path><rect class="cls-1" x="198.51" y="51.87" width="5.6" height="6.24" rx="0.64" ry="0.64" transform="translate(74.2 210.73) rotate(-85.98)"></rect><rect class="cls-1" x="171.99" y="63.28" width="6.24" height="5.6" rx="0.64" ry="0.64" transform="translate(-47.01 115.09) rotate(-49.5)"></rect><rect class="cls-1" x="182.36" y="52.64" width="7.59" height="4.36" rx="0.62" ry="0.62" transform="translate(-64.87 34.99) rotate(-22.74)"></rect><path class="cls-1" d="M185.61,59.09a6.82,6.82,0,1,1,4-1.66l.65,1.55a8.45,8.45,0,1,0-4,1.67Z" transform="translate(-58.15 -41.22)"></path><path class="cls-1" d="M188.39,61.31q1-.43,2.06-.77l-1.73-4.14-3.23,1.35,1.71,4.09Q187.78,61.56,188.39,61.31Z" transform="translate(-58.15 -41.22)"></path><circle class="cls-1" cx="199.15" cy="86.94" r="2" transform="translate(-76.27 42.52) rotate(-22.74)"></circle><path class="cls-1" d="M201.27,70.58,199.85,87a.75.75,0,0,1-1.5-.13C198.35,86.83,198.23,87.56,201.27,70.58Z" transform="translate(-58.15 -41.22)"></path><path class="cls-1" d="M213.61,95.08l-14.75-7.41a.75.75,0,1,1,.68-1.35Z" transform="translate(-58.15 -41.22)"></path><circle class="cls-1" cx="199.15" cy="86.94" r="0.82" transform="translate(-76.27 42.52) rotate(-22.74)"></circle><path class="cls-3" d="M407.78,238.07a.8.8,0,0,0-.81-.24c-1.44.39-4.05-.19-5.34-.64l-1.41-7c1-.92,3.19-2.47,4.67-2.67a.8.8,0,0,0,.65-.54l1.78-5.29a.8.8,0,0,0-.19-.82c-1.06-1.05-1.86-3.61-2.11-4.95l5.32-4.7c1.3.42,3.73,1.53,4.65,2.72a.8.8,0,0,0,.79.3l5.47-1.1a.8.8,0,0,0,.62-.58c.38-1.44,2.19-3.41,3.23-4.31l6.73,2.26c.29,1.34.54,4,0,5.38a.8.8,0,0,0,.14.83l3.69,4.19a.8.8,0,0,0,.81.24c1.44-.39,4.05.19,5.34.64l1.41,7c-1,.92-3.19,2.47-4.67,2.67a.8.8,0,0,0-.65.54l-1.78,5.29a.8.8,0,0,0,.19.82c1.06,1.05,1.86,3.61,2.12,4.95l-5.32,4.7c-1.3-.42-3.73-1.53-4.65-2.72a.8.8,0,0,0-.79-.3l-5.47,1.1a.8.8,0,0,0-.62.58c-.38,1.44-2.19,3.41-3.23,4.31l-6.73-2.26c-.29-1.34-.54-4,0-5.38a.8.8,0,0,0-.14-.83Zm15.31-1.71a7,7,0,1,0-8.24-5.47A7,7,0,0,0,423.09,236.36Zm.89,4.4a11.48,11.48,0,1,0-13.52-9A11.48,11.48,0,0,0,424,240.75Z" transform="translate(-58.15 -41.22)"></path><path class="cls-3" d="M453,263a.63.63,0,0,1,.49-.46l4.33-.87a.63.63,0,0,1,.63.23,9.09,9.09,0,0,0,3.68,2.15l4.22-3.72a9.09,9.09,0,0,0-1.67-3.92.64.64,0,0,1-.15-.65l1.41-4.19a.63.63,0,0,1,.52-.43,9.08,9.08,0,0,0,3.7-2.11L469,243.51a9.09,9.09,0,0,0-4.23-.51.63.63,0,0,1-.64-.19l-2.92-3.31a.64.64,0,0,1-.11-.66,9.08,9.08,0,0,0,0-4.26l-5.33-1.79a9.08,9.08,0,0,0-2.56,3.41.63.63,0,0,1-.49.46l-4.33.87a.63.63,0,0,1-.63-.23,9.08,9.08,0,0,0-3.68-2.15l-4.22,3.72a9.09,9.09,0,0,0,1.67,3.92.63.63,0,0,1,.15.65l-1.41,4.19a.64.64,0,0,1-.52.43,9.09,9.09,0,0,0-3.7,2.11l1.11,5.51a9.08,9.08,0,0,0,4.23.51.63.63,0,0,1,.64.19l2.92,3.31a.63.63,0,0,1,.11.66,9.09,9.09,0,0,0,0,4.26l5.33,1.79A9.09,9.09,0,0,0,453,263Zm1.49-6.65a6.89,6.89,0,1,1,5.39-8.11A6.89,6.89,0,0,1,454.47,256.34Z" transform="translate(-58.15 -41.22)"></path><path class="cls-4" d="M148,188.67l-4.81-1.81L139,189.8a.71.71,0,0,1-1.11-.61l.24-5.14-4.1-3.11a.71.71,0,0,1,.24-1.24l5-1.36,1.69-4.86a.71.71,0,0,1,1.26-.16l2.83,4.3,5.14.11a.71.71,0,0,1,.54,1.15l-3.21,4,1.49,4.92A.71.71,0,0,1,148,188.67Z" transform="translate(-58.15 -41.22)"></path><polygon class="cls-4" points="109.73 95.12 107.11 88.09 100.42 90.09 97.53 83.29 90.9 84.41 87.91 79.67 85.51 81.18 89.51 87.53 95.79 86.46 98.79 93.54 105.38 91.57 107.75 97.94 109.73 95.12"></polygon><polygon class="cls-4" points="364.27 124.97 357.7 121.37 353.94 127.26 347.31 124 343.03 129.19 337.67 127.56 336.84 130.28 344.01 132.45 348.07 127.54 354.97 130.93 358.66 125.13 364.62 128.4 364.27 124.97"></polygon><polygon class="cls-5" points="199.87 14.25 197.05 21.2 203.34 24.25 200.88 31.21 206.53 34.86 205.53 40.38 208.32 40.88 209.66 33.5 204.3 30.05 206.87 22.8 200.68 19.8 203.23 13.51 199.87 14.25"></polygon><polygon class="cls-3" points="362.64 240.5 361.26 237.78 358.15 237.88 356.81 234.72 353.53 235.85 351.86 232.34 348.71 233.01 346.56 229.9 347.74 229.08 349.35 231.41 352.67 230.7 354.27 234.08 357.61 232.92 359.08 236.41 362.13 236.31 363.41 238.84 365.39 238.35 365.73 239.74 362.64 240.5"></polygon><polygon class="cls-3" points="302.74 76.94 301.29 72.61 307.99 69.5 306.64 62.91 311.28 59.76 309.69 57.41 303.49 61.62 304.76 67.87 297.79 71.1 299.98 77.62 302.74 76.94"></polygon><path class="cls-1" d="M428.47,89.9c7.4,11.3-2.66,27-15.83,24.65a10,10,0,0,0-6.95,1.43l-7.28,4.49a4.2,4.2,0,0,1-5.79-1.23l-2.8-4.28a4.77,4.77,0,0,1,1-6.16c6.59-5.64,9.39-7.24,10.27-12C403.63,83,421.08,78.6,428.47,89.9Z" transform="translate(-58.15 -41.22)"></path><path class="cls-6" d="M411.11,96.12a13.94,13.94,0,0,1-.34-2c-.34-4,2.72-5.32,4.33-4.3a2.91,2.91,0,0,1,.86,3.6,9.6,9.6,0,0,1-2.86,3.24,19.07,19.07,0,0,0,2.93,6c3.6-2.17,6.17-1,6.34,1a3.2,3.2,0,0,1-1.92,3.09c-.73.32-2.61.75-4.85-1.72-6.08,4.29-14,10.62-14,10.64l-1-1.4s7.91-6.31,14-10.59a20.71,20.71,0,0,1-2.9-5.73c-6.93,6-13,10.83-13.25,11l-1-1.4C397.81,107.2,403.73,102.59,411.11,96.12ZM414,91.31c-.54-.2-2,.39-1.39,3.47C414.24,93.37,414.73,92.75,414,91.31Zm3.1,12.74c.89.92,2.22,1.75,3.12.76C421.4,103.52,419.75,102.57,417.13,104Z" transform="translate(-58.15 -41.22)"></path><path class="cls-4" d="M405.88,115.88l-.19.1-7.28,4.49a4.2,4.2,0,0,1-5.79-1.23l-2.8-4.28a4.77,4.77,0,0,1,1-6.16c2.93-2.51,5.11-4.22,6.71-5.76Z" transform="translate(-58.15 -41.22)"></path><path class="cls-7" d="M75.26,389.12S75,388,75,387.58s-.12-1.84-.12-1.84,0-4.84.36-4.81.82.86.93,1.16.26.64.36.94a.62.62,0,0,0,.79.36c.38-.1.22-1.39.08-1.82a50,50,0,0,0-2.55-5.07c-.22-.43,1.32-8.82,1.62-11.74h0C77.07,360,78,355.14,78,354.63l8.48-18.74-5.66-5.78s-9.7,20.66-10.07,21.75c-.17.52-.79,11.67-.78,11.67,0,5.51.1,10.36.08,11.29,0,0-.8,2.78-1.41,4.51a15.93,15.93,0,0,0-.58,4.1,11.88,11.88,0,0,0-.15,4c.25,1.89.89,0,.89,0s.16-3.6.45-3.54,0,2,.27,4.11c.07.54.13,1.07.2,1.56.17,1.28,1,1.53,1.05.16a12.81,12.81,0,0,0-.07-1.86,10.66,10.66,0,0,1,0-1.75,14,14,0,0,1,.05-1.81c.06,0,.21-.18.3.39s0,2.2.25,3.19c.13.56.34,1.76.34,1.76a12.14,12.14,0,0,0,.67,1.9c.63,0,.63-1.5.34-2.25a8.61,8.61,0,0,0-.19-1.82s.06-2.66.44-2.66,1.4,6.37,2,6.3S75.26,389.12,75.26,389.12Z" transform="translate(-58.15 -41.22)"></path><path class="cls-8" d="M83.06,346.75a40.29,40.29,0,0,1-5.38-1.3c-2.49-.93-4.13-1.74-4.13-1.74s2.73-11.69,6.14-18.79c1.41-2.93,2.83-4.35,4.82-4.69,0,0,4.19,2.75,4,9.38C88.5,331.16,83.06,346.75,83.06,346.75Z" transform="translate(-58.15 -41.22)"></path><path class="cls-7" d="M93.88,386l4.56,42s-2.23,8.87-2,11.39,5,35.58,5,35.58l-.2,1.85v5.48h17.4a77.73,77.73,0,0,1-8.86-5.07,3.68,3.68,0,0,1-1.48-2.63c-1.38-10.19,1.35-44.18,1.35-44.18l2.15-44.25Z" transform="translate(-58.15 -41.22)"></path><path class="cls-7" d="M79.9,394.87c-1,.26-2.5,36.33-3.31,37.93-5.16,10.14-6.39,41-6.39,41l-1.5,4.39-1.61,5.38s5.15,1.41,7.85-.13l-.3-5.3-.27-4.85,13-38.39,7.12-39.16Z" transform="translate(-58.15 -41.22)"></path><path class="cls-3" d="M105.78,325c-2.1-3-10.76-11.51-11.72-11.5-2.81.05-12,.05-13.81,1v2a108.47,108.47,0,0,0,3.47,26.71c1.58,6.08,3.08,12.57,2.89,14.9l0,0a12.5,12.5,0,0,0,18.6-.92h0a110.78,110.78,0,0,1,.73-12.36C107.16,335.65,111,332.33,105.78,325Z" transform="translate(-58.15 -41.22)"></path><path class="cls-7" d="M91.23,304.33s.24,6-.28,8.29-1.22,2.45,3.28,3.14c1.77.27,3.47.68,3.47.68s-.46-3.35-.53-4.76c-.12-2.33.52-9.51.52-9.51Z" transform="translate(-58.15 -41.22)"></path><path class="cls-9" d="M94.66,307.32a7.9,7.9,0,0,0,2.59.95c.15-2.84.44-6.09.44-6.09l-6.16,2.06A8.2,8.2,0,0,0,94.66,307.32Z" transform="translate(-58.15 -41.22)"></path><path class="cls-7" d="M92.66,287.49a7.88,7.88,0,0,0-4,3.74c-1.42,2.83-2,10.8,3.65,13.91,2.77,1.54,6,1.83,7.47.48s1.35-4.46,1.19-7C100.68,293.54,99.57,285.88,92.66,287.49Z" transform="translate(-58.15 -41.22)"></path><path class="cls-7" d="M88.54,297.49c.32,1.33-.11,2.61-.95,2.87s-1.78-.62-2.1-1.95.11-2.61.95-2.87S88.22,296.16,88.54,297.49Z" transform="translate(-58.15 -41.22)"></path><path class="cls-8" d="M74.65,478.06a8.33,8.33,0,0,1-5.95.07l-1.65,5.4s5.19,1.54,7.89,0Z" transform="translate(-58.15 -41.22)"></path><path class="cls-9" d="M76.91,416.29h0Z" transform="translate(-58.15 -41.22)"></path><path class="cls-8" d="M101.05,483.66h18.09c.67-.06.83-.63.6-1-.48-.71-2.59-1.24-5-2.38-4.16.45-12.89-2.51-13.55-3.5C100.85,478.8,100.68,483.57,101.05,483.66Z" transform="translate(-58.15 -41.22)"></path><path class="cls-10" d="M137.38,338.66c.35-.49,1.52-2.87,1.52-2.87s1.22-4.08,1-4a4.54,4.54,0,0,0-1.24,1.85c-.36.75-.76,2.08-1.14,2.73-.66,1.15-1.4,1.62-1.21,1.18s.58-.59,1-1.27c1-1.67,1.82-4.4,1.45-4.35s-1.26,1.93-2.3,3.4a10.71,10.71,0,0,1-2.54,1.95,3.46,3.46,0,0,1,.16-.9c.1-.32,1.54-2.23,1-2.47s-4,3.89-4,3.89l-1.4,2.39-.12.09h0s-17.06,6.69-17.63,6.51c-1.34-.43-5.93-13.71-5.93-13.71l-9.54,1.72c-.14-.07,10,19.78,11.93,20.75,1.67.85,19.4-8.38,22.73-10.36,4.59-1.77,6.38-3.87,7.12-4.94.4-.58,1.94-3.09,1.94-3.09s.33-3.48.08-3.51c-.84-.1-1.07,3.18-1.07,3.18s-1.14,1.55-1.34,1.75C137.3,339,137.38,338.66,137.38,338.66Z" transform="translate(-58.15 -41.22)"></path><path class="cls-8" d="M90.24,321.46c-1.3,5.52,5.65,17.83,5.65,17.83s9.9-4.81,11.64-6.88c0,0-6.83-11.27-7.25-12-.91-1.59-4.12-4.87-6.28-4.27C92.61,316.52,90.24,321.46,90.24,321.46Z" transform="translate(-58.15 -41.22)"></path><path class="cls-11" d="M91.81,307.85c.74-5.07,9.14-15.39,5.9-19.7-2.63-3.49-7.2-2.45-10.12-1.44-13.23,4.55-12.47,21.18-16.64,23.78-7.57,4.71-12.23,7.65-12.77,18.27-.65,12.6,10.05,19,22.92,15.95,6.92-1.66,8.75-3.92,11.52-10.45,1.25-2.94,3.77-12.13,3.08-16.62C95.08,313.61,91.21,311.93,91.81,307.85Z" transform="translate(-58.15 -41.22)"></path><ellipse class="cls-7" cx="37.48" cy="257.34" rx="1.22" ry="2.72"></ellipse><path class="cls-1" d="M113.42,413.33l.62-24.89A49.25,49.25,0,0,0,110,368l-4.7-10.79a28.46,28.46,0,0,1-5.7,1.38,55.47,55.47,0,0,1-13-.51,3.42,3.42,0,0,1-.06.44c-.78,3.67-5.16,11.84-7,23-2.09,12.68-2.87,31.64-2.61,33.13C96.93,415.6,101.7,416.32,113.42,413.33Z" transform="translate(-58.15 -41.22)"></path><path class="cls-12" d="M362.41,288.74l15.06,15.06s28.67,11.21,31.87,18.1-2.88,6.57-9.61,5.61-25.79-12.81-25.79-12.81L356.49,294.5Z" transform="translate(-58.15 -41.22)"></path><path class="cls-1" d="M406.48,318.87l-3.72-1.32-7.21,3.36s-3.72,2.52-5.53,8.77,0,43.6,3,49.61S406.48,318.87,406.48,318.87Z" transform="translate(-58.15 -41.22)"></path><path class="cls-7" d="M430.12,468.69s2.65,1.7,2.86,2.49,2.16,9.27,1.43,10.26-3.39.51-2.35,1.22c.78.54,5.81,1,9,.09.94-.25.51-8.19.65-9.4.2-1.76,1.42-5.74.68-6.78-.36-.51-2.43-1.4-4.28-2.12a15.37,15.37,0,0,1-4.12-2.92Z" transform="translate(-58.15 -41.22)"></path><path class="cls-12" d="M438,464.38s-1.56,15.06-3.39,16.17c-.49.29-3.06.52-3.3,1.74,0,0-.06,1.26.72,1.29l9.76,0s.1-7.4,0-10.3c0,0,1.35-7.4.91-8S438,464.38,438,464.38Z" transform="translate(-58.15 -41.22)"></path><path class="cls-7" d="M468.32,468.69s2.65,1.7,2.87,2.49,2.16,9.27,1.43,10.26-3.39.51-2.35,1.22c.78.54,5.81,1,9,.09.94-.25.51-8.19.65-9.4.2-1.76,1.42-5.74.68-6.78-.36-.51-2.43-1.4-4.28-2.12a15.37,15.37,0,0,1-4.12-2.92Z" transform="translate(-58.15 -41.22)"></path><path class="cls-13" d="M420.38,370.81s8.92,17.72,10.75,22.48l13.6,34.51,30,35.28s-2.2,5.67-5.52,7.19c0,0-36.16-29.2-39.14-33.8-4.53-7-25.18-50-25.18-50l-3.84-8.26Z" transform="translate(-58.15 -41.22)"></path><path class="cls-14" d="M398.81,370.63l.14,15.11S392.5,435.1,393.75,438c3.05,7.15,36.6,31.39,36.6,31.39l4.56-7.85-24.1-26.91,9.13-26.19c2.55-6.08,8-17.84,7.85-24.43-.12-5.65-11.32-18.76-11.32-18.76Z" transform="translate(-58.15 -41.22)"></path><path class="cls-12" d="M412.51,393c8.89-2,16.08-5.16,16.82-7.64.33-1.12-4.62-12.4-8.27-27.45-1.19-4.92-1-9.53-2.88-26.75-.41-3.65-1.92-11.3-7.57-13.28a8.48,8.48,0,0,0-3.09-.6s-7.19.06-10.46,1.87c-.81,1.1-3.81,7.09-4.62,23.42-.35,7.13-1.77,30-1.48,33.75q.07.83.17,1.6C392.39,387.78,402.78,395.17,412.51,393Z" transform="translate(-58.15 -41.22)"></path><path class="cls-7" d="M396.8,330.28h0c3.62-.4,12.74-12.34,12.74-12.34l0,0L403.91,309s-8.28,1.51-6.66,4,2.53,8.57,2.53,8.57-.06.15-.11.25A30.07,30.07,0,0,0,396.8,330.28Z" transform="translate(-58.15 -41.22)"></path><path class="cls-15" d="M397.25,313c-1.62-2.52,6.66-4,6.66-4l.47.74a4.83,4.83,0,0,1-.23,1.69,10.82,10.82,0,0,1-5.28,5.82A16.05,16.05,0,0,0,397.25,313Z" transform="translate(-58.15 -41.22)"></path><path class="cls-7" d="M399.24,294.92c.18-.17,6.46,10.16,5,14.42s-6.58,7.65-9.6,6.13c-3.33-1.68-8.37-13.53-5.34-18.55S399.24,294.92,399.24,294.92Z" transform="translate(-58.15 -41.22)"></path><path class="cls-11" d="M390.14,290.28c3.7-.79,10.3.3,14,2.91,4.57,3.22,4.72,8.92,2.66,12.66s-.82,6.48-.82,6.48-6.43-.4-7.73-4.78c-.55-1.84.13-3.08-1.1-4.11-1-.8-1.75-3.12-2.69-5,0,0-4.14-2.2-5.72-.39C388.22,298.69,385.4,291.3,390.14,290.28Z" transform="translate(-58.15 -41.22)"></path><ellipse class="cls-7" cx="397.95" cy="303.65" rx="1.54" ry="2.65" transform="translate(-144.28 135.03) rotate(-22.6)"></ellipse><path class="cls-12" d="M476.21,464.4s-1.61,15-3.43,16.15c-.49.29-3.06.52-3.3,1.74,0,0-.08,1.3.72,1.28l9.75,0s.11-7.4.05-10.3c0,0,1.35-7.4.91-8S476.21,464.4,476.21,464.4Z" transform="translate(-58.15 -41.22)"></path><path class="cls-3" d="M260.62,394.89c-7.75-16.21-9.88-40.4-1.43-59.59,14.24-32.39,53.41-45.61,50.53-82.31-.73-9.25-4.84-16.68-10.9-21.47-15.95-12.59-41.6-5.93-59.91,2.87a114.75,114.75,0,0,0-32.58,23.9l-5.09-64.83c22-15.6,48.58-23.75,75.12-25.84,54.4-4.27,96.4,16.13,100.68,70.54,3.9,49.62-29.64,71.61-52.13,96.42-12.49,13.77-15.31,24.38-14.34,36.66.5,6.35,2.88,14.19,6.71,19.19Zm39.06,88.65c-52.87,4.15-59-66.88-5.58-71.08C346.7,408.33,352.35,479.4,299.68,483.54Z" transform="translate(-58.15 -41.22)"></path><path class="cls-10" d="M354.35,292a11.4,11.4,0,0,0-.41-3.6,6.6,6.6,0,0,0-1.29-2.64,6,6,0,0,0-1.2-1,.6.6,0,0,0-1,.56c.12.33.75,1.48.87,1.82s.18,1.15-.1,1.42-4.66-4.75-4.93-5.19a17.35,17.35,0,0,1-.75-2s-.38-1.19-.85-.89c-.3.2-.64,1.18.24,3.11.77,1.68,1.83,3,1.71,3.13-.31.26-2.22-2-2.22-2a10,10,0,0,0-1.11-1.72c-.28-.84-.8-1.89-1.34-1.48a10.93,10.93,0,0,0,.26,1.87s.66,1.19.95,1.77c.5,1,1.63,2.28,2,3s0,.43,0,.5a14.78,14.78,0,0,1-1.26-1.49,12.39,12.39,0,0,1-1.25-1.5,14.9,14.9,0,0,0-1.24-1.68c-1-1.18-1.51-.38-.76.86l.92,1.5c1.25,2,2.79,3.58,2.64,3.77s-2.84-2.79-2.84-2.79-1.87-1.24-.76.59a18.79,18.79,0,0,0,2.75,3.54,17.78,17.78,0,0,0,3.33,3.28c1.72,1.1,4.51,2.75,4.51,2.75.32.39,1.14,1.64,2.27,3.42l4.17-5A32.66,32.66,0,0,1,354.35,292Z" transform="translate(-58.15 -41.22)"></path><path class="cls-16" d="M351.06,299.09l5.77-5,19.8,19.54s30.65,2.69,30.73,2.71l1.23.38c11.12,3.84,6.54,12.91,4.4,14.32-5,3.27-32.71,1.31-41.58-4.2C364.09,322.26,351.06,299.09,351.06,299.09Z" transform="translate(-58.15 -41.22)"></path><path class="cls-10" d="M144.72,327.11a6.63,6.63,0,0,0,.63,1.63,61.54,61.54,0,0,0,6,8.54l3.25-7.82s-.53-2.45-1.45-6C150,324.37,147,324.87,144.72,327.11Z" transform="translate(-58.15 -41.22)"></path><path class="cls-14" d="M163.36,320.33s-18.13,8.33-18.72,8.17c-.38-.1-7.44-12.71-7.51-24.57,0-5.48,5.3-12.07,11.24-10.76,3,.66,2.95,1.54,7.38,8.41S163.36,320.33,163.36,320.33Z" transform="translate(-58.15 -41.22)"></path><path class="cls-7" d="M178.84,469.73s-.43,7.6-.43,7.62c-.16,1-.78,3.35-.78,4.23,0,3.29,14.66-2.8,11.38-4.26-.3-.13-1.86-1.13-2-2.25-.15-1.73-.53-5.22-.53-5.22Z" transform="translate(-58.15 -41.22)"></path><path class="cls-12" d="M189,477.28a52.85,52.85,0,0,1-5.21,1.26c-1.76.25-4.09-1.87-5.33-1.3s-1.32,6.31-1.32,6.31,18.46,1.62,23.65-.06C202.81,482.84,196,479.63,189,477.28Z" transform="translate(-58.15 -41.22)"></path><path class="cls-7" d="M148.84,469.73s-.43,7.6-.43,7.62c-.16,1-.78,3.35-.78,4.23,0,3.29,14.66-2.8,11.38-4.26-.3-.13-2.32-1.88-2.42-3-.15-1.73-.07-4.48-.07-4.48Z" transform="translate(-58.15 -41.22)"></path><path class="cls-12" d="M159,477.28a52.84,52.84,0,0,1-5.21,1.26c-1.76.25-4.09-1.87-5.33-1.3s-1.43,6.31-1.43,6.31,18.54,1.88,23.76-.06C172.79,482.75,166,479.63,159,477.28Z" transform="translate(-58.15 -41.22)"></path><path class="cls-7" d="M153.33,331.32,166.24,312l.35-1c.65-1.92,2-5.9,3.18-9.87v0c.37-1.39,1.16-3.8,1.92-6.14.84-2.6,1.89-5.83,1.93-6.38l-.17-.49a47,47,0,0,1-1.34-5.79c-.14-.87-.29-3,.68-3,1.51,0,.79,2.1,1.49,3.41a34.89,34.89,0,0,0,1-4.38l.25-4.1c0-.31-.26-2.57.8-2.57h.05c1,.07.93,2.48,1.33,6.55.13-.47.25-1,.35-1.55a15.84,15.84,0,0,1,.32-2.15c-.19-1.13-.08-2.92,1.05-2.76.57.08.52,2.58.52,2.58,0,.34,0,3,0,3.5.12-.89.57-4.66,1.46-4.66.74,0,.8,1,.78,1.82,0,.48-.47,4.57-.5,5,.35-.62.76-4.23,1.1-4.23,1.44,0,.92,5.13.39,6.47a6.26,6.26,0,0,0-.16.72,13.18,13.18,0,0,1-1.23,3.82c-.9,1.65-2.15,4.26-2.34,4.67-.14.82-.57,3.76-1.11,7.46l-.75,5.12h0c0,.39-.32,1.63-1.34,6.27-1.4,6.35-1.54,6.63-1.61,6.74-.61,1.15-14.53,21.33-15.12,22.18l-.35.51Z" transform="translate(-58.15 -41.22)"></path><path class="cls-9" d="M177.34,286.29s-1-2.86-2.91-2.87a2,2,0,0,1,1.94.35A4.1,4.1,0,0,1,177.34,286.29Z" transform="translate(-58.15 -41.22)"></path><path class="cls-7" d="M150.21,280.76,148.54,292s6.33,5.43,10,4.28c3.1-1,1-5.28,1-5.28s-1.65-6-1.14-9.13S150.21,280.76,150.21,280.76Z" transform="translate(-58.15 -41.22)"></path><path class="cls-15" d="M151.4,284.16a24.63,24.63,0,0,0,7.17,2.16,15.88,15.88,0,0,1-.17-4.46c.23-1.45-1.49-1.79-3.42-1.74-2.52.23-4.77.65-4.77.65l-.32,2.16A5.27,5.27,0,0,0,151.4,284.16Z" transform="translate(-58.15 -41.22)"></path><path class="cls-7" d="M142.21,267.82c-.26,0,2.5,12.53,6.78,14.69s10.66,1,11.86-2.34c1.32-3.73-3.51-16.52-9.53-18.15S142.21,267.82,142.21,267.82Z" transform="translate(-58.15 -41.22)"></path><path class="cls-11" d="M147.16,256.31a14.15,14.15,0,0,0-5.51,6.5c-1.6.81-3.55,2.57-4.48,7.3-1.15,5.82,2.93,10.31,7.25,11.66s5,4.4,5,4.4l.43-3.28a13.23,13.23,0,0,0-2.41-4.29c-1.44-1.43.68-3.52.87-5.22.14-1.31-.76-3.85-.56-6,0,0,2.4-3.88,4.77-4.84C156.59,260.91,151.55,253.61,147.16,256.31Z" transform="translate(-58.15 -41.22)"></path><ellipse class="cls-7" cx="147.46" cy="276.16" rx="1.63" ry="2.81" transform="translate(-147.81 30.54) rotate(-21.14)"></ellipse><path class="cls-10" d="M164.92,331.63l24.91-4.33s-2.83-7.61-3.85-7.61-18.83,8.3-18.83,8.3l-1.42,3Z" transform="translate(-58.15 -41.22)"></path><path class="cls-12" d="M152.16,349.85s-2.48,12.82-1.47,22.54,1.09,44.25,1.09,44.25l-3.86,55.25,9.17.21s10.87-55.22,10.67-53.81,3.65-38.88,3.65-38.88l-13-30.78Z" transform="translate(-58.15 -41.22)"></path><path class="cls-16" d="M154.6,349.25s-1.62,11.54.41,16.61,17.37,54.74,17.57,58.79,5.31,48.82,5.31,48.82l10.66-.32,2.31-49.77L186,360.81,181.33,345Z" transform="translate(-58.15 -41.22)"></path><path class="cls-7" d="M148.54,292s2.63,1.84,5.08,1.63,5.92-2.63,5.92-2.63l-.48-1.74s-6.34-1-6.5-.88S148.54,292,148.54,292Z" transform="translate(-58.15 -41.22)"></path><path class="cls-10" d="M176.56,319.3s9.42,9.49,13.67,7.87,6-7.16-4.36-15.26C176.59,304.66,176.56,319.3,176.56,319.3Z" transform="translate(-58.15 -41.22)"></path><path class="cls-4" d="M182.95,331c-1.4-8.13-11.54-33.41-12.35-38.07-.39-2.27-5.87-2.32-11.08-2-5.5.31-11,1.06-11,1.06s-4.87.85-7,3-2.71,8.07.37,19.33c2.43,8.89,5.45,13.76,6.94,20.24.3,2.17.56,4.31.9,6.82.55,9.68,0,22.46,0,22.46s26.53,5.87,36.45-3C186.19,360.79,184.38,339.35,182.95,331Z" transform="translate(-58.15 -41.22)"></path><path class="cls-14" d="M189.71,313.55s-10.41,9.17-11,9.17c-.39,0-14.86-11.36-18.19-20.68-1.85-5.16,2-10.93,6.45-10.91,3.07,0,4.43.86,10.5,6.32S189.71,313.55,189.71,313.55Z" transform="translate(-58.15 -41.22)"></path><rect class="cls-3" x="300.75" y="73.41" width="37.27" height="37.27" rx="5.01" ry="5.01" transform="translate(-54.87 153.55) rotate(-34.08)"></rect><circle class="cls-2" cx="319.18" cy="90.99" r="12.77" transform="translate(-54.32 153.26) rotate(-34.08)"></circle><path class="cls-3" d="M315,85.74l5.24,5.71a1,1,0,1,1-1.52,1.39,1.06,1.06,0,0,1-.16-.22Z" transform="translate(-58.15 -41.22)"></path><path class="cls-3" d="M319,91.5l7.9-4.42L320,93a.89.89,0,1,1-1.15-1.35Z" transform="translate(-58.15 -41.22)"></path><rect class="cls-5" x="7.47" y="174.84" width="75.55" height="39.3" rx="19.65" ry="19.65"></rect><polygon class="cls-5" points="74.05 199.3 92.66 207.64 80.2 190.2 74.05 199.3"></polygon><ellipse class="cls-2" cx="29.37" cy="193.22" rx="3.26" ry="2.9"></ellipse><ellipse class="cls-2" cx="44.53" cy="193.22" rx="3.26" ry="2.9"></ellipse><ellipse class="cls-2" cx="59.69" cy="193.22" rx="3.26" ry="2.9"></ellipse><polygon class="cls-5" points="233.79 7.73 230.72 1.2 233.27 0 235.01 3.71 239.25 1.14 240.71 3.54 233.79 7.73"></polygon><polygon class="cls-3" points="58.63 134.2 51.83 136.63 50.88 133.98 54.74 132.6 52.59 128.13 55.13 126.91 58.63 134.2"></polygon><path class="cls-1" d="M403.87,67.22l1.72,5.48c.45,1.43.78,3.75,2.18,4.56a.81.81,0,0,0,1.1-.29c.69-1.52-.3-3.47-.78-5l-1.75-5.47c-.5-1.56-3-.9-2.46.68Z" transform="translate(-58.15 -41.22)"></path><path class="cls-1" d="M423.19,65.25c-3,10.09-3,9.79-2.77,10.82a1.09,1.09,0,0,0,1.81.48c.69-.71.52-.5,3.38-10.63a1.26,1.26,0,0,0-2.42-.67Z" transform="translate(-58.15 -41.22)"></path><path class="cls-1" d="M434.47,87.71l5.23-2.51c1.55-.74,3.55-1.33,4.61-2.74.47-.62-.18-1.44-.83-1.46-1.72-.05-3.56,1.27-5.06,2l-5.21,2.53c-1.46.71-.18,2.88,1.27,2.18Z" transform="translate(-58.15 -41.22)"></path><path class="cls-1" d="M428.77,118a83.32,83.32,0,0,0,5.6,6.77c1.09,1.13,2.67-.53,1.7-1.7-1.88-2.25-3.81-4.45-5.62-6.76-.95-1.21-2.61.49-1.68,1.68Z" transform="translate(-58.15 -41.22)"></path><path class="cls-1" d="M435.34,106.26c1.61.71,3.25,1.36,4.89,2s3.28,1.63,4.9,1.4c.86-.12,1-1.27.48-1.8s-.93-.62-4.49-2c-1.61-.62-3.2-1.27-4.82-1.87-1.3-.48-2.23,1.69-1,2.26Z" transform="translate(-58.15 -41.22)"></path></svg>