<svg width="463" height="392" viewBox="0 0 463 392" fill="none" xmlns="http://www.w3.org/2000/svg">
<path d="M237.367 29.2449C237.367 29.2449 184.043 26.902 153.931 74.939C123.819 122.977 101.821 101.887 68.0824 138.598C34.3434 175.31 41.3454 252.34 45.2364 283.733C49.1264 315.126 62.7824 350.268 62.7824 350.268H421.088C421.088 350.268 457.693 199.831 426.286 144.045C394.879 88.259 327.035 85.484 308.317 57.365C289.598 29.245 237.367 29.2449 237.367 29.2449Z" fill="#E5E5EC"/>
<path d="M8.54545 348.218C8.54545 348.218 110.912 339.91 449.269 350.642C457.102 350.891 478.595 372.913 439.013 379.429C399.431 385.945 365.567 379.429 308.282 388.587C250.997 397.745 193.503 381.094 138.92 381.094C84.3375 381.094 81.5305 378.328 55.6805 375.524C13.9684 370.998 -15.2625 352.565 8.54545 348.218Z" fill="#DAD7EB"/>
<path d="M355.822 334.692C349.986 333.914 345.124 348.697 345.124 348.697C345.124 348.697 345.102 348.671 345.069 348.635C344.145 345.919 343.472 342.526 342.981 338.924C344.072 338.099 349.938 333.625 351.348 331.772C352.904 329.727 352.807 324.772 349.889 324.48C346.971 324.188 342.789 336.345 342.789 336.345C342.789 336.345 342.728 336.245 342.635 336.096C342.319 333.189 342.105 330.227 341.964 327.441C343.467 325.821 346.989 321.907 347.75 320.006C348.723 317.575 348.82 315.143 346.68 315.143C345.048 315.143 342.766 320.056 341.772 322.392C341.712 320.074 341.695 318.039 341.696 316.482C342.56 314.593 344.367 310.489 344.734 308.433C345.22 305.71 345.22 301.528 343.372 301.042C341.524 300.556 339.482 302.987 338.801 307.364C338.285 310.68 339.945 314.773 340.78 316.564C340.776 318.097 340.789 320.063 340.844 322.31C339.861 319.489 337.308 312.968 334.424 312.032C332.749 311.488 330.923 313.296 331.701 316.603C332.479 319.91 339.87 326.329 339.87 326.329L341.057 327.892C341.168 330.01 341.324 332.222 341.534 334.433C339.739 331.83 336.246 327.255 332.576 325.161C330.035 323.711 323.726 326.62 327.421 331.385C330.554 335.425 339.414 338.135 342.042 338.868C342.442 341.821 342.967 344.645 343.652 347.107C340.623 343.958 333.56 337.298 328.783 338.193C322.559 339.36 321.392 345.39 326.838 347.919C332.284 350.448 345.122 350.642 345.122 350.642C345.122 350.642 352.902 347.141 355.82 344.807C358.739 342.473 361.657 335.47 355.822 334.692Z" fill="#A7A3D1"/>
<path d="M12.9767 279.692C12.9767 279.692 10.6177 289.385 17.2777 305.203C23.9377 321.021 49.9247 338.227 49.9247 338.227C49.9247 338.227 51.4827 319.911 42.5667 301.318C33.6507 282.724 12.9767 279.692 12.9767 279.692Z" fill="url(#paint0_linear_602_5)"/>
<path d="M50.0905 286.78C50.0905 286.78 44.7625 291.734 42.4655 304.039C40.1685 316.344 49.0805 337.254 49.0805 337.254C49.0805 337.254 57.3835 326.729 59.4215 311.828C61.4595 296.928 50.0905 286.78 50.0905 286.78Z" fill="url(#paint1_linear_602_5)"/>
<path d="M1.15454 322.279C1.15454 322.279 4.47254 328.754 15.6895 334.31C26.9065 339.866 49.4515 336.976 49.4515 336.976C49.4515 336.976 41.5805 326.124 27.7965 320.11C14.0125 314.098 1.15454 322.279 1.15454 322.279Z" fill="url(#paint2_linear_602_5)"/>
<path d="M27.6386 348.218H89.4616C89.4616 348.218 88.5856 340.486 80.8056 335.408C73.0256 330.33 64.0906 335.408 64.0906 335.408C64.0906 335.408 59.7976 324.624 43.9776 324.624C28.1576 324.624 25.8226 336.422 25.8226 336.422C25.8226 336.422 11.0396 332.91 8.9646 348.219H27.6386V348.218Z" fill="url(#paint3_linear_602_5)"/>
<path d="M250.008 350.268H311.831C311.831 350.268 310.955 342.536 303.175 337.458C295.394 332.38 286.46 337.458 286.46 337.458C286.46 337.458 282.167 326.674 266.347 326.674C250.527 326.674 248.193 338.471 248.193 338.471C248.193 338.471 233.41 334.959 231.335 350.268H250.008Z" fill="url(#paint4_linear_602_5)"/>
<path d="M409.134 337.341C409.134 337.341 407.39 329.645 407.765 323.902C408.139 318.159 414.807 317.389 414.968 312.779C415.128 308.169 413.489 302.285 419.021 299.078C424.553 295.871 420.229 292.784 423.592 287.25C426.955 281.716 430.89 283.469 432.928 285.543C434.966 287.617 430.166 297.215 432.528 302.209C434.889 307.203 427.271 316.387 428.138 318.454C429.005 320.521 432.059 324.283 431.676 330.322C431.293 336.361 426.832 339.735 426.832 339.735L409.134 337.341Z" fill="url(#paint5_linear_602_5)"/>
<path d="M415.052 334.727C415.052 334.727 416.001 326.893 418.288 321.612C420.574 316.33 427.112 317.85 428.815 313.564C430.518 309.277 430.956 303.185 437.245 302.028C443.534 300.871 440.502 296.509 445.532 292.43C450.562 288.351 453.677 291.327 454.897 293.966C456.117 296.605 448.367 304.027 448.909 309.524C449.451 315.021 439.186 321.104 439.306 323.343C439.426 325.581 441.035 330.152 438.641 335.709C436.247 341.266 430.91 342.941 430.91 342.941L415.052 334.727Z" fill="url(#paint6_linear_602_5)"/>
<path d="M382.043 350.642H443.866C443.866 350.642 442.99 342.91 435.21 337.832C427.429 332.754 418.495 337.832 418.495 337.832C418.495 337.832 414.202 327.048 398.382 327.048C382.562 327.048 380.228 338.845 380.228 338.845C380.228 338.845 365.445 335.333 363.37 350.642H382.043Z" fill="url(#paint7_linear_602_5)"/>
<path d="M172.939 320.216C172.939 320.216 175.662 320.605 182.081 326.829C188.5 333.053 188.27 340.25 188.27 340.25C188.27 340.25 190.445 325.467 198.42 320.215C198.42 320.215 202.699 330.524 198.42 342.584C198.42 342.584 205.617 332.275 219.038 330.135C219.038 330.135 218.065 342.862 207.756 350.6H177.802C177.802 350.6 165.547 338.111 172.939 320.216Z" fill="#A7A3D1"/>
<path d="M135.331 329.904C129.496 329.126 124.633 343.909 124.633 343.909C124.633 343.909 124.611 343.883 124.578 343.847C123.654 341.131 122.981 337.738 122.49 334.136C123.581 333.311 129.447 328.837 130.857 326.984C132.413 324.939 132.316 319.984 129.398 319.692C126.48 319.4 122.298 331.557 122.298 331.557C122.298 331.557 122.237 331.457 122.144 331.308C121.828 328.401 121.614 325.439 121.473 322.653C122.976 321.033 126.498 317.119 127.259 315.217C128.231 312.786 128.329 310.354 126.189 310.354C124.557 310.354 122.275 315.267 121.281 317.603C121.221 315.285 121.204 313.25 121.205 311.693C122.069 309.804 123.876 305.7 124.243 303.644C124.729 300.921 124.729 296.739 122.881 296.252C121.033 295.766 118.991 298.197 118.31 302.574C117.794 305.89 119.454 309.983 120.289 311.774C120.285 313.307 120.298 315.273 120.353 317.52C119.37 314.699 116.817 308.178 113.933 307.242C112.258 306.698 110.432 308.506 111.21 311.813C111.988 315.12 119.379 321.539 119.379 321.539L120.566 323.102C120.677 325.22 120.833 327.432 121.043 329.644C119.248 327.041 115.755 322.466 112.085 320.372C109.544 318.922 103.235 321.831 106.93 326.596C110.063 330.636 118.923 333.347 121.551 334.079C121.951 337.031 122.476 339.856 123.161 342.317C120.132 339.168 113.069 332.508 108.292 333.403C102.067 334.57 100.9 340.6 106.347 343.129C111.793 345.658 124.631 345.852 124.631 345.852C124.631 345.852 132.412 342.351 135.329 340.017C138.248 337.684 141.166 330.682 135.331 329.904Z" fill="#E7B142"/>
<path d="M138.351 64.13C138.351 62.433 152.94 0 228.608 0C279.506 0 324.974 33.252 324.974 81.094C324.974 114.347 300.203 134.706 267.629 148.616C256.093 153.706 255.754 163.207 255.754 174.404V193.406H199.767V156.421C199.767 141.491 200.445 129.276 215.714 119.436C236.413 106.202 255.754 105.184 255.754 81.093C255.754 64.806 243.538 53.27 228.269 53.27C203.839 53.27 191.962 73.628 188.232 88.219L138.351 64.13ZM266.612 251.43C266.612 272.804 249.307 290.109 227.591 290.109C206.214 290.109 188.909 272.804 188.909 251.43C188.909 229.714 206.214 212.409 227.591 212.409C249.307 212.409 266.612 229.714 266.612 251.43Z" fill="url(#paint8_linear_602_5)"/>
<path opacity="0.47" d="M137.445 75.168C137.445 73.581 152.576 6.27502 223.334 6.27502C270.93 6.27502 313.447 37.369 313.447 82.108C313.447 113.203 290.283 132.241 259.823 145.25C249.036 150.01 248.719 158.894 248.719 169.365V187.134H196.365V152.549C196.365 138.588 196.999 127.165 211.277 117.964C230.633 105.589 248.719 104.637 248.719 82.109C248.719 66.879 237.295 56.091 223.017 56.091C200.172 56.091 187.577 84.052 184.088 97.697L137.445 75.168ZM267.993 247.06C267.993 267.047 251.811 283.23 231.504 283.23C211.514 283.23 195.332 267.048 195.332 247.06C195.332 226.753 211.514 210.571 231.504 210.571C251.811 210.571 267.993 226.753 267.993 247.06Z" stroke="white" stroke-miterlimit="10"/>
<path d="M73.6464 86.8C73.5204 86.442 71.9574 72.202 87.9034 66.581C98.6294 62.8 110.681 66.431 114.235 76.513C116.705 83.521 112.997 89.651 107.166 95.003C105.113 96.933 105.747 98.96 106.579 101.32L107.99 105.325L96.1914 109.484L93.4444 101.69C92.3354 98.544 91.5714 95.919 94.0574 92.711C97.4364 88.385 101.437 86.733 99.6474 81.656C98.4374 78.224 95.0064 76.7 91.7884 77.834C86.6404 79.649 85.6494 84.821 85.9464 88.173L73.6464 86.8ZM114.589 116.745C116.177 121.249 113.815 126.182 109.239 127.795C104.734 129.383 99.8024 127.021 98.2144 122.517C96.6014 117.94 98.9624 113.008 103.468 111.42C108.043 109.807 112.976 112.169 114.589 116.745Z" fill="url(#paint9_linear_602_5)"/>
<path d="M346.212 94.414C346.344 94.058 354.244 82.107 370.1 87.977C380.766 91.925 387.714 102.42 384.003 112.446C381.424 119.414 374.653 121.759 366.748 122.147C363.936 122.319 363.128 124.283 362.259 126.63L360.785 130.612L349.053 126.269L351.922 118.519C353.08 115.39 354.17 112.883 358.133 112.006C363.497 110.838 367.629 112.125 369.498 107.077C370.761 103.664 369.096 100.299 365.897 99.115C360.778 97.22 356.71 100.565 354.796 103.333L346.212 94.414ZM358.56 143.613C356.902 148.092 351.933 150.376 347.383 148.691C342.903 147.033 340.619 142.064 342.277 137.585C343.962 133.034 348.93 130.75 353.41 132.409C357.96 134.094 360.244 139.063 358.56 143.613Z" fill="url(#paint10_linear_602_5)"/>
<path d="M150.63 112.649C150.701 112.457 154.965 106.007 163.522 109.175C169.278 111.306 173.028 116.97 171.025 122.38C169.633 126.141 165.979 127.406 161.713 127.616C160.195 127.709 159.759 128.769 159.29 130.035L158.494 132.184L152.163 129.84L153.711 125.657C154.336 123.968 154.924 122.615 157.063 122.142C159.958 121.512 162.188 122.206 163.196 119.482C163.878 117.64 162.979 115.824 161.252 115.185C158.489 114.162 156.294 115.967 155.261 117.461L150.63 112.649ZM157.294 139.2C156.399 141.617 153.718 142.85 151.262 141.941C148.844 141.046 147.612 138.365 148.507 135.947C149.416 133.491 152.098 132.259 154.515 133.153C156.971 134.063 158.203 136.745 157.294 139.2Z" fill="#B6B6CE"/>
<path d="M334.142 34.613C334.111 34.373 335.029 25.276 345.731 23.888C352.93 22.954 359.97 26.823 360.847 33.59C361.457 38.293 358.327 41.627 353.975 44.192C352.437 45.123 352.563 46.473 352.769 48.057L353.118 50.745L345.2 51.772L344.522 46.541C344.248 44.429 344.12 42.689 346.099 41.018C348.784 38.767 351.5 38.268 351.059 34.861C350.76 32.558 348.821 31.15 346.662 31.43C343.207 31.878 341.901 34.975 341.641 37.107L334.142 34.613ZM355.717 58.751C356.109 61.774 353.979 64.539 350.908 64.937C347.885 65.329 345.12 63.199 344.728 60.176C344.33 57.105 346.46 54.34 349.483 53.948C352.554 53.55 355.319 55.679 355.717 58.751Z" fill="#E5E5EC"/>
<path d="M298.129 301.009L319.754 346.407L319.181 353.042C322.304 354.694 330.11 343.847 330.11 343.847L327.851 341.068C327.851 341.068 321.114 306.021 315.529 301.009H298.129Z" fill="#D36762"/>
<path d="M319.241 351.499C319.241 351.499 317.732 353.927 315.884 356.334C314.036 358.741 312.127 361.446 312.95 362.704C313.774 363.962 322.403 357.972 328.656 353.708C334.909 349.444 334.062 349.322 333.949 348.626C333.836 347.93 329.776 343.208 329.776 343.208C329.776 343.208 325.119 349.262 322.363 351.066C319.608 352.871 319.241 351.499 319.241 351.499Z" fill="#282E4E"/>
<path d="M317.606 301.009L299.991 296.426L305.059 354.146L299.991 359.153H316.174L315.364 354.54C315.753 349.306 318.539 311.14 317.606 301.009Z" fill="#FF897F"/>
<path d="M318.751 216.943C318.751 216.943 325.84 233.269 326.914 240.358C327.988 247.447 317.462 257.973 317.462 257.973L318.751 216.943Z" fill="#FF897F"/>
<path d="M297.412 181.497L296.267 184.864C296.267 184.864 293.546 184.864 293.26 185.723C292.974 186.582 294.692 188.014 294.692 188.014C294.692 188.014 292.866 195.246 294.907 198.576C296.948 201.906 309.192 200.08 309.192 200.08C309.192 200.08 314.24 199.543 317.033 193.958C319.826 188.373 321.866 184.076 320.792 178.491C320.164 175.227 314.316 172.963 308.634 173.133C303.521 173.286 299.058 176.654 297.412 181.497Z" fill="#FF897F"/>
<path d="M301.996 199.435L301.244 206.847L313.596 205.128L314.578 197.319L301.996 199.435Z" fill="#FF897F"/>
<path d="M309.226 204.216C309.226 204.216 299.418 204.198 295.443 213.291C290.011 225.72 295.264 243.867 295.264 243.867L294.264 253.71C294.264 253.71 295.98 257.973 322.165 253.459L318.751 244.011C318.751 244.011 321.858 222.11 321.083 215.207C320.04 205.916 309.226 204.216 309.226 204.216Z" fill="#BDBED1"/>
<path d="M302.395 175.089C302.395 175.089 302.157 179.619 304.842 183.539C307.527 187.459 309.031 188.05 309.031 188.05C309.031 188.05 308.386 190.306 308.762 190.95C309.138 191.595 310.642 188.641 312.521 189.07C314.401 189.5 314.508 193.205 312.736 195.353C310.964 197.501 308.44 197.071 308.44 197.071C308.44 197.071 307.634 202.817 310.803 207.382C313.972 211.947 320.04 213.827 325.411 211.517C330.781 209.208 332.661 204.106 331.802 199.326C330.943 194.546 324.713 190.894 324.713 190.894C324.713 190.894 327.13 180.331 322.995 175.086C318.86 169.841 307.26 169.895 302.856 171.829C302.856 171.829 298.613 170.278 295.928 173.121C293.243 175.964 293.935 180.759 296.999 182.711C296.998 182.714 299.196 176.843 302.395 175.089Z" fill="#282E4E"/>
<path d="M302.484 211.39L287.169 229.403L293.775 236.535L312.526 221.842C315.837 219.247 316.269 214.395 313.467 211.257C310.524 207.96 305.347 208.023 302.484 211.39Z" fill="#D3D5E2"/>
<path d="M280.048 203.123C280.048 203.123 281.48 225.536 281.91 230.047C282.34 234.558 284.309 238.138 288.247 238.425C291.418 238.656 293.775 236.534 293.775 236.534L287.352 202.514L280.048 203.123Z" fill="#FF897F"/>
<path d="M283.306 193.671C283.306 193.671 282.626 194.065 282.125 194.96C282.125 194.96 280.979 195.282 280.299 196.607C280.299 196.607 279.905 197.072 279.332 198.29C278.759 199.507 280.335 204.198 280.335 204.198L287.557 203.598C287.557 203.598 288.856 200.797 289.178 199.436C289.5 198.075 288.534 196.464 288.247 195.927C287.961 195.39 287.459 195.569 287.245 196.07C287.03 196.571 287.424 198.505 287.424 198.505L286.912 199.221C286.912 199.221 286.099 198.362 286.206 196.93C286.314 195.498 288.354 191.989 287.638 191.023C286.922 190.056 285.203 193.171 285.203 193.171C285.203 193.171 284.201 193.242 283.306 193.671Z" fill="#FF897F"/>
<path d="M294.264 253.71L296.123 301.009H317.605C317.605 301.009 324.147 261.761 322.165 253.459C322.165 253.459 304.359 256.04 294.264 253.71Z" fill="url(#paint11_linear_602_5)"/>
<path d="M302.225 356.945C302.225 356.945 299.633 358.15 296.768 359.153C293.904 360.156 290.825 361.373 290.825 362.876C290.825 364.38 301.326 364.093 308.893 363.95C316.46 363.807 316.746 363.592 317.033 362.948C317.319 362.304 315.581 355.778 315.581 355.778C315.581 355.778 308.369 358.293 305.075 358.293C301.781 358.293 302.225 356.945 302.225 356.945Z" fill="#282E4E"/>
<path d="M306.331 199.143C306.331 199.143 304.573 200.293 301.88 200.575" stroke="#BA6561" stroke-miterlimit="10" stroke-linecap="round" stroke-linejoin="round"/>
<path d="M280.688 203.429L284.973 202.858" stroke="#BA6561" stroke-miterlimit="10" stroke-linecap="round" stroke-linejoin="round"/>
<path d="M165.478 359.166H152.418V366.873H165.478V359.166Z" fill="#FF897F"/>
<path d="M152.418 365.945C152.418 365.945 152.204 374.295 152.418 375.651C152.418 375.651 158.912 376.008 162.195 376.008C165.478 376.008 174.827 376.365 177.753 375.651C180.679 374.937 179.537 373.724 178.823 372.511C178.109 371.298 165.192 365.945 165.192 365.945C165.192 365.945 157.77 367.087 152.418 365.945Z" fill="#282E4E"/>
<path d="M145.923 255.399C145.923 255.399 145.495 266.746 145.923 282.589C146.351 298.432 150.276 361.734 150.276 361.734L167.261 362.519L173.541 255.399H145.923Z" fill="url(#paint12_linear_602_5)"/>
<path d="M163.917 167.189L165.059 170.545C165.059 170.545 167.771 170.545 168.056 171.401C168.341 172.257 166.628 173.685 166.628 173.685C166.628 173.685 168.448 180.893 166.414 184.212C164.38 187.53 152.177 185.711 152.177 185.711C152.177 185.711 147.146 185.176 144.363 179.609C141.58 174.042 139.545 169.761 140.615 164.194C141.241 160.941 147.07 158.684 152.733 158.854C157.829 159.006 162.276 162.363 163.917 167.189Z" fill="#FF897F"/>
<path d="M159.35 185.068L160.099 192.455L147.788 190.742L146.809 182.958L159.35 185.068Z" fill="#FF897F"/>
<path d="M159.523 161.196C159.523 161.196 157.629 164.336 153.454 165.977C153.454 165.977 154.915 171.866 153.774 172.526C152.632 173.185 152.705 171.615 150.421 171.401C148.137 171.187 147.922 174.113 148.636 176.753C149.35 179.393 152.134 180.036 153.133 179.822C154.132 179.608 154.418 180.821 152.419 182.605C150.421 184.389 147.218 186.207 147.218 186.207C147.218 186.207 138.217 177.928 136.647 173.701C135.077 169.473 136.647 167.118 136.647 167.118C136.647 167.118 135.505 161.629 140.001 158.843C144.497 156.056 153.632 155.414 157.343 155.771C161.054 156.128 160.697 158.126 160.697 158.126C160.697 158.126 162.267 158.269 162.981 160.267C163.695 162.265 162.192 163.871 162.192 163.871C162.192 163.871 160.584 161.859 159.523 161.196Z" fill="#282E4E"/>
<path d="M147.636 189.54C147.636 189.54 142.648 196.736 140.325 204.23C138.002 211.723 145.924 255.399 145.924 255.399H173.543C173.543 255.399 172.702 213.017 170.676 205.639C168.089 196.219 160.099 191.598 160.099 191.598L147.636 189.54Z" fill="url(#paint13_linear_602_5)"/>
<path d="M155.939 256.072L155.281 358.639" stroke="#F96786" stroke-miterlimit="10" stroke-linecap="round" stroke-linejoin="round"/>
<path d="M150.075 358.639H167.821" stroke="#F96786" stroke-miterlimit="10" stroke-linecap="round" stroke-linejoin="round"/>
<path d="M142.004 202.407C138.088 209.527 130.756 224.004 126.656 239.342L138.217 244.052L156.683 210.285C157.946 207.976 158.094 205.198 156.995 202.807C156.969 202.75 156.942 202.693 156.915 202.636C153.994 196.528 145.266 196.475 142.004 202.407Z" fill="url(#paint14_linear_602_5)"/>
<path d="M160.627 262.171C160.627 262.171 163.558 262.729 163.558 262.171C163.558 261.613 162.106 260.887 160.488 260.859C160.057 260.852 159.623 260.865 159.214 260.887L159.254 260.568L160.494 260.326C160.494 260.326 163.166 261.292 163.333 260.782C163.5 260.272 161.527 258.824 160.325 258.914C159.661 258.963 158.726 259.148 158.013 259.304L156.729 259.417C157.725 258.768 158.651 258.433 158.428 258.018C158.168 257.534 157.609 257.609 155.897 258.278C154.783 258.714 153.803 259.337 153.249 259.722L152.709 259.769L138.217 244.052L126.656 239.342C126.656 239.342 123.337 246.835 128.476 252.937C133.614 259.039 151.063 267.175 151.063 267.175L151.067 267.167C152.974 267.995 158.607 265.75 158.607 265.75L158.613 265.704L159.694 265.521C159.694 265.521 162.625 266.079 162.625 265.521C162.625 264.963 161.173 264.237 159.555 264.209C159.302 264.205 159.05 264.209 158.8 264.216L158.812 264.124L160.45 263.846C160.45 263.846 163.381 264.404 163.381 263.846C163.381 263.288 161.93 262.562 160.311 262.534C159.87 262.526 159.425 262.54 159.008 262.564L159.023 262.444L160.627 262.171Z" fill="#FF897F"/>
<path d="M154.207 184.203C154.207 184.203 156.996 186.347 159.465 186.204" stroke="#BA6561" stroke-miterlimit="10" stroke-linecap="round" stroke-linejoin="round"/>
<path d="M152.708 259.769C152.708 259.769 154.224 263.036 154.01 264.429" stroke="#BA6561" stroke-miterlimit="10" stroke-linecap="round" stroke-linejoin="round"/>
<path d="M379.063 199.066C379.063 199.066 371.253 213.173 365.722 224.319L350.844 212.134L349.908 211.057C349.678 210.36 349.324 209.527 348.791 208.869C347.668 207.483 347.426 204.514 346.699 205.994C346.315 206.776 346.632 208.266 347.015 209.501L343.911 209.287C343.216 209.055 340.4 208.16 338.687 208.286C336.723 208.432 337.196 209.195 337.305 209.341C337.4 209.468 339.98 209.788 341.821 210.469L341.766 210.609C340.592 210.27 338.789 209.832 337.557 209.923C335.593 210.069 336.066 210.832 336.175 210.978C336.278 211.115 339.278 211.477 341.116 212.275L341.084 212.357C339.933 212.045 338.406 211.715 337.321 211.796C335.357 211.942 335.83 212.705 335.939 212.851C336.031 212.974 338.456 213.279 340.281 213.918C339.348 213.777 338.352 213.692 337.589 213.799C335.639 214.073 336.16 214.804 336.279 214.942C336.365 215.042 338.172 215.164 339.86 215.522L346.837 217.947C349.062 221.913 356.914 235.16 364.346 238.53C366.599 239.551 369.687 238.352 371.236 236.424L379.927 225.612L379.063 199.066Z" fill="#FF897F"/>
<path d="M383.137 332.997L385.465 358.459L381.409 363.17C381.409 363.17 382.664 367.044 395.068 362.533L393.759 356.915C393.759 356.915 395.505 339.108 395.068 333.579L383.137 332.997Z" fill="#FF897F"/>
<path d="M412.818 332.997L418.492 358.459L419.074 363.406C419.074 363.406 424.185 369.335 431.769 365.407L426.495 357.005L424.313 332.998H412.818V332.997Z" fill="#FF897F"/>
<path d="M381.827 362.351C381.827 362.351 373.752 368.498 373.606 369.735C373.46 370.972 374.188 371.336 376.225 371.554C378.262 371.772 388.52 370.244 392.157 369.517C395.794 368.79 395.94 368.135 395.94 368.135C395.94 368.135 396.326 365.225 394.787 361.333C394.787 361.333 391.83 364.152 384.136 363.77C382.387 363.683 381.827 362.351 381.827 362.351Z" fill="#464F96"/>
<path d="M418.711 360.312C418.711 360.312 418.784 368.244 419.875 370.426C420.966 372.608 426.204 374.136 428.823 374.9C431.442 375.664 437.771 376.1 438.753 373.918C439.735 371.735 431.769 365.406 431.769 365.406C431.769 365.406 426.858 366.18 424.24 365.897C421.622 365.614 418.711 360.312 418.711 360.312Z" fill="#464F96"/>
<path d="M417.91 267.232C416.551 260.035 414.193 253.259 410.275 247.161L408.105 236.476C410.108 230.99 416.512 212.488 416.456 200.33L401.035 195.868L392.538 195.572C392.538 195.572 387.396 196.553 379.064 199.066C379.064 199.066 375.279 214.018 375.786 221.294C376.142 226.395 377.562 231.819 378.38 234.612H378.379L378.189 247.589L376.225 352.702L397.613 354.385L396.814 278.872L398.493 279.562L411.363 356.131L431.769 353.512C431.769 353.512 419.336 274.777 417.91 267.232Z" fill="url(#paint15_linear_602_5)"/>
<path d="M389.456 196.715C389.456 196.715 387.099 198.858 388.438 200.626C389.777 202.394 393.151 200.264 393.151 200.264C393.151 200.264 396.152 202.93 399.849 201.912C403.546 200.894 404.349 196.716 404.349 196.716" stroke="#F96786" stroke-miterlimit="10" stroke-linecap="round" stroke-linejoin="round"/>
<path d="M416.694 200.331C416.694 200.331 410.237 207.415 409.886 214.68C409.603 220.532 421.608 232.881 425.695 238.062L410.165 252.105L409.618 252.194C409.328 252.032 408.773 251.775 407.835 251.518C406.307 251.1 404.307 251.318 404.143 251.518C403.979 251.718 404.179 252.027 404.871 252.155C405.562 252.282 406.253 252.282 406.253 252.282L406.899 252.635L404.297 253.057C403.359 253.084 401.696 253.17 400.67 253.445C399.179 253.845 397.687 254.991 397.942 255.5C398.197 256.009 399.997 255.209 400.834 254.773L403.503 254.733L403.598 254.877C402.766 254.932 401.829 255.03 401.161 255.209C399.67 255.609 398.178 256.755 398.433 257.264C398.687 257.773 400.488 256.973 401.325 256.537L404.662 256.488L404.711 256.561C403.989 256.62 403.235 256.713 402.672 256.864C401.181 257.264 399.689 258.41 399.944 258.919C400.199 259.428 401.999 258.628 402.836 258.192L405.761 258.149L405.771 258.164C405.452 258.212 405.151 258.268 404.892 258.338C403.401 258.738 401.909 259.884 402.164 260.393C402.419 260.902 404.219 260.102 405.056 259.666L406.747 259.641C406.747 259.641 411.731 260.193 413.887 256.96C417.474 255.277 434.058 244.983 436.029 241.406C438.887 236.212 416.694 200.331 416.694 200.331Z" fill="#FF897F"/>
<path d="M383.217 181.482C383.217 181.482 381.052 188.5 381.316 193.145C381.58 197.791 386.063 196.888 387.171 196.483C388.279 196.079 389.964 198.039 391.403 197.409C392.842 196.78 390.927 193.21 390.927 193.21L383.217 181.482Z" fill="#282E4E"/>
<path d="M390.621 190.865L390.876 199.618C390.876 199.618 391.745 200.288 394.245 200.331C396.744 200.373 400.451 197.958 400.451 197.958L399.976 189.143L390.621 190.865Z" fill="#FF897F"/>
<path d="M405.172 178.106C404.405 178.055 403.788 178.164 403.287 178.356C403.737 174.065 403.704 170.364 403.704 170.364L383.425 169.139C383.425 169.139 382.099 179.574 383.186 185.535C383.715 188.44 385.603 190.638 387.399 192.129C389.65 193.997 392.739 194.381 395.401 193.169C397.647 192.146 400.169 190.377 401.371 187.378C401.421 187.254 401.468 187.125 401.516 186.997C402.566 186.653 404.179 185.947 405.641 184.557C408.06 182.26 408.375 178.32 405.172 178.106Z" fill="#FF897F"/>
<path d="M390.373 174.047C394.293 175.787 399.482 174.846 399.482 174.846C399.482 174.846 398.656 177.472 399.284 179.578C399.913 181.691 401.171 181.891 401.171 181.891C401.171 181.891 402.696 178.443 404.706 178.769C406.715 179.095 406.028 183.009 404.5 184.653C402.972 186.297 401.42 186.285 401.42 186.285C401.42 186.285 399.359 188.791 399.976 191.301C399.976 191.301 400.354 196.702 400.451 197.958C400.451 197.958 401.245 198.887 403.247 197.808C405.249 196.73 407.865 198.842 411.432 196.576C414.999 194.31 414.552 190.996 412.635 186.347C410.718 181.698 409.991 176.037 409.991 176.037C409.991 176.037 409.856 169.355 407.969 165.94C406.083 162.525 402.755 161.217 398.904 160.438C395.053 159.659 392.148 161.114 392.148 161.114C392.148 161.114 383.987 162.064 381.293 166.945C376.505 175.618 382.761 179.043 382.761 179.043C382.761 179.043 385.434 175.725 386.132 169.909C386.132 169.909 387.711 172.865 390.373 174.047Z" fill="#282E4E"/>
<path d="M379.928 225.613C379.928 225.613 385.545 223.715 388.973 223.715C392.402 223.715 401.402 226.715 401.402 226.715" stroke="#F96786" stroke-miterlimit="10"/>
<path d="M393.152 200.263C393.152 200.263 391.921 205.982 392.189 209.947" stroke="#F96786" stroke-miterlimit="10" stroke-linecap="round" stroke-linejoin="round"/>
<path d="M388.26 273.429C388.26 273.429 396.013 275.407 398.494 279.561" stroke="#F96786" stroke-miterlimit="10" stroke-linecap="round" stroke-linejoin="round"/>
<path d="M410.632 351.784L431.115 349.371" stroke="#F96786" stroke-miterlimit="10" stroke-linecap="round" stroke-linejoin="round"/>
<path d="M376.304 348.517L397.574 350.642" stroke="#F96786" stroke-miterlimit="10" stroke-linecap="round" stroke-linejoin="round"/>
<path d="M425.695 238.062C425.695 238.062 430.137 238.858 431.769 239.715" stroke="#BA6561" stroke-miterlimit="10" stroke-linecap="round" stroke-linejoin="round"/>
<path d="M365.722 224.319C365.722 224.319 366.185 228.714 365.722 231.857" stroke="#BA6561" stroke-miterlimit="10" stroke-linecap="round" stroke-linejoin="round"/>
<path d="M390.927 193.867C390.927 193.867 394.954 194.699 399.321 190.493" stroke="#BA6561" stroke-miterlimit="10" stroke-linecap="round" stroke-linejoin="round"/>
<path d="M56.9845 332.299L59.5285 355.958L56.9845 368.297C56.9845 368.297 56.3485 369.187 61.9455 370.078C67.5425 370.968 70.5955 368.679 70.5955 368.679L68.5605 355.577L69.4505 334.334L56.9845 332.299Z" fill="#FF897F"/>
<path d="M89.8025 333.189L94.7625 354.687L96.2895 364.862L117.277 365.371L105.193 354.687L101.25 331.281L89.8025 333.189Z" fill="#FF897F"/>
<path d="M58.6374 360.871C58.6374 360.871 59.6774 364.398 63.2644 364.782C68.7504 365.37 69.4184 361.104 69.4184 361.104C69.4184 361.104 71.3584 368.805 71.4214 370.586C71.4854 372.367 67.5574 374.656 63.6364 374.656C59.2104 374.656 57.0484 372.366 56.0304 370.84C55.0124 369.314 58.6374 360.871 58.6374 360.871Z" fill="#464F96"/>
<path d="M95.2015 357.613C95.2015 357.613 94.8135 362.064 95.2015 363.972C95.5895 365.88 96.0345 367.089 96.4795 367.216C96.9245 367.343 104.302 367.677 106.083 367.764C107.864 367.851 116.133 368.185 118.613 367.764C121.093 367.343 121.538 367.216 121.919 366.134C122.301 365.053 110.799 359.644 110.799 359.644C110.799 359.644 108.118 360.696 103.92 360.871C99.7235 361.046 96.9765 357.487 95.2015 357.613Z" fill="#464F96"/>
<path d="M70.4845 177.865V186.234L60.3055 185.612L58.6975 173.817L70.4845 177.865Z" fill="#FF897F"/>
<path d="M125.451 187.667C124.181 187.223 122.413 187.359 121.253 187.527L121.227 187.064C123.049 186.72 126.572 186.174 124.77 185.627C122.695 184.998 119.388 185.931 119.388 185.931L116.258 185.082C117.134 183.825 117.869 181.145 117.138 181.508C116.451 181.849 113.8 185.477 113.061 186.433L99.3954 201.219L79.8204 183.62C77.7274 185.853 77.1154 196.662 80.2094 201.796C83.3024 206.93 99.6874 213.019 99.6874 213.019C106.204 212.835 114.293 197.653 116.679 192.874L119.992 192.804C119.992 192.804 120.924 192.756 121.544 192.694H121.545C123.431 192.505 125.901 192.231 124.383 191.632C123.532 191.297 122.442 191.221 121.464 191.245L121.44 190.818C123.249 190.551 126.924 190.152 125.12 189.52C123.999 189.128 122.492 189.189 121.356 189.323L121.34 189.032C122.876 188.768 127.418 188.355 125.451 187.667Z" fill="#FF897F"/>
<path d="M73.6884 153.964C73.6884 153.964 77.3293 166.517 77.6313 172.097C77.9333 177.676 74.3674 180.918 69.6924 180.918C65.0174 180.918 61.0214 178.091 61.0214 178.091L55.1843 167.358C53.0093 163.359 54.2734 158.343 58.1114 155.896C59.6884 154.891 61.4534 153.925 63.2844 153.21C69.4664 150.797 73.6884 153.964 73.6884 153.964Z" fill="#FF897F"/>
<path d="M57.0255 167.912C57.0255 167.912 53.7835 166.781 52.7275 168.817C51.6715 170.853 54.1895 174.023 56.4215 175.075C58.6535 176.127 61.9255 175.075 61.9255 175.075L57.0255 167.912Z" fill="#FF897F"/>
<path d="M91.7874 239.313C91.7874 239.313 86.8043 242.334 76.1003 242.936C71.6223 243.189 66.7564 243.072 62.6184 242.849C56.8484 242.548 52.4783 242.033 52.4783 242.033L54.1204 221.519L45.9124 187.922C49.5354 185.057 59.8994 182.619 59.8994 182.619C59.8994 182.619 64.5914 186.232 69.1654 185.785C70.7294 185.63 70.4864 182.143 70.4864 182.143C70.4864 182.143 76.3723 181.774 79.0333 182.794C79.4313 182.94 79.7624 183.124 79.9854 183.348C86.6094 189.953 84.8414 220.462 84.8414 220.462L91.7874 239.313Z" fill="url(#paint16_linear_602_5)"/>
<path d="M72.2376 153.549C72.2376 153.549 71.7856 156.433 68.7316 159.543C65.6786 162.653 62.8506 162.823 62.8506 162.823C62.8506 162.823 62.0586 164.519 60.8146 165.368C59.5706 166.216 59.5706 166.216 59.5706 166.216C59.5706 166.216 60.5316 168.93 60.0796 170.909C60.0796 170.909 57.6256 167.352 55.3186 167.604C53.0116 167.856 52.0506 170.538 53.5776 172.646C55.1036 174.754 58.1666 175.576 58.8926 175.542L59.6956 181.134C59.6956 181.134 58.0936 181.652 55.6776 180.795C55.6356 180.78 55.5956 180.763 55.5556 180.745C54.4246 180.238 53.1236 181.878 50.7486 181.934C48.3736 181.991 47.9216 180.52 45.9426 181.142C43.9636 181.764 40.1746 182.443 38.8746 178.428C37.5736 174.413 40.7406 173.226 39.7226 170.851C38.7046 168.476 40.0056 166.666 42.0976 165.536C44.1896 164.405 42.0976 158.468 45.2076 156.093C48.3176 153.718 49.1096 153.492 49.7876 152.021C50.4656 150.551 53.3636 149.084 55.9846 149.19C59.2576 149.322 58.5316 146.051 63.1326 146.499C68.5606 147.027 69.6356 149.308 69.6356 149.308C69.6356 149.308 72.0906 149.238 74.8376 151.626C79.3046 155.509 78.4576 160.731 76.3556 164.374C76.3556 164.374 73.5946 155.019 72.2376 153.549Z" fill="#282E4E"/>
<path d="M46.2885 187.192L28.2804 206.392L13.4065 192.822C12.5885 191.933 9.63845 188.543 8.92545 188.261C8.16645 187.962 9.12745 190.569 10.1065 191.747L7.05945 192.859C7.05845 192.859 3.68545 192.211 1.67045 193.014C-0.0785503 193.712 3.47845 193.956 5.32245 194.144L5.33545 194.608C4.16545 194.54 2.39245 194.554 1.16445 195.105C-0.737551 195.958 3.82445 195.983 5.37945 196.117L5.38745 196.408C4.24345 196.37 2.73745 196.438 1.65345 196.924C-0.0905505 197.706 3.60445 197.792 5.43045 197.904L5.44245 198.332C4.46545 198.392 3.38645 198.559 2.56645 198.966C1.10445 199.692 3.58845 199.755 5.48445 199.782C6.10745 199.791 7.04145 199.76 7.04145 199.76L10.3484 199.547C13.1334 204.106 22.4835 218.545 28.9925 218.174C28.9925 218.174 48.0725 208.061 50.7185 202.683C53.3655 197.305 48.5645 189.24 46.2885 187.192Z" fill="#FF897F"/>
<path d="M106.337 332.936L101.383 333.742L89.0384 335.733L76.0624 267.558L74.2854 265.266V335.734H54.1884C54.1884 335.734 48.8464 286.13 48.8464 271.113C48.8464 256.106 52.7804 238.234 52.7804 238.234C72.4974 244.285 90.8454 236.758 90.8454 236.758C91.0304 237.224 91.2044 237.72 91.3994 238.244C98.6254 259.273 106.337 332.936 106.337 332.936Z" fill="url(#paint17_linear_602_5)"/>
<path d="M28.2815 206.392C28.2815 206.392 31.2605 209.572 32.5455 211.715" stroke="#BA6561" stroke-miterlimit="10" stroke-linecap="round" stroke-linejoin="round"/>
<path d="M99.3945 201.219C99.3945 201.219 98.5295 204.286 99.3945 207.001" stroke="#BA6561" stroke-miterlimit="10" stroke-linecap="round" stroke-linejoin="round"/>
<path d="M70.4844 180.918C70.4844 180.918 63.4164 181.889 60.0884 176.373" stroke="#BA6561" stroke-miterlimit="10" stroke-linecap="round" stroke-linejoin="round"/>
<path d="M54.9734 221.029L58.6974 222.286" stroke="#F96786" stroke-miterlimit="10" stroke-linecap="round" stroke-linejoin="round"/>
<path d="M50.4595 251.417C50.4595 251.417 57.0675 250.056 58.0575 242.384" stroke="#7954B3" stroke-miterlimit="10"/>
<path d="M52.2185 240.993C52.2185 240.993 73.1735 247.768 91.7885 239.313" stroke="#7954B3" stroke-miterlimit="10"/>
<path d="M74.2844 265.266C74.2844 265.266 75.7944 260.679 79.6524 258.537" stroke="#7954B3" stroke-miterlimit="10"/>
<path d="M87.8374 240.874C87.8374 240.874 90.1224 247.795 94.3164 249.254" stroke="#7954B3" stroke-miterlimit="10"/>
<path d="M53.5806 329.944C53.5806 329.944 60.8406 331.034 74.2856 329.944" stroke="#7954B3" stroke-miterlimit="10"/>
<path d="M105.665 326.765C105.665 326.765 96.3726 329.097 87.8516 329.495" stroke="#7954B3" stroke-miterlimit="10"/>
<path d="M57.2034 183.321C57.2034 183.321 61.5994 187.554 67.9744 187.554C74.3494 187.554 72.3124 182.081 72.3124 182.081" stroke="#F96786" stroke-miterlimit="10" stroke-linecap="round" stroke-linejoin="round"/>
<path d="M62.5095 208.608C62.5095 208.608 71.9385 206.749 80.0805 206.393" stroke="#F96786" stroke-miterlimit="10" stroke-linecap="round" stroke-linejoin="round"/>
<defs>
<linearGradient id="paint0_linear_602_5" x1="15.2532" y1="282.203" x2="33.361" y2="308.428" gradientUnits="userSpaceOnUse">
<stop stop-color="#DC911B"/>
<stop offset="1" stop-color="#E7B142"/>
</linearGradient>
<linearGradient id="paint1_linear_602_5" x1="42.0868" y1="312.017" x2="59.6662" y2="312.017" gradientUnits="userSpaceOnUse">
<stop stop-color="#DC911B"/>
<stop offset="1" stop-color="#E7B142"/>
</linearGradient>
<linearGradient id="paint2_linear_602_5" x1="29.0245" y1="309.98" x2="23.8211" y2="337.454" gradientUnits="userSpaceOnUse">
<stop stop-color="#DC911B"/>
<stop offset="1" stop-color="#E7B142"/>
</linearGradient>
<linearGradient id="paint3_linear_602_5" x1="46.2197" y1="296.733" x2="48.9949" y2="344.466" gradientUnits="userSpaceOnUse">
<stop stop-color="#FFE9EC"/>
<stop offset="1" stop-color="#A7A3D1"/>
</linearGradient>
<linearGradient id="paint4_linear_602_5" x1="272.55" y1="364.188" x2="270.469" y2="334.217" gradientUnits="userSpaceOnUse">
<stop stop-color="#DC911B"/>
<stop offset="1" stop-color="#E7B142"/>
</linearGradient>
<linearGradient id="paint5_linear_602_5" x1="417.821" y1="254.067" x2="422.418" y2="342.052" gradientUnits="userSpaceOnUse">
<stop stop-color="#FFE9EC"/>
<stop offset="1" stop-color="#A7A3D1"/>
</linearGradient>
<linearGradient id="paint6_linear_602_5" x1="422.876" y1="304.102" x2="436.821" y2="315.342" gradientUnits="userSpaceOnUse">
<stop stop-color="#FFE9EC"/>
<stop offset="1" stop-color="#A7A3D1"/>
</linearGradient>
<linearGradient id="paint7_linear_602_5" x1="363.37" y1="338.845" x2="443.866" y2="338.845" gradientUnits="userSpaceOnUse">
<stop stop-color="#DC911B"/>
<stop offset="1" stop-color="#E7B142"/>
</linearGradient>
<linearGradient id="paint8_linear_602_5" x1="156.531" y1="177.403" x2="334.846" y2="85.6272" gradientUnits="userSpaceOnUse">
<stop stop-color="#7954B3"/>
<stop offset="0.0488" stop-color="#7153AE"/>
<stop offset="0.2128" stop-color="#5951A1"/>
<stop offset="0.366" stop-color="#4B4F99"/>
<stop offset="0.4969" stop-color="#464F96"/>
<stop offset="0.6394" stop-color="#4A4F98"/>
<stop offset="0.7788" stop-color="#56519F"/>
<stop offset="0.9165" stop-color="#6952AA"/>
<stop offset="1" stop-color="#7954B3"/>
</linearGradient>
<linearGradient id="paint9_linear_602_5" x1="108.39" y1="137.126" x2="93.9591" y2="81.6232" gradientUnits="userSpaceOnUse">
<stop stop-color="#DC911B"/>
<stop offset="1" stop-color="#E7B142"/>
</linearGradient>
<linearGradient id="paint10_linear_602_5" x1="341.737" y1="117.802" x2="385.012" y2="117.802" gradientUnits="userSpaceOnUse">
<stop stop-color="#DC911B"/>
<stop offset="1" stop-color="#E7B142"/>
</linearGradient>
<linearGradient id="paint11_linear_602_5" x1="316.001" y1="290.716" x2="299.35" y2="257.97" gradientUnits="userSpaceOnUse">
<stop offset="0.15" stop-color="#464F96"/>
<stop offset="0.3962" stop-color="#4A4F98"/>
<stop offset="0.6269" stop-color="#55509F"/>
<stop offset="0.8507" stop-color="#6852A9"/>
<stop offset="1" stop-color="#7954B3"/>
</linearGradient>
<linearGradient id="paint12_linear_602_5" x1="196.113" y1="277.642" x2="137.28" y2="324.264" gradientUnits="userSpaceOnUse">
<stop stop-color="#CD536C"/>
<stop offset="1" stop-color="#8B1F5A"/>
</linearGradient>
<linearGradient id="paint13_linear_602_5" x1="170.809" y1="282.37" x2="150.828" y2="199.532" gradientUnits="userSpaceOnUse">
<stop offset="0.15" stop-color="#464F96"/>
<stop offset="0.3962" stop-color="#4A4F98"/>
<stop offset="0.6269" stop-color="#55509F"/>
<stop offset="0.8507" stop-color="#6852A9"/>
<stop offset="1" stop-color="#7954B3"/>
</linearGradient>
<linearGradient id="paint14_linear_602_5" x1="138.787" y1="227.147" x2="152.781" y2="199.399" gradientUnits="userSpaceOnUse">
<stop stop-color="#464F96"/>
<stop offset="0.2789" stop-color="#4A4F98"/>
<stop offset="0.5606" stop-color="#56519F"/>
<stop offset="0.8426" stop-color="#6A53AB"/>
<stop offset="1" stop-color="#7954B3"/>
</linearGradient>
<linearGradient id="paint15_linear_602_5" x1="375.74" y1="275.851" x2="431.77" y2="275.851" gradientUnits="userSpaceOnUse">
<stop stop-color="#CD536C"/>
<stop offset="1" stop-color="#8B1F5A"/>
</linearGradient>
<linearGradient id="paint16_linear_602_5" x1="59.6441" y1="185.21" x2="77.4051" y2="252.368" gradientUnits="userSpaceOnUse">
<stop stop-color="#CD536C"/>
<stop offset="1" stop-color="#8B1F5A"/>
</linearGradient>
<linearGradient id="paint17_linear_602_5" x1="59.5101" y1="236.455" x2="86.4191" y2="338.204" gradientUnits="userSpaceOnUse">
<stop stop-color="#464F96"/>
<stop offset="0.2789" stop-color="#4A4F98"/>
<stop offset="0.5606" stop-color="#56519F"/>
<stop offset="0.8426" stop-color="#6A53AB"/>
<stop offset="1" stop-color="#7954B3"/>
</linearGradient>
</defs>
</svg>
