<svg xmlns="http://www.w3.org/2000/svg" viewBox="0 0 459.34 380.23"><defs><style>.cls-1{fill:#adcdff;}.cls-2{fill:#d3e4ff;}.cls-11,.cls-12,.cls-14,.cls-15,.cls-19,.cls-20,.cls-3,.cls-8{fill:none;}.cls-3,.cls-8{stroke:#2d3847;stroke-width:0.88px;}.cls-15,.cls-19,.cls-20,.cls-3{stroke-linecap:round;}.cls-11,.cls-12,.cls-14,.cls-20,.cls-3,.cls-8{stroke-miterlimit:10;}.cls-4{fill:#76a6f5;}.cls-5{fill:#98bbf5;}.cls-6{fill:#fff;}.cls-7{font-size:18.17px;font-family:Poppins-ExtraBold, Poppins;font-weight:700;}.cls-7,.cls-9{fill:#bd99ff;}.cls-10{fill:#ffdf40;}.cls-11,.cls-12,.cls-15{stroke:#bd99ff;}.cls-11{stroke-width:2.98px;}.cls-12{stroke-width:1.96px;}.cls-13{fill:#3b495e;}.cls-14{stroke:#d3e4ff;stroke-width:0.92px;}.cls-15,.cls-19{stroke-linejoin:round;}.cls-15{stroke-width:2px;}.cls-16{fill:#2d3847;}.cls-17{fill:#f7c9b5;}.cls-18{fill:#f7a37e;}.cls-19{stroke:#f7a37e;stroke-width:1.76px;}.cls-20{stroke:#f7c9b5;stroke-width:4.4px;}.cls-21{fill:#cadeff;}.cls-22{fill:#5e6b82;}.cls-23{fill:#334566;}.cls-24{fill:#729fe8;}</style></defs><title>slider-3</title><g id="BACKGROUND"><circle class="cls-1" cx="427.89" cy="333.68" r="31.45"/><path class="cls-2" d="M453.4,196.36c-.8-3.53-1.64-7.12-2.48-10.8-9.55-42-40.48-79.06-80.86-94.56-47.36-18.18-105-5.58-140.44,30.7-14.44,14.77-25.18,32.75-38.89,48.19C178,184.25,166.57,199.42,147.64,206c-14.09,4.88-29.13,6.43-43.37,10.87C70.85,227.28,43.12,254.44,32,287.64c-9.65,28.81-7,60.88,3.7,89.31,8.6,22.84,22.16,43.51,38,62a42.64,42.64,0,0,0,4.15,4.21H329.4c6.71-4.44,13-9.89,18.59-14.49,37.19-30.37,69.52-68.46,90.21-112,10.29-21.65,17.6-44.86,20.14-68.76C460.33,229.21,457.29,213.47,453.4,196.36Z" transform="translate(-16.93 -65.42)"/><path class="cls-1" d="M26.69,312.41c-2.24,21.68,1.29,44,9,64.54,8.6,22.84,22.16,43.51,38,62a42.66,42.66,0,0,0,4.15,4.21H329.4c6.71-4.44,13-9.89,18.59-14.49,37.19-30.37,69.52-68.46,90.21-112q1-2.11,2-4.23Z" transform="translate(-16.93 -65.42)"/><line class="cls-3" x1="50.51" y1="378.28" x2="330.11" y2="378.28"/><circle class="cls-2" cx="109.79" cy="76.66" r="55.06"/></g><g id="OBJECTS"><rect class="cls-4" x="271.67" y="178.33" width="19.46" height="68.85"/><path class="cls-5" d="M247.66,241.83h67.47a5,5,0,0,1,5,5v.38a0,0,0,0,1,0,0H242.69a0,0,0,0,1,0,0v-.38A5,5,0,0,1,247.66,241.83Z"/><rect class="cls-5" x="228.72" y="175.32" width="105.35" height="61.18"/><rect class="cls-6" x="232.17" y="178.33" width="98.45" height="55.17"/><text class="cls-7" transform="translate(257.25 203.97)">VERY<tspan x="-3.72" y="17.65">GOOD</tspan></text><path class="cls-4" d="M336.95,239.78h3a6.15,6.15,0,0,1,6.15,6.15v1.25a0,0,0,0,1,0,0H330.8a0,0,0,0,1,0,0v-1.25A6.15,6.15,0,0,1,336.95,239.78Z"/><line class="cls-8" x1="9.24" y1="247.18" x2="423.74" y2="247.18"/><rect class="cls-6" x="207.04" y="78.95" width="195.93" height="67.84" rx="10.18" ry="10.18"/><circle class="cls-9" cx="243.26" cy="112.87" r="20.74"/><polygon class="cls-10" points="281.72 88.53 284.87 98.25 295.09 98.25 286.83 104.25 289.98 113.97 281.72 107.96 273.45 113.97 276.61 104.25 268.34 98.25 278.56 98.25 281.72 88.53"/><polygon class="cls-10" points="312.52 88.53 315.68 98.25 325.89 98.25 317.63 104.25 320.79 113.97 312.52 107.96 304.25 113.97 307.41 104.25 299.14 98.25 309.36 98.25 312.52 88.53"/><polygon class="cls-10" points="343.32 88.53 346.48 98.25 356.7 98.25 348.43 104.25 351.59 113.97 343.32 107.96 335.06 113.97 338.21 104.25 329.94 98.25 340.16 98.25 343.32 88.53"/><polygon class="cls-2" points="374.12 88.53 377.28 98.25 387.5 98.25 379.23 104.25 382.39 113.97 374.12 107.96 365.86 113.97 369.01 104.25 360.75 98.25 370.97 98.25 374.12 88.53"/><line class="cls-11" x1="271.78" y1="118.88" x2="387.07" y2="118.88"/><line class="cls-11" x1="271.78" y1="126.63" x2="387.07" y2="126.63"/><path class="cls-11" d="M288.7,199.79c16.77.35,34.64.35,51.41,0" transform="translate(-16.93 -65.42)"/><polygon class="cls-6" points="223.54 142.41 223.54 157.56 240.02 141.08 223.54 142.41"/><rect class="cls-6" x="318.99" y="281.28" width="128.65" height="44.54" rx="6.68" ry="6.68"/><circle class="cls-9" cx="342.77" cy="303.55" r="13.62"/><polygon class="cls-10" points="368.02 287.57 370.1 293.95 376.81 293.95 371.38 297.89 373.45 304.27 368.02 300.33 362.59 304.27 364.67 297.89 359.24 293.95 365.95 293.95 368.02 287.57"/><polygon class="cls-10" points="388.25 287.57 390.32 293.95 397.03 293.95 391.6 297.89 393.68 304.27 388.25 300.33 382.82 304.27 384.89 297.89 379.46 293.95 386.17 293.95 388.25 287.57"/><polygon class="cls-10" points="408.47 287.57 410.55 293.95 417.25 293.95 411.83 297.89 413.9 304.27 408.47 300.33 403.04 304.27 405.12 297.89 399.69 293.95 406.4 293.95 408.47 287.57"/><polygon class="cls-10" points="428.7 287.57 430.77 293.95 437.48 293.95 432.05 297.89 434.13 304.27 428.7 300.33 423.27 304.27 425.34 297.89 419.91 293.95 426.62 293.95 428.7 287.57"/><line class="cls-12" x1="361.5" y1="307.5" x2="437.2" y2="307.5"/><line class="cls-12" x1="361.5" y1="312.58" x2="437.2" y2="312.58"/><path class="cls-12" d="M378.42,383.08c11,.23,22.75.23,33.75,0" transform="translate(-16.93 -65.42)"/><polygon class="cls-6" points="329.82 283.47 329.82 272.65 340.64 283.47 329.82 283.47"/><rect class="cls-4" x="67.77" y="16.83" width="76.74" height="102.33"/><rect class="cls-6" x="71.94" y="25.14" width="68.39" height="89.32"/><rect class="cls-13" x="85.9" y="12.15" width="40.48" height="19.48"/><rect class="cls-2" x="81.3" y="41.05" width="6.82" height="6.82"/><line class="cls-14" x1="91.36" y1="42.35" x2="130.98" y2="42.35"/><line class="cls-14" x1="91.36" y1="45.27" x2="130.98" y2="45.27"/><rect class="cls-2" x="81.3" y="52.67" width="6.82" height="6.82"/><line class="cls-14" x1="91.36" y1="53.97" x2="130.98" y2="53.97"/><line class="cls-14" x1="91.36" y1="56.89" x2="130.98" y2="56.89"/><rect class="cls-2" x="81.3" y="64.3" width="6.82" height="6.82"/><line class="cls-14" x1="91.36" y1="65.6" x2="130.98" y2="65.6"/><line class="cls-14" x1="91.36" y1="68.52" x2="130.98" y2="68.52"/><rect class="cls-2" x="81.3" y="75.92" width="6.82" height="6.82"/><line class="cls-14" x1="91.36" y1="77.22" x2="130.98" y2="77.22"/><line class="cls-14" x1="91.36" y1="80.14" x2="130.98" y2="80.14"/><rect class="cls-2" x="81.3" y="87.55" width="6.82" height="6.82"/><line class="cls-14" x1="91.36" y1="88.85" x2="130.98" y2="88.85"/><line class="cls-14" x1="91.36" y1="91.77" x2="130.98" y2="91.77"/><rect class="cls-2" x="81.3" y="99.17" width="6.82" height="6.82"/><line class="cls-14" x1="91.36" y1="100.47" x2="130.98" y2="100.47"/><line class="cls-14" x1="91.36" y1="103.4" x2="130.98" y2="103.4"/><path class="cls-15" d="M98.18,109.32l2.29,3.34a13.74,13.74,0,0,1,5.95-8.45" transform="translate(-16.93 -65.42)"/><path class="cls-15" d="M98.18,121l2.29,3.34a13.74,13.74,0,0,1,5.95-8.45" transform="translate(-16.93 -65.42)"/><path class="cls-15" d="M98.18,132.6l2.29,3.34a13.74,13.74,0,0,1,5.95-8.45" transform="translate(-16.93 -65.42)"/><path class="cls-15" d="M98.18,144.24l2.29,3.34a13.74,13.74,0,0,1,5.95-8.45" transform="translate(-16.93 -65.42)"/><path class="cls-15" d="M98.18,155.89l2.29,3.34a13.74,13.74,0,0,1,5.95-8.45" transform="translate(-16.93 -65.42)"/><circle class="cls-9" cx="409.3" cy="194.33" r="22.59"/><path class="cls-6" d="M433,251.23a6.78,6.78,0,0,0-6.78,6.8,6.79,6.79,0,1,0-13.57,0c0,8.47,13.57,15.57,13.57,15.57S439.8,266.5,439.8,258A6.8,6.8,0,0,0,433,251.23Z" transform="translate(-16.93 -65.42)"/><circle class="cls-9" cx="219.98" cy="25.42" r="22.59"/><path class="cls-6" d="M243.68,82.32a6.78,6.78,0,0,0-6.78,6.8,6.79,6.79,0,1,0-13.57,0c0,8.47,13.57,15.57,13.57,15.57s13.57-7.1,13.57-15.57A6.8,6.8,0,0,0,243.68,82.32Z" transform="translate(-16.93 -65.42)"/><polygon class="cls-9" points="406.78 0 414.22 22.89 438.3 22.89 418.82 37.05 426.26 59.94 406.78 45.79 387.31 59.94 394.75 37.05 375.27 22.89 399.34 22.89 406.78 0"/><polygon class="cls-9" points="31.51 170.9 38.95 193.79 63.02 193.79 43.55 207.94 50.99 230.84 31.51 216.69 12.04 230.84 19.48 207.94 0 193.79 24.07 193.79 31.51 170.9"/><path class="cls-6" d="M127.29,310.62H104.92A8.65,8.65,0,0,1,96.26,302h0a8.65,8.65,0,0,1,8.65-8.65h22.37a8.65,8.65,0,0,1,8.65,8.65h0A8.65,8.65,0,0,1,127.29,310.62Z" transform="translate(-16.93 -65.42)"/><path class="cls-16" d="M124,311.63H100.64A9.67,9.67,0,0,1,91,302h0a9.67,9.67,0,0,1,9.67-9.67H124a9.67,9.67,0,0,1,9.67,9.67h0A9.67,9.67,0,0,1,124,311.63Z" transform="translate(-16.93 -65.42)"/><path class="cls-16" d="M95.23,292.36c5.38-6.33,20.64-26,20.64-26a3.38,3.38,0,0,1,5.53.34l12.12,19.83a1,1,0,0,1-.58,1.48l-29.67,21.7A9.61,9.61,0,0,1,92,305.57h0C89.27,301,91.16,297.14,95.23,292.36Z" transform="translate(-16.93 -65.42)"/><path class="cls-16" d="M158,424.56l-1.88,15.53H194.9a27.73,27.73,0,0,0-14.5-7.44h0c-2.87-.51-8.53-1.85-8.53-1.85l-3-7.27Z" transform="translate(-16.93 -65.42)"/><rect class="cls-13" x="138.58" y="373.75" width="39.67" height="2.91" rx="1.29" ry="1.29"/><path class="cls-16" d="M182.65,359.1l-8.09,71.66H155.94V340.32h10.71A16.2,16.2,0,0,1,182.65,359.1Z" transform="translate(-16.93 -65.42)"/><path class="cls-16" d="M207.9,428.13,206,443.66h38.82a27.73,27.73,0,0,0-14.5-7.44h0c-2.87-.51-8.53-1.85-8.53-1.85l-3-7.27Z" transform="translate(-16.93 -65.42)"/><rect class="cls-13" x="188.52" y="377.32" width="39.67" height="2.91" rx="1.29" ry="1.29"/><path class="cls-13" d="M229.77,378.31,166,371.45l2-28,50,5.37A16.2,16.2,0,0,1,232,369Z" transform="translate(-16.93 -65.42)"/><path class="cls-13" d="M232.23,368.17l-9.56,66H205.52V349.4h10.71A16.2,16.2,0,0,1,232.23,368.17Z" transform="translate(-16.93 -65.42)"/><path class="cls-13" d="M113.75,272h52.92a0,0,0,0,1,0,0v18.13a14.5,14.5,0,0,1-14.5,14.5H128.26a14.5,14.5,0,0,1-14.5-14.5V272A0,0,0,0,1,113.75,272Z"/><rect class="cls-16" x="113.75" y="272.05" width="52.93" height="9.55"/><path class="cls-17" d="M129.87,217.09v45.4l23.92.07v-7.17l5.89-.07c5.07,0,6.15-2.71,6.15-7.78V217.09Z" transform="translate(-16.93 -65.42)"/><path class="cls-17" d="M164.71,232.6l4.3,7.72a1.54,1.54,0,0,1-1,2.08l-3.32,1Z" transform="translate(-16.93 -65.42)"/><rect class="cls-18" x="112.94" y="151.67" width="35.96" height="3.05"/><rect class="cls-18" x="112.94" y="151.67" width="23.92" height="45.4"/><path class="cls-16" d="M174.43,200.33a4.53,4.53,0,0,1-3.18,2.33,11.3,11.3,0,0,1-4.07,0c-9.27-1.34-22.79-8.36-31.36-1.55a12.07,12.07,0,0,0-4.42,8.25,14.9,14.9,0,0,1,.05,2.32c-.27.91-.63.75-1.69,1-13.2,3.19-5.27,19.11-2.35,27.15a15.75,15.75,0,0,1,.93,7c-.21,1.94.1,2.32,1.6,2.28.61,0,1.21,0,1.82,0h16a9.26,9.26,0,0,0,9.26-9.26c0-9.39,0-22.55,0-22.55h0c5.67,0,11.12-1,14.77-5.85a14.07,14.07,0,0,0,1.67-2.86A14.5,14.5,0,0,0,174.43,200.33Z" transform="translate(-16.93 -65.42)"/><path class="cls-16" d="M153.37,217.25c4.64.41,9.29.72,13.95.83,3.32.07,6.33,0,9.1-2,1.37-1,.05-3.27-1.33-2.28-3.18,2.27-7.37,1.66-11.05,1.51s-7.11-.4-10.66-.72c-1.69-.15-1.68,2.49,0,2.64Z" transform="translate(-16.93 -65.42)"/><path class="cls-16" d="M164,216.94a12.14,12.14,0,0,0,13.51-10c.29-1.66-2.25-2.37-2.54-.7a9.61,9.61,0,0,1-11,8.08c-1.68-.2-1.67,2.44,0,2.64Z" transform="translate(-16.93 -65.42)"/><path class="cls-16" d="M134.1,210.7c-2.79-.21-1.73-6.84-1.37-8.42s-2.17-2.36-2.54-.7c-.84,3.7-1.47,11.37,3.91,11.76,1.69.13,1.69-2.51,0-2.64Z" transform="translate(-16.93 -65.42)"/><path class="cls-16" d="M126.82,212.52a9.88,9.88,0,0,1,5.1,1.55c1.44.9,2.77-1.38,1.33-2.28a12.59,12.59,0,0,0-6.43-1.91,1.32,1.32,0,0,0,0,2.64Z" transform="translate(-16.93 -65.42)"/><path class="cls-17" d="M159.33,243.29a.91.91,0,0,1-.27.32c-5.67,4-14.58-12.87-6.5-16.2,1.95-.8,4.57.42,5.77,2,1.42,1.93,1.11,4.92,1.11,7.16C159.45,237.84,160.06,242,159.33,243.29Z" transform="translate(-16.93 -65.42)"/><path class="cls-19" d="M152.8,232.75a1.6,1.6,0,0,1,1.53-2,2.18,2.18,0,0,1,1.82,1.17,11.34,11.34,0,0,1,1.53,4.34,1.62,1.62,0,1,0-.76,3.11" transform="translate(-16.93 -65.42)"/><path class="cls-16" d="M162.68,229.29h2.67a2.34,2.34,0,0,0,0-4.68h-2.67a2.34,2.34,0,0,0,0,4.68Z" transform="translate(-16.93 -65.42)"/><path class="cls-16" d="M165,230.85c-.22-.44-.48-.72-.78-.72h0c-.28,0-.58.28-.78.72a4.88,4.88,0,0,0,0,3.49c.22.44.48.72.78.72h0c.28,0,.58-.28.78-.72a4.88,4.88,0,0,0,0-3.49Z" transform="translate(-16.93 -65.42)"/><path class="cls-16" d="M165.82,244.89a8.28,8.28,0,0,1-2.85-.45s-.33,3.91,2.85,3.85C165.82,248.3,165.82,244.89,165.82,244.89Z" transform="translate(-16.93 -65.42)"/><rect class="cls-6" x="109.57" y="192.03" width="37.08" height="6.9"/><path class="cls-13" d="M186.87,344H127.48l3.25-20.3s-13.67-39.33-16.31-46.77a9.75,9.75,0,0,1-.61-3c-.19-6.33,4.15-11.21,8.86-11.21H164c5,0,10.89.6,10.89,13l5.33,48Z" transform="translate(-16.93 -65.42)"/><polygon class="cls-16" points="158.13 217.18 144.19 217.18 163.26 258.24 158.13 217.18"/><polygon class="cls-6" points="198.41 176.06 211.79 183.67 223.17 173.3 220.06 188.38 233.44 195.99 218.14 197.69 215.03 212.77 208.69 198.75 193.39 200.45 204.76 190.08 198.41 176.06"/><path class="cls-20" d="M219.69,278.81a13.5,13.5,0,0,1,6.17-7.09,16.19,16.19,0,0,1,9.85-1.77" transform="translate(-16.93 -65.42)"/><path class="cls-20" d="M220.68,274.07c3.63-4.77,8.91-9,15.06-10.26" transform="translate(-16.93 -65.42)"/><path class="cls-20" d="M224.05,270.84c0-5.58,3.87-10.45,8.46-13.75" transform="translate(-16.93 -65.42)"/><path class="cls-20" d="M220.47,271.94c0-3.91,2.78-11.06,5-16" transform="translate(-16.93 -65.42)"/><path class="cls-17" d="M223.27,264.75l6.94,3.9A3.08,3.08,0,0,1,231,273l-6.12,10.44a3.31,3.31,0,0,1-4.47,1.22l-6.76-3.77a3.08,3.08,0,0,1-.74-4.35L219,266.28A3.3,3.3,0,0,1,223.27,264.75Z" transform="translate(-16.93 -65.42)"/><path class="cls-6" d="M227.38,283.36,216.62,303a8.65,8.65,0,0,1-11.75,3.42h0a8.65,8.65,0,0,1-3.42-11.75L212.21,275A8.65,8.65,0,0,1,224,271.6h0A8.65,8.65,0,0,1,227.38,283.36Z" transform="translate(-16.93 -65.42)"/><path class="cls-13" d="M226.93,286.86l-11.24,20.47a9.67,9.67,0,0,1-13.13,3.82h0A9.67,9.67,0,0,1,198.74,298L210,277.56a9.67,9.67,0,0,1,13.13-3.82h0A9.67,9.67,0,0,1,226.93,286.86Z" transform="translate(-16.93 -65.42)"/><path class="cls-13" d="M202.1,311.21l-47.19-23,11.61-24.87c.32-.58,3.28,0,3.75.51l43,31.8a9.61,9.61,0,0,1,1.94,11.8h0A9.61,9.61,0,0,1,202.1,311.21Z" transform="translate(-16.93 -65.42)"/><rect class="cls-6" x="135.68" y="310.04" width="8.88" height="61.54"/><rect class="cls-21" x="135.68" y="310.04" width="8.88" height="28.07"/><rect class="cls-22" x="131.7" y="310.04" width="16.85" height="22.36"/><rect class="cls-23" x="131.7" y="310.04" width="16.85" height="13.67"/><path class="cls-6" d="M133.66,377.71l-11.19-58.38a5.28,5.28,0,0,1,4.19-6.18h0a5.28,5.28,0,0,1,6.18,4.19L144,375.72Z" transform="translate(-16.93 -65.42)"/><path class="cls-21" d="M126.46,340.12H137.2l-4.37-22.78a5.28,5.28,0,1,0-10.36,2Z" transform="translate(-16.93 -65.42)"/><path class="cls-24" d="M193.29,382.08H120.81a6.06,6.06,0,0,1-6.06-6.06h0a6.06,6.06,0,0,1,6.06-6.06h72.48a6.06,6.06,0,0,1,6.06,6.06h0A6.06,6.06,0,0,1,193.29,382.08Z" transform="translate(-16.93 -65.42)"/><circle class="cls-22" cx="118.16" cy="374.18" r="5.35"/><circle class="cls-22" cx="161.76" cy="374.18" r="5.35"/><path class="cls-6" d="M126.67,437.75h0a8.17,8.17,0,0,1,8.17-8.17H180a8.17,8.17,0,0,1,8.17,8.17H126.67Z" transform="translate(-16.93 -65.42)"/><rect class="cls-24" x="80.36" y="218.07" width="63.03" height="49.79" rx="10.59" ry="10.59"/><circle class="cls-9" cx="334.5" cy="204.27" r="16.88"/><polygon class="cls-6" points="325.93 195.95 325.93 201.8 337.78 204.52 325.93 207.24 325.93 213.09 347.86 204.52 325.93 195.95"/></g></svg>