<svg xmlns="http://www.w3.org/2000/svg" xmlns:xlink="http://www.w3.org/1999/xlink" id="Layer_1" data-name="Layer 1" viewBox="0 0 860 870"><defs><style>.cls-1{fill:url(#linear-gradient);}.cls-2{fill:url(#linear-gradient-2);}.cls-3{fill:url(#linear-gradient-3);}.cls-4{fill:url(#linear-gradient-4);}.cls-5{fill:#98a6b1;}.cls-6{fill:url(#linear-gradient-5);}.cls-7{fill:url(#linear-gradient-6);}.cls-8{fill:#706865;}.cls-9{fill:#bdafaa;}.cls-10{fill:#fff;}.cls-11{fill:#ffb955;}.cls-12{fill:#cfcfcf;}.cls-13{fill:#eea886;}.cls-14{fill:#db9c7c;}.cls-15{fill:#323657;}.cls-16{fill:#4da8f2;}.cls-17{fill:#efaa88;}.cls-18{fill:#424773;}.cls-19{fill:#292c47;}.cls-20{fill:#d88a51;}.cls-21{fill:#e2d2ca;}.cls-22{fill:#dfe1e8;}.cls-23{fill:#385369;}.cls-24{fill:url(#linear-gradient-7);}.cls-25{fill:#ffce55;}.cls-26{fill:#cf8c6c;}.cls-27{fill:#555c94;}.cls-28{fill:#354c70;}.cls-29{fill:#deb135;}.cls-30{fill:#f2c344;}.cls-31{fill:#d9d0c4;}.cls-32{fill:#ffb355;}.cls-33{fill:#eea987;}.cls-34{fill:#ffd255;}.cls-35{fill:#3c5780;}.cls-36{fill:#fccca2;}.cls-37{fill:#c48a6f;}.cls-38{fill:#e8734d;}.cls-39{fill:#293b57;}.cls-40{fill:#fb5;}.cls-41{fill:#e09e7f;}.cls-42{fill:#665249;}.cls-43{fill:#2e2626;}.cls-44{fill:#2f6b8c;}.cls-45{fill:#a77860;}.cls-46{fill:#4b5182;}.cls-47{fill:#22243b;}.cls-48{fill:#5c5c5c;}.cls-49{fill:#a87860;}.cls-50{fill:#5c5049;}.cls-51{fill:#fab46c;}.cls-52{fill:#d4c3bd;}.cls-53{fill:#de9673;}.cls-54{fill:#e6d3cc;}.cls-55{fill:#ded1c5;}.cls-56{fill:#bc8551;}.cls-57{fill:#23344a;}.cls-58{fill:#807066;}.cls-59{fill:#ffd078;}.cls-60{fill:#ffd887;}.cls-61{fill:#ffd989;}.cls-62{fill:#d6d6d6;}.cls-63{fill:#e8e8e8;}.cls-64{fill:#c2c2c2;}.cls-65{fill:#e0e0e0;}.cls-66{fill:none;}</style><linearGradient id="linear-gradient" x1="2786.26" y1="882.25" x2="2660.94" y2="1043.6" gradientTransform="matrix(0.95, 0.31, 0.31, -0.95, -2085.29, 682.55)" gradientUnits="userSpaceOnUse"><stop offset="0" stop-color="#ff9f55"></stop><stop offset="1" stop-color="#ffd255"></stop></linearGradient><linearGradient id="linear-gradient-2" x1="810.8" y1="168.24" x2="798.09" y2="184.6" gradientTransform="matrix(1, 0, 0, -1, -481.59, 718.71)" xlink:href="#linear-gradient"></linearGradient><linearGradient id="linear-gradient-3" x1="804.17" y1="131.84" x2="787.99" y2="152.69" gradientTransform="matrix(1, 0, 0, -1, -481.59, 718.71)" xlink:href="#linear-gradient"></linearGradient><linearGradient id="linear-gradient-4" x1="872.84" y1="147.07" x2="860.49" y2="162.99" gradientTransform="matrix(1, 0, 0, -1, -481.59, 718.71)" xlink:href="#linear-gradient"></linearGradient><linearGradient id="linear-gradient-5" x1="838.73" y1="141.09" x2="644.77" y2="390.82" gradientTransform="matrix(1, 0, 0, -1, -481.59, 718.71)" xlink:href="#linear-gradient"></linearGradient><linearGradient id="linear-gradient-6" x1="928.21" y1="25.89" x2="635.27" y2="403.08" gradientTransform="matrix(1, 0, 0, -1, -481.59, 718.71)" xlink:href="#linear-gradient"></linearGradient><linearGradient id="linear-gradient-7" x1="3333.93" y1="2097.42" x2="3203.34" y2="2265.57" gradientTransform="matrix(0.85, 0.53, 0.53, -0.85, -3375, 477.52)" xlink:href="#linear-gradient"></linearGradient></defs><title>slider-1</title><path class="cls-1" d="M830.53,553.38l-1.72-31.44-67.69-9.77-10.56,29.65a162.34,162.34,0,0,0-19.32,3.31l16,75.61a84.05,84.05,0,0,1,69.94,13.06l36.8-68.28A159.83,159.83,0,0,0,830.53,553.38Z" transform="translate(0.93 -2.37)"></path><path class="cls-2" d="M280.14,565.6v-3.26a82.3,82.3,0,0,0,76.74-51.89l3,1.22A85.54,85.54,0,0,1,280.14,565.6Z" transform="translate(0.93 -2.37)"></path><path class="cls-3" d="M280.14,589.67v-3.26a108.87,108.87,0,0,0,68.24-23.71l2,2.55A112.1,112.1,0,0,1,280.14,589.67Z" transform="translate(0.93 -2.37)"></path><path class="cls-4" d="M360.3,595.27l-1.82-2.7a140.31,140.31,0,0,0,50-59.78l3,1.31A143.56,143.56,0,0,1,360.3,595.27Z" transform="translate(0.93 -2.37)"></path><rect class="cls-5" x="583.46" y="204.63" width="3.26" height="85.22" transform="translate(-13.42 454.94) rotate(-42.22)"></rect><path class="cls-6" d="M199.85,652.58l-57.9-41.21,12.95-29A161.61,161.61,0,0,1,132,545.82l-31.79-1L88.43,474.74l29.72-11.37a161.52,161.52,0,0,1,9.6-42L106,398.17l41.21-57.89,29,13a161.65,161.65,0,0,1,36.56-22.87l1-31.76,70.07-11.81,11.36,29.72a161.53,161.53,0,0,1,42,9.63l23.16-21.74,57.9,41.2-13,29a161.91,161.91,0,0,1,22.85,36.51l31.76,1,11.81,70.07-29.7,11.36a162.77,162.77,0,0,1-2.88,18.93l-.35,1.63-78.18-19.26.28-1.51a82.19,82.19,0,1,0-103.37,64.21l1.43.41-15,79.16-1.66-.41A161.15,161.15,0,0,1,223,630.82ZM146,610.27l53.56,38.12,22.7-21.3,1,.36a158,158,0,0,0,18.32,5.75l13.8-72.88A85.49,85.49,0,1,1,364.5,492.45l71.93,17.72A159.47,159.47,0,0,0,439,492.26l.09-1,29.11-11.14-10.92-64.81-31.15-1-.41-.93a158.66,158.66,0,0,0-23.46-37.5l-.66-.78,12.7-28.43-53.56-38.1L338,329.85l-1-.37A158.27,158.27,0,0,0,294,319.61l-1-.09L281.8,290.41,217,301.33l-1,31.15-.93.41a158.39,158.39,0,0,0-37.5,23.46l-.78.66-28.45-12.66-38.1,53.54,21.31,22.7-.37,1a158.29,158.29,0,0,0-9.88,43.12l-.09,1L92.1,476.83,103,541.64l31.16,1,.41.93A158.37,158.37,0,0,0,158,581.06l.66.78Z" transform="translate(0.93 -2.37)"></path><path class="cls-7" d="M464.35,447.44l-5.7-33.72-31.47-1a160.43,160.43,0,0,0-23.7-37.89l12.82-28.72-55.73-39.66L337.64,328a158.5,158.5,0,0,0-17.59-5.59l-14.17,76.26a84,84,0,0,1,56.74,95l75,18.49a161.22,161.22,0,0,0,2.94-19.75L470,481.15ZM211.83,429.86a83.42,83.42,0,0,1,23.48-22.26L197,340.48a159.21,159.21,0,0,0-20.51,14.66l-28.72-12.82L128,370.17,108.14,398,129.66,421a159.85,159.85,0,0,0-10,43.57L90.26,475.79,96,509.52l5.68,33.72,31.46,1a160.17,160.17,0,0,0,23.71,37.87L144,610.82l27.86,19.84,27.87,19.83L222.62,629a158.29,158.29,0,0,0,20.18,6.21l14.43-76a83.9,83.9,0,0,1-45.4-129.29Z" transform="translate(0.93 -2.37)"></path><rect class="cls-8" x="265.41" y="611.15" width="3.47" height="157.71"></rect><rect class="cls-8" x="187.47" y="611.15" width="3.47" height="157.71"></rect><rect class="cls-9" x="170.01" y="545.26" width="114.16" height="197.57" rx="10.42" ry="10.42"></rect><rect class="cls-10" x="173.14" y="548.44" width="107.9" height="186.67" rx="10.29" ry="10.29"></rect><rect class="cls-8" x="210.08" y="543.76" width="34.02" height="7.68"></rect><path class="cls-11" d="M196.42,266.43a65.17,65.17,0,0,0,4.07-17.73l12-4.58-2.31-13.73-2.31-13.73L195,216.25a65.15,65.15,0,0,0-9.65-15.42l5.22-11.69-11.33-8.06L167.9,173l-9.34,8.76a65.17,65.17,0,0,0-17.73-4.07l-4.58-12L122.52,168l-13.73,2.31-.41,12.81A65.17,65.17,0,0,0,93,192.82l-11.69-5.23-8.09,11.34-8.07,11.34,8.76,9.34a65.15,65.15,0,0,0-4.07,17.73l-12,4.58,2.32,13.73,2.31,13.73,12.81.41a65.18,65.18,0,0,0,9.65,15.42l-5.22,11.69L91.05,305l11.34,8.07,9.35-8.77a65.17,65.17,0,0,0,17.73,4.07l4.58,12L147.79,318l13.73-2.31.41-12.81a65.15,65.15,0,0,0,15.42-9.65L189,298.46l8.07-11.34,8.07-11.34Zm-81.06,4.41a34.13,34.13,0,1,1,47.6-8,34.13,34.13,0,0,1-47.6,8Z" transform="translate(0.93 -2.37)"></path><path class="cls-12" d="M224.6,638.05l-2.26-5.9a32.08,32.08,0,0,1-6.74-1.54L211,634.93l-12.77-9.09,2.57-5.77a32.07,32.07,0,0,1-3.66-5.86l-6.32-.2-2.61-15.47,5.9-2.26a32.13,32.13,0,0,1,1.54-6.74l-4.32-4.61,9.09-12.78,5.77,2.57a32.08,32.08,0,0,1,5.86-3.66l.2-6.32,15.47-2.61L230,568a32.1,32.1,0,0,1,6.74,1.54l4.61-4.32,12.78,9.09-2.57,5.77A32.07,32.07,0,0,1,255.2,586l6.32.2,2.61,15.47-5.9,2.26a32.08,32.08,0,0,1-1.54,6.74l4.32,4.61L251.91,628l-5.77-2.57a32.08,32.08,0,0,1-5.86,3.66l-.2,6.32Zm-9.77-11.21,1,.37a28.84,28.84,0,0,0,7.85,1.8l1,.09,2,5.29,10.2-1.72.18-5.67.93-.41a28.82,28.82,0,0,0,6.82-4.27l.78-.66,5.18,2.31,6-8.43-3.88-4.14.37-1a28.84,28.84,0,0,0,1.8-7.85l.09-1,5.29-2-1.72-10.2-5.67-.18-.41-.93a28.81,28.81,0,0,0-4.27-6.82l-.66-.78,2.31-5.18-8.43-6-4.14,3.88-1-.37a28.83,28.83,0,0,0-7.85-1.8l-1-.09-2-5.29-10.2,1.72-.18,5.67-.93.41a28.82,28.82,0,0,0-6.82,4.27l-.78.66-5.18-2.31-6,8.43,3.88,4.14-.37,1a28.84,28.84,0,0,0-1.8,7.85l-.09,1-5.29,2,1.72,10.2,5.67.18.41.93a28.84,28.84,0,0,0,4.28,6.85l.66.78-2.33,5.16,8.43,6Z" transform="translate(0.93 -2.37)"></path><path class="cls-12" d="M233.51,616.07l-1.36-3a14.34,14.34,0,0,0,8.27-11.69l3.26.3a17.6,17.6,0,0,1-10.18,14.34ZM216,614.44l-.07,0a17.61,17.61,0,0,1-7.37-14.32q0-.81.08-1.63l3.26.31c0,.44-.06.89-.06,1.34a14.37,14.37,0,0,0,6,11.69Zm18.43-26.06a14.23,14.23,0,0,0-8.27-2.64h0a14.49,14.49,0,0,0-6,1.3l-1.36-3a17.77,17.77,0,0,1,7.33-1.6h0a17.47,17.47,0,0,1,10.18,3.26Z" transform="translate(0.93 -2.37)"></path><path class="cls-12" d="M248.74,673.61l-1.25-3.26a17.56,17.56,0,0,1-2.78-.64l-2.54,2.38-7.74-5.5,1.42-3.18a17.63,17.63,0,0,1-1.51-2.41l-3.48-.11-1.58-9.37,3.26-1.25a17.59,17.59,0,0,1,.64-2.78L230.81,645l5.5-7.74,3.18,1.42a17.59,17.59,0,0,1,2.41-1.51l.11-3.48,9.37-1.58,1.25,3.26a17.54,17.54,0,0,1,2.78.64l2.54-2.38,7.74,5.5-1.42,3.18a17.56,17.56,0,0,1,1.51,2.41l3.48.11,1.58,9.37-3.26,1.25a17.59,17.59,0,0,1-.64,2.78l2.38,2.54-5.5,7.74L260.63,667a17.57,17.57,0,0,1-2.41,1.51l-.11,3.48ZM244,666l1,.37a14.32,14.32,0,0,0,3.9.89l1,.09,1,2.64,4.09-.69.09-2.82.93-.41a14.33,14.33,0,0,0,3.39-2.12l.78-.66,2.58,1.15,2.41-3.38L263.18,659l.37-1a14.33,14.33,0,0,0,.89-3.9l.09-1,2.64-1-.69-4.09-2.82-.09-.41-.93a14.34,14.34,0,0,0-2.12-3.39l-.66-.78,1.15-2.58-3.38-2.41-2.06,1.93-1-.37a14.33,14.33,0,0,0-3.9-.9l-1-.09-1-2.64-4.09.69-.09,2.82-.93.41a14.33,14.33,0,0,0-3.39,2.12l-.78.66-2.58-1.15L235,644.68l1.93,2.06-.37,1a14.34,14.34,0,0,0-.89,3.9l-.09,1-2.64,1,.69,4.09,2.82.09.41.93a14.34,14.34,0,0,0,2.12,3.39l.66.78-1.15,2.58,3.38,2.41Zm6.08-3.13a9.91,9.91,0,0,1-5.77-1.85h0a10,10,0,1,1,7.45,1.71A10.1,10.1,0,0,1,250,662.84Zm0-16.72a6.73,6.73,0,0,0-3.91,12.22h0a6.73,6.73,0,1,0,3.91-12.22Z" transform="translate(0.93 -2.37)"></path><path class="cls-13" d="M165.43,683.83a6.8,6.8,0,0,1,.88,2.33,11.32,11.32,0,0,0,1.07,2.75,25.91,25.91,0,0,1,1.31,4.58,19.22,19.22,0,0,0-.61,3.07c.11.66.48,2-.11,2.07s-1.27-1-1.27-1a.88.88,0,0,1-.45.85,1.48,1.48,0,0,1-1.5.05s-.36.67-.81.76a1.85,1.85,0,0,1-1.49-.2,1.81,1.81,0,0,1-1.13.36,1.49,1.49,0,0,1-1.26-.78s-1.12.23-1.45-.3a5.13,5.13,0,0,1-.41-1.56,18,18,0,0,1,1.42-7.83,7,7,0,0,0-.37-6.11Z" transform="translate(0.93 -2.37)"></path><path class="cls-14" d="M166.84,697.24s.1-3.84-.91-4.66-1.12.57-1.12.57.14-1.37-1-1.56-1.15,1.44-1.15,1.44a1.07,1.07,0,0,0-1.24-.86l-.1,0c-1.16.22-.88,1.56-.88,1.56s-1.11-1.32-1.83-.05a5.62,5.62,0,0,0,0,4.67s.34.58,1.45.3a1.52,1.52,0,0,0,2.39.41s1.69.93,2.31-.56A1.39,1.39,0,0,0,166.84,697.24Z" transform="translate(0.93 -2.37)"></path><path class="cls-15" d="M178.46,628.5s-6.58,21.91-8.79,30c-.7,2.54-2.38,26.74-2.68,27.72s-8.64,2.31-8.64,2.31,1-30.28,1.1-31.93,9.2-35.47,11.85-36.67c2-.9,3-.15,5.53,1.7C180.34,624.22,178.46,628.5,178.46,628.5Z" transform="translate(0.93 -2.37)"></path><rect class="cls-16" x="241.46" y="592.81" width="17.98" height="1.34" transform="translate(-283.15 231.65) rotate(-33.2)"></rect><path class="cls-17" d="M260,593.63a3.93,3.93,0,0,1-.41,1.19s-.49.59-.81,1a3.71,3.71,0,0,0-.24.35,7.2,7.2,0,0,1-1.24,1.93c-.72.73-3.51,3-3.51,3l-2.39-2L248.88,598s1.39-6,2-6.8l.18-.2a8,8,0,0,1,1.56-1.07c.12-.1,1.4-1,1.85-.9a1.54,1.54,0,0,1,1.15,1,3.68,3.68,0,0,1,1.7,1.1,2.28,2.28,0,0,1,1.48,1.37S259.91,592.91,260,593.63Z" transform="translate(0.93 -2.37)"></path><path class="cls-18" d="M173.13,778.11s-.59,4.16-.68,4.77-6.67-.37-6.67-.37l-.53-4.93S172.3,777.53,173.13,778.11Z" transform="translate(0.93 -2.37)"></path><path class="cls-19" d="M172.54,782.37a17.77,17.77,0,0,0,4.11,3.6c2,1.09,5.2,1.53,6.39,2.65.86.81,3.14,4.33-5.25,4.26s-12.44.5-13.33-.85,1.3-9.95,1.3-9.95S167.72,782.8,172.54,782.37Z" transform="translate(0.93 -2.37)"></path><path class="cls-18" d="M220.35,778.11s-.6,4.16-.68,4.78-6.67-.37-6.67-.37l-.53-4.94S219.53,777.53,220.35,778.11Z" transform="translate(0.93 -2.37)"></path><path class="cls-19" d="M219.75,782.37a17.77,17.77,0,0,0,4.11,3.6c2,1.09,9.45,2,10.65,3.12.86.81,2.3,4.1-9.51,3.79-8.39-.22-12.44.5-13.33-.85s1.3-9.95,1.3-9.95S214.84,782.85,219.75,782.37Z" transform="translate(0.93 -2.37)"></path><path class="cls-19" d="M178.58,671.23s-6.19,9.84-5.73,18.73-2.25,18.61-3.18,27.9c-1,10.36-5.29,34.88-5.44,40.42s.66,23.23.66,23.23l8.5.2s7.14-42.87,9-47.23,11-35.56,11.32-39.06S178.58,671.23,178.58,671.23Z" transform="translate(0.93 -2.37)"></path><path class="cls-19" d="M211.19,672.56s4.67,24.38,5.29,29.83,1,26.35,1.34,29.75,2.88,44.42,3.7,49.58H210.64s-8.34-29.89-8.34-44-6.44-30.75-10.59-40.08S178,688,175.48,670.72C175.47,670.72,207.73,667.07,211.19,672.56Z" transform="translate(0.93 -2.37)"></path><path class="cls-13" d="M188.92,588.5s8.31-3.11,12.15,3.22,3.47,19-.72,20.55-10.48.75-12.62-3.22-4.07-9.68-4-13.51S186.73,589.6,188.92,588.5Z" transform="translate(0.93 -2.37)"></path><path class="cls-13" d="M199.43,612.56a7.21,7.21,0,0,0,.22,3.35c.57,1.11-10.77,1.14-10.77,1.14a74.73,74.73,0,0,0-2.67-11.1C184.48,600.87,199.43,612.56,199.43,612.56Z" transform="translate(0.93 -2.37)"></path><path class="cls-20" d="M186.22,606s.78,1.29,4,.79,7.09-4.75,8.43-5.22,1.35-1.25,1.35-1.25l.83,1.22,1.42.09s-1.29-3.8.66-5.35-2-12.31-12.27-8.73c0,0-7.87,2.17-7.59,6.65S184.46,603.72,186.22,606Z" transform="translate(0.93 -2.37)"></path><path class="cls-21" d="M200.33,615.78s0-2.11-1-2.32-10.59-1.13-11.74-.66v2.44S189.86,616.66,200.33,615.78Z" transform="translate(0.93 -2.37)"></path><path class="cls-13" d="M199.77,598.65c-.18-.75-2.09-2.9-2.82-.6s1.1,5.39,2.13,5.12S200.23,600.55,199.77,598.65Z" transform="translate(0.93 -2.37)"></path><path class="cls-15" d="M216.23,619c-6.59-.87-15.88-3.2-15.88-3.2l-12.75-.52s-11.69,2.57-16.29,4.65c-.44.2-.44,10.43-1.63,13.12l3.82,8.05s2.2,16,2.66,23c.21,3.26-4.55,30.54-4.55,30.54a86.78,86.78,0,0,0,13.79,2.44c8.69.94,30.42-.35,30.54-1.37s-4.21-38.23-4.4-40.16c-.29-3,1-18.67,1-18.67,2-1.56,19.63-9.74,24.43-14,1.29-1.14,6.72-6.43,8.26-8.25,5.47-6.47,9.95-12,10.49-13.2.62-.68-6.11-4.3-6.72-4.5s-7.74,9.46-10.59,12.54a80.4,80.4,0,0,1-6.54,5.21S220.35,619.22,216.23,619Z" transform="translate(0.93 -2.37)"></path><path class="cls-20" d="M186.55,589.24s-10.59.81-.33,16.69Z" transform="translate(0.93 -2.37)"></path><polygon class="cls-22" points="259.28 586.71 260.15 585.39 258.55 585.6 259.28 586.71"></polygon><path class="cls-23" d="M556.44,217.64a8.36,8.36,0,0,0,8.35-8.35h-2a6.38,6.38,0,1,1-6.38-6.38h1V101.79h-2V201a8.35,8.35,0,0,0,1,16.65Z" transform="translate(0.93 -2.37)"></path><rect class="cls-5" x="555.11" y="150.45" width="4.7" height="47.75"></rect><polygon class="cls-5" points="501.4 277.51 498.99 275.32 557.51 210.9 559.65 213.39 501.4 277.51"></polygon><path class="cls-24" d="M653,341.8a159.86,159.86,0,0,0,18.64-16.41L618,269.78a83.94,83.94,0,0,1-118.61,4.82q-2.87-2.65-5.48-5.55l-52.68,56.68A158.8,158.8,0,0,0,459,341.37l-6.13,30.88,31.57,13.16L516,398.55l17.6-26.1a160.51,160.51,0,0,0,44.7.12l17.48,26.15,31.62-13,31.62-13Z" transform="translate(0.93 -2.37)"></path><polygon class="cls-25" points="497.51 541.92 444.87 541.92 444.87 580.08 444.87 588.12 452.91 580.08 497.51 580.08 497.51 541.92"></polygon><path class="cls-13" d="M444.5,630.85s1.14-2.82,1.32-3.26a7.11,7.11,0,0,1,2.61-1.8,8.6,8.6,0,0,1,3.66-.9,1.3,1.3,0,0,1,.81.74,2.51,2.51,0,0,1,.21,1.25,1.53,1.53,0,0,1,.54,1.37,1.33,1.33,0,0,1,.3,1.45,1.12,1.12,0,0,1,.31,1.19,10.1,10.1,0,0,0-1.43,1.07,21.22,21.22,0,0,1-5.18,2.55S445,634.6,444.5,630.85Z" transform="translate(0.93 -2.37)"></path><path class="cls-26" d="M448.53,629.32a7.37,7.37,0,0,1-.18,2c-.21.43,3.09,1.39,3.09,1.39S450.38,629.33,448.53,629.32Z" transform="translate(0.93 -2.37)"></path><polygon class="cls-27" points="387.82 776.13 389.26 771.63 395.36 772.62 394.45 776.67 387.82 776.13"></polygon><polygon class="cls-27" points="437.84 775.6 438.19 778.07 444.87 776.95 444.51 773.26 437.84 775.6"></polygon><path class="cls-28" d="M422.44,708.77s-1,5.36-2.13,11.32c-.2,1-.41,2.09-.61,3.14-1.12,5.74-2.24,11.25-2.66,12.39-.95,2.59-21.41,40.08-21.41,40.08s-8.37-.64-8.68-1.71c0,0,17.15-40.72,17.05-42.19s2.1-43.21,2.1-43.21S422,706.33,422.44,708.77Z" transform="translate(0.93 -2.37)"></path><path class="cls-28" d="M431.79,686.19s8,41,8.69,44.13,3.72,45.13,3.72,45.13-1.8,3.71-8.44,2.31c0,0-9.06-45.12-9.83-46.63-3-5.87-17.51-34.29-18.92-38.35a24.42,24.42,0,0,1-1-8.79S416.84,677.93,431.79,686.19Z" transform="translate(0.93 -2.37)"></path><path class="cls-29" d="M428.43,633.1s3.51,8.75,4.39,8.49,11-12.11,11-12.11,4.62,5.76,4,6.42c-.86.92-12.78,20.73-14.42,20.36s-9-12.47-9-12.47S424,634.67,428.43,633.1Z" transform="translate(0.93 -2.37)"></path><path class="cls-30" d="M413.41,616.39s9.1,7,11.62,9.72,9.45,14.21,9,17.65a249.65,249.65,0,0,0-2.89,33.46c0,7.85,2.44,9.85.89,10-1.79.13-24.7,8.44-28.1,9.45,0,0,2.22-27.63,3.35-30.82S403.64,629.21,413.41,616.39Z" transform="translate(0.93 -2.37)"></path><path class="cls-31" d="M472,603.19l2,10.29,2,10.29a56,56,0,0,0-25-1l-.9-4.54-.91-4.56A56.27,56.27,0,0,0,472,603.19Z" transform="translate(0.93 -2.37)"></path><path class="cls-32" d="M437.26,780.44s5-1,5.22-1.13,1.26-2.15,2-1.8.79,2.77,1.55,3.18,6.78,4.48,7.52,5.22,5.29.31,5.82,1.59.57,4.32-6.23,3.61-14.57.41-16-.41S436.8,782.39,437.26,780.44Z" transform="translate(0.93 -2.37)"></path><path class="cls-32" d="M386.81,778.4s5.13-.15,5.33-.28,1.58-1.92,2.3-1.45.33,2.85,1,3.39,6,5.51,6.59,6.35,5.18,1.15,5.49,2.5-.13,4.36-6.73,2.57-14.44-1.95-15.76-3S386,780.24,386.81,778.4Z" transform="translate(0.93 -2.37)"></path><path class="cls-33" d="M426.68,688.09s.61,2.5,1.6,3-4.59,5.88-4.59,5.88-2.26-4.95-2.2-5.44S426.68,688.09,426.68,688.09Z" transform="translate(0.93 -2.37)"></path><path class="cls-34" d="M409.37,627.18s-6.51,31.08-7.07,34.26c-.5,3,19.16,31.76,19.16,31.76l6.54-3.88s-15.88-28.85-15.84-30.17,7.62-26.37,7.62-26.37,3.17-5.46-2.44-8.11S409.37,627.18,409.37,627.18Z" transform="translate(0.93 -2.37)"></path><path class="cls-35" d="M430.52,690.24s2.13,10.59,2,13.81-12.22-5.09-11.59-8.31Z" transform="translate(0.93 -2.37)"></path><path class="cls-13" d="M413.41,616.39S430,634.5,429,632.49c-3.64-7.16-6.18-8.37-6.13-9.7,0-1,.37-4,.44-5,.13-1.9.34-3.47.34-3.47s-8.23-11.56-7.87-7.63S413.41,616.39,413.41,616.39Z" transform="translate(0.93 -2.37)"></path><path class="cls-13" d="M429.21,595.06s2.28,5.35,2.31,6.6a26.72,26.72,0,0,0-.09,3.66c.2,1.45,1.45,4.63,1.3,5.5-.19,1-2.39.5-2.7,2.23s-1.91,5-2.71,5c-2,.17-9.91-3-10.42-4.68s-3.35-10.81-4.23-12.56,13.84-11.3,15.19-8.55Z" transform="translate(0.93 -2.37)"></path><path class="cls-36" d="M409.16,599c-1-4.54,4.18-5.1,4.18-5.1s3.4-4,11.53-3.49,6.89,11.08,6.89,11.08-5.63-.84-8.07-.22a38.51,38.51,0,0,0,0,5.66l-3.07-.27s.34-4-1.13-4.21-2,8.52-4.71,10.44a3,3,0,0,0-.37-1.22h0a35,35,0,0,1-2.13-4.44A49.85,49.85,0,0,1,409.16,599Z" transform="translate(0.93 -2.37)"></path><path class="cls-13" d="M421.51,603.45s-1.14-3.07-3.84-1.08c-2,1.45.06,6.63,2,6.61S422.32,606.13,421.51,603.45Z" transform="translate(0.93 -2.37)"></path><path class="cls-37" d="M416.46,612a6.15,6.15,0,0,0,.84,2,17.63,17.63,0,0,0,6.11,3.18l-.35,3.26S416.1,617.69,416.46,612Z" transform="translate(0.93 -2.37)"></path><path class="cls-38" d="M453,634l1.17-.56-5.29-11.26-3,1.4,4.48,9.54A1.84,1.84,0,0,0,453,634Z" transform="translate(0.93 -2.37)"></path><path class="cls-14" d="M451.72,625.08s-3.32,1.82-3.09,2.39a1,1,0,0,0,.66.64l-1,1.37s-.17,1.29,1.29,1.1c0,0-.28,1.19,1.1.81,0,0,.16.87.81.81a13.13,13.13,0,0,0,2.76-1.31s.32-.46-.31-1.19a1.31,1.31,0,0,0-.3-1.45,1.44,1.44,0,0,0-.54-1.37s.31-1.63-1-2A3.11,3.11,0,0,1,451.72,625.08Z" transform="translate(0.93 -2.37)"></path><polygon class="cls-38" points="442.94 622.28 454.64 620.09 452.74 610.5 441.13 613.14 442.94 622.28"></polygon><path class="cls-13" d="M445.92,627.54a12.89,12.89,0,0,1,4,.51c.33.13.61.32.61.67s-.51.81-1.63.89a9.5,9.5,0,0,0-2.54.72S445.22,630.08,445.92,627.54Z" transform="translate(0.93 -2.37)"></path><path class="cls-39" d="M420.32,720.07c-.2,1-.41,2.09-.61,3.14l-6.65-17.59C413.94,707.4,420.32,720.07,420.32,720.07Z" transform="translate(0.93 -2.37)"></path><polygon class="cls-40" points="540.93 684.34 648.22 684.34 614.4 788.18 617.56 789.21 652.8 681.01 538.51 681.01 503.62 788.18 506.78 789.21 540.93 684.34"></polygon><polygon class="cls-40" points="577.44 788.18 543.63 684.34 650.92 684.34 685.07 789.21 688.23 788.18 653.33 681.01 539.05 681.01 574.28 789.21 577.44 788.18"></polygon><rect class="cls-40" x="530.95" y="713.71" width="131.31" height="3.33"></rect><rect class="cls-40" x="517.42" y="749.81" width="157.11" height="3.33"></rect><path class="cls-41" d="M651.93,480.61s.76-2.6-.41-3.62a8.84,8.84,0,0,1-1.83-3.26c-.27-.76-2-2.77-1-3.11s2.94,3.18,3.5,3.84,1.22-3.17,1.87-3.77,6.92.81,6.2,3.38S657,478.9,657,479.36a16.44,16.44,0,0,1-.47,1.89Z" transform="translate(0.93 -2.37)"></path><path class="cls-41" d="M653.76,471.23s2.8-7.74,3.41-8.09,1-.18.81.55-2.48,7.54-2.48,7.54,4.85-8.59,5.29-9c.26-.24,1.07.06,1,.46s-4.4,9.19-4.4,9.19,4.54-8,5-8.24a.64.64,0,0,1,.81.88c-.3.62-4.07,8.29-4.07,8.29s3.66-5.62,4.18-5.58c.31,0,1,.25,0,1.67s-3,5-3,5Z" transform="translate(0.93 -2.37)"></path><path class="cls-41" d="M544.11,550.79s-2.48,1.09-3.66.08a8.71,8.71,0,0,0-3.48-1.39c-.79-.17-3-1.57-3.22-.59s3.54,2.5,4.27,3-3,1.61-3.49,2.35,1.71,6.78,4.17,5.7,4.37-3.84,4.84-3.94a16.41,16.41,0,0,0,1.82-.71Z" transform="translate(0.93 -2.37)"></path><path class="cls-41" d="M535.06,553.82s-7.29,3.78-7.57,4.44,0,1,.65.72,7.15-3.45,7.15-3.45-7.88,5.93-8.22,6.42c-.2.29.2,1.05.59.92s8.55-5.57,8.55-5.57-7.33,5.55-7.51,6a.64.64,0,0,0,1,.67l7.68-5.14s-5.09,4.37-5,4.89c.07.31.38,1,1.66-.18S538.6,560,538.6,560Z" transform="translate(0.93 -2.37)"></path><path class="cls-15" d="M541.5,550.92l3.9,4.81s25.13-10.38,29-14c0,0,1-.41,6.22-4.52h0c1.11-.88,2.2-1.72,3.2-2.44l.68-.6h0l6.92-6.2s12.62-6.69,7.47-13.93a4.94,4.94,0,0,0-5.42-.37c-3.28,1.56-8,5.66-9.15,6.73s-8.41,7.29-8.8,7.68c-1.45,1.47-6.4,5.88-9,7.81C562.05,539.3,541.5,550.92,541.5,550.92Z" transform="translate(0.93 -2.37)"></path><path class="cls-33" d="M613.38,499.81h0a30.05,30.05,0,0,1-3.42,5.64c-4.45,5.7-14.81,5.84-15-9.81a24.19,24.19,0,0,1,.94-7.33c2.12-6.95,7.11-8.1,7.11-8.1,3.66-.2,10.13.71,12.28,5.51C616.84,489.14,615.74,494.78,613.38,499.81Z" transform="translate(0.93 -2.37)"></path><path class="cls-42" d="M613.38,499.81h0s-.53.14-2.44-3.72c-.38-.77-.68-.22-.85-.56l-3-1.19s3-5-.93-6.44-10.18.41-10.18.41c1.32-12.44,7.11-8.1,7.11-8.1,3.66-.2,11.56,0,13.71,4.81C618.27,488.45,615.74,494.78,613.38,499.81Z" transform="translate(0.93 -2.37)"></path><path class="cls-33" d="M609.46,493.19c.23-1,2.29-1.95,3.17.3s-2.06,4.63-2.85,4.14S609.09,494.92,609.46,493.19Z" transform="translate(0.93 -2.37)"></path><path class="cls-43" d="M569.82,675.3s-4.28,3.49-7.87,4.27-5.48,2.62-5.51,4.75,10.35,3.54,14.46,1.39c6.14-3.21,6.76-2.24,7.45-3.85s.13-5.85.18-6.36S569.82,675.3,569.82,675.3Z" transform="translate(0.93 -2.37)"></path><path class="cls-43" d="M570.12,674.14a14.59,14.59,0,0,0-.41,1.78c.07,0,8.1.94,7.86-.46-.2-1.13-.48-2.37-.48-2.37Z" transform="translate(0.93 -2.37)"></path><path class="cls-43" d="M620.92,678.1s-2.66,4-6,4.84-4.56,2.06-4.72,4.07,7.85,4.64,13.48,1.11c3.7-2.32,5.08-2.19,5.82-3.66s.18-5.62.25-6.11S620.92,678.1,620.92,678.1Z" transform="translate(0.93 -2.37)"></path><path class="cls-44" d="M621.81,676.64a15.39,15.39,0,0,0-.1,1.73c.07,0,7.48,1.35,7.44,0a10.35,10.35,0,0,0-.47-2.38Z" transform="translate(0.93 -2.37)"></path><path class="cls-30" d="M591.19,574.35s-10.08,25-13,33.49c-3.81,11.17-5.91,21-6.39,26.36-.6,6.73-3,38.52-3.39,40.49S579.74,676,579.74,676s6.6-40.08,8.4-47.23c1.67-6.68,17.51-37,19-35.16s6.6,32.84,7.74,38.1,4.16,46.74,4.16,46.74,10.3,1.65,12.37,0c0,0-1.63-37-2.35-46.85-.27-3.76,2.38-45.06-4-61.71C621.77,561.08,591.19,574.35,591.19,574.35Z" transform="translate(0.93 -2.37)"></path><path class="cls-15" d="M602.07,511.58s-8.72,1.79-9.85,2.79-3.66,11.85-3.81,14.76.62,14.9,1.85,19.42-1.09,23.36-1.86,29.63c0,0,15.12,6.87,40.68,1.51,0,0-4.48-19.5-3.73-25.7,1-7.94,3.55-25.34,3.55-25.34s2.35-16.58.18-16.16c-7.08,1.34-16.23-.92-16.23-.92Z" transform="translate(0.93 -2.37)"></path><path class="cls-13" d="M600.12,513.6s2.68,2,11.62-1.93a24.71,24.71,0,0,1,.86-10.59c1.75-5.73-11.54,6-11.54,6s.17.68.09,1.47v.16a15.51,15.51,0,0,1-.36,2l-.07.26C600.21,512.79,600.12,511.92,600.12,513.6Z" transform="translate(0.93 -2.37)"></path><path class="cls-45" d="M600.78,510.61h0c6.41.81,9.91-6.08,10-6.29-4.39,6.4-9.65,4.32-9.65,4.32h0A15.73,15.73,0,0,1,600.78,510.61Z" transform="translate(0.93 -2.37)"></path><path class="cls-13" d="M600.15,512s-2,3,.81,3.57,8.69-.11,11.87-4C612.83,511.58,604.45,510,600.15,512Z" transform="translate(0.93 -2.37)"></path><path class="cls-15" d="M614.9,528c-.91-1.87,1.38-6.76,5.29-10.18a28.56,28.56,0,0,1,8-5c1.6-.6,12.55-4.12,13.07-5.49.67-1.73,3.58-10.24,3.81-11C645.51,494.86,651,478,651,478l6.8,1.56s-5.07,24.35-5.7,27.47c-.41,2-.77,5.7-5.35,8.61s-14.86,10.51-15.88,10.91S618.94,536.34,614.9,528Z" transform="translate(0.93 -2.37)"></path><path class="cls-46" d="M762.78,776.15a14.37,14.37,0,0,0-3.79,2c-2,1.45-4.64,3.81-7.57,4.34s-6,.48-5.55,3.61,10.1,4.67,18.78,2,8.81-2.89,8.81-3.66-1.32-8.53-1.71-8.79S762.78,776.15,762.78,776.15Z" transform="translate(0.93 -2.37)"></path><path class="cls-46" d="M813.36,773.27s-3.34,3.46-6.23,4-6.66,1.52-6.86,3.41a2.33,2.33,0,0,0,1.12,2.5c.72.55,14.46,1.05,19.78-1,3.26-1.22-.5-11.45-.5-11.45Z" transform="translate(0.93 -2.37)"></path><path class="cls-33" d="M783.46,624.58s-9.83,11-9.51,7.72c.2-2-.71-5.33-1.47-7.72-.5-1.58-.93-2.72-.93-2.72h0c.08-.15,10.7-15.22,10.31-10.51S783.46,624.58,783.46,624.58Z" transform="translate(0.93 -2.37)"></path><path class="cls-30" d="M779.83,707.15s-4.32,15.07-3.59,17.73,8.14,12.41,9.16,13.88c1.36,2,22.88,35.74,23.12,36.31s12.4-2.36,12.89-5c0,0-17-35-21.1-39.61s-5-9.41-4.34-14.76,8.55-22.68,7.33-29.81S780.56,699.64,779.83,707.15Z" transform="translate(0.93 -2.37)"></path><path class="cls-30" d="M771.82,687.13s-29,22-32.27,26.47.41,11.18.88,13.37,20.05,45.49,20.3,49.27c0,0,13.13,1.1,15.44-1.82,0,0-14.28-41.1-16.35-48.15s5-8.76,10.75-11.31,30.78-17.26,32.24-22.8a16.43,16.43,0,0,0,0-8.86S795.8,678.75,771.82,687.13Z" transform="translate(0.93 -2.37)"></path><path class="cls-47" d="M770.27,642.64s-19.47-6.8-19.14-11,17.42-25.09,17.42-25.09l5.78,3.76L766,632.07l14.75,5.55Z" transform="translate(0.93 -2.37)"></path><path class="cls-15" d="M784.59,624s-2.24-4.55-2.28-5.53c0,0-9.8,7.71-10.77,9.54a19.17,19.17,0,0,1,.16,5Z" transform="translate(0.93 -2.37)"></path><path class="cls-15" d="M784.59,624s-1.95-1-4.94,1-13.3,12.26-15.16,12.91c0,0,4.43,19.3,4.68,24.41s3.59,31.81,1.63,35.22c0,0,7.47-2,16.69-5.09A104.73,104.73,0,0,0,806,683.86s-6.56-16.05-7.22-21.22C798.09,657.24,792.74,630.5,784.59,624Z" transform="translate(0.93 -2.37)"></path><path class="cls-33" d="M759.69,611.5s-1.61-1.66-1.85-5.53c-.26-4.21-.12-2.72-.12-2.72Z" transform="translate(0.93 -2.37)"></path><path class="cls-48" d="M770.12,609.58s-4.78-2.44-7.16-2.44a10.69,10.69,0,0,0-5.11,1.75s-1.08-3.88-.16-5.43S770.12,609.58,770.12,609.58Z" transform="translate(0.93 -2.37)"></path><path class="cls-49" d="M778.44,614.27s-1.22,7-6,10.31h0c-.5-1.58-.93-2.72-.93-2.72h0A17.21,17.21,0,0,0,778.44,614.27Z" transform="translate(0.93 -2.37)"></path><path class="cls-17" d="M766.65,600.74s-3.2,9.51-3.52,11.72-6.88-2.06-6.88-2.06,3-8.08,3.63-12S766.65,600.74,766.65,600.74Z" transform="translate(0.93 -2.37)"></path><path class="cls-15" d="M787.37,637.35c-.51-2.71-3.4-5.57-6.16-5.72-6-.35-19.7-.41-20.14-1.16-.56-1,6.07-27.53,6.07-27.53s-5.57-2.28-9-2.59c0,0-14.91,39.38-13.14,40.56,6.43,4.32,35.05,5.4,35.05,5.4s6-1.41,7.18-5.44A7.58,7.58,0,0,0,787.37,637.35Z" transform="translate(0.93 -2.37)"></path><path class="cls-17" d="M764.11,586.67a5,5,0,0,0-1.05,1.22s-.32.92-.59,1.57a4.7,4.7,0,0,1-.23.49,9.18,9.18,0,0,0-1.31,2.63c-.33,1.26-1,5.83-1,5.83l3.79,1.29,3,1.06s5.58-4.54,6-5.7a3.12,3.12,0,0,0,.11-.33,11.49,11.49,0,0,0,.15-2.41c0-.2.2-2.2-.22-2.62a2,2,0,0,0-1.8-.63,4.74,4.74,0,0,0-2.31-1.15,2.92,2.92,0,0,0-2.47-.72S764.92,586.26,764.11,586.67Z" transform="translate(0.93 -2.37)"></path><path class="cls-13" d="M759.1,602.63s-1.22,5.94.38,6.32c1.32.32.38,6.07.3,7s2.47.81,3.13,1.18,4.1,6.42,6.11,6,9.87-6.07,11.51-9.27.24-15-2.77-19.27S761.28,592.25,759.1,602.63Z" transform="translate(0.93 -2.37)"></path><path class="cls-15" d="M758.83,603.5s-2.06-1.47-.81-8.19c1.44-7.74,15.74-3.32,16.89-3.37s8.45-.72,8,10c-.51,11.48-1,11.27-1,11.27s-2.47-6.11-4.52-6c-2.22.14-5.79.7-5.79.7s.37-5.33-2.65-5.16S761.36,601.59,758.83,603.5Z" transform="translate(0.93 -2.37)"></path><path class="cls-13" d="M772.83,608.23c0-.6-.13-3.3,1.94-3.51s2.34,3.07,1.36,5.33S773,611.59,772.83,608.23Z" transform="translate(0.93 -2.37)"></path><polygon class="cls-25" points="5.14 565.02 45.93 565.02 45.93 594.59 45.93 600.82 39.7 594.59 5.14 594.59 5.14 565.02"></polygon><polygon class="cls-50" points="95.63 769.38 87.43 714.84 89.01 714.59 97.21 769.14 95.63 769.38"></polygon><polygon class="cls-50" points="85.62 769.38 77.42 714.84 79 714.59 87.2 769.14 85.62 769.38"></polygon><polygon class="cls-50" points="36.29 769.38 34.71 769.14 42.91 714.59 44.49 714.84 36.29 769.38"></polygon><path class="cls-51" d="M89.07,717.76l6.43-67.59s-11.24-1.47-18-1.11l-10.2,68.7Z" transform="translate(0.93 -2.37)"></path><rect class="cls-51" x="68.19" y="711.95" width="21.81" height="3.44"></rect><path class="cls-51" d="M53,715l-3.42-64.41s28.44-3.09,45.9-.41Z" transform="translate(0.93 -2.37)"></path><path class="cls-36" d="M75.7,629.73s4.39-12.88-4-16.87-15.49,1.78-16.84,4.89-1,8.8.16,12.76,1,10-1.51,12-5.58,5.36-5.42,12.18c.09,4.23,16.64-10.81,16.64-10.81Z" transform="translate(0.93 -2.37)"></path><path class="cls-52" d="M64.52,768.31s-.26,9.1,1,9.65,6.22-2.62,8.39-5.75-2.72-10.42-3.52-14.43c-.33-1.68-4.16-4.71-6-3.84A9.1,9.1,0,0,0,61.18,757S65.93,760.27,64.52,768.31Z" transform="translate(0.93 -2.37)"></path><path class="cls-53" d="M61.18,757a50.18,50.18,0,0,1,2.44,5.51c.81,2.41,1,9.08,1.51,9.54s4.65-1.63,5.2-4.11-1.12-7.48-2.71-10.11a16.29,16.29,0,0,0-3.21-3.93S61.6,754.48,61.18,757Z" transform="translate(0.93 -2.37)"></path><polygon class="cls-52" points="71.36 755.41 75.79 761.87 74.95 762.45 71.53 757.45 71.36 755.41"></polygon><path class="cls-53" d="M54.49,686.31s2.17,3.66,0,6.32-16.73,10-16.62,14.2,2.77,10.84,3.73,12.52,4.48,8.64,6.33,12.71,12.46,23.56,14.54,28,.81-17.57.81-17.57L52.66,711.29,77.5,687.1S74.46,680.42,54.49,686.31Z" transform="translate(0.93 -2.37)"></path><path class="cls-34" d="M63.93,645.05s-6.89,1.53-9.62,3.12-8.8,9-8.8,12.11,26.55,6.11,26.55,6.11l5,18.36s13.44-3.26,15-6-5.29-22-6.24-26.12-6-6.82-11.57-7.6A38.39,38.39,0,0,0,63.93,645.05Z" transform="translate(0.93 -2.37)"></path><path class="cls-13" d="M80.21,686.91s-.48,3.14.81,4.48,7.17,9.1,4,16.72c-2.85,7-8.41,6.87-8.41,6.87H68.07s2.5,12.62,1.69,20.91-4.6,27.28-4.67,28.24-3.63,4-4.67,2.44c0,0-.1-11.42-.66-15.74s-2.94-21.58-3.66-24.13-5-10.31-5-11.1S47,702.31,56,699.11,68.23,687,80.21,686.91Z" transform="translate(0.93 -2.37)"></path><path class="cls-54" d="M56.12,775.37s-5.92,6.92-5.26,8.14,6.48,1.88,10.13.81,4.43-9.8,6.34-13.44c.81-1.52-.27-6.27-2.27-6.78a9.07,9.07,0,0,0-4.45.37S62.26,770,56.12,775.37Z" transform="translate(0.93 -2.37)"></path><path class="cls-13" d="M60.61,764.5A50.22,50.22,0,0,1,59,770.33c-.87,2.39-4.95,7.68-4.83,8.37s4.63,1.67,6.62.07,3.84-6.51,4.25-9.56a16.29,16.29,0,0,0,0-5.08S62.54,762.78,60.61,764.5Z" transform="translate(0.93 -2.37)"></path><polygon class="cls-54" points="68.26 768.53 67.64 776.34 66.63 776.26 67.11 770.22 68.26 768.53"></polygon><path class="cls-15" d="M85.06,708.11c-2.7,7.1-8.41,6.87-8.41,6.87H68.05s-3.58-5.68-12.36-6.65a26,26,0,0,0-6.62.16H49c-11.66,1.73-9.41,6-9.37,6.11-1-2.37-2-6.13-1.74-8.14C39,697.21,52.33,695.28,54.5,692.6s0-6.32,0-6.32c20-5.89,23,.81,23,.81.88-.12,3.12-1.41,4.07-1.42,0,0,1,2.18,1.71,4.15C83.87,691.58,88,700.41,85.06,708.11Z" transform="translate(0.93 -2.37)"></path><polygon class="cls-55" points="77.7 654.92 80.65 682.4 41.75 682.4 38.8 654.92 77.7 654.92"></polygon><rect class="cls-55" x="77.25" y="679.93" width="6.5" height="2.47"></rect><rect class="cls-56" x="14.94" y="682.4" width="123.9" height="3.74"></rect><path class="cls-13" d="M68.24,615.06s8.71,2.58,7.47,14.66-6.92,11.47-7.47,11.56-7.29.53-9.43-14.14S68.24,615.06,68.24,615.06Z" transform="translate(0.93 -2.37)"></path><path class="cls-13" d="M72.37,639.07a20.1,20.1,0,0,0,.31,6.51c.77,2.51-10.15,2.56-10.15.51,0-2.32,1.12-4.27.07-8.26S72.37,639.07,72.37,639.07Z" transform="translate(0.93 -2.37)"></path><path class="cls-36" d="M66,620.45s4.74,7.53,9.72,9.28c0,0,2.72-12.62-8.52-15.29s-9.47,12.77-8.66,16.88A33.39,33.39,0,0,1,66,620.45Z" transform="translate(0.93 -2.37)"></path><path class="cls-45" d="M63.92,639.58a5.9,5.9,0,0,0,7.86.37s-.36,2.3-3.53,2.59S63.92,639.58,63.92,639.58Z" transform="translate(0.93 -2.37)"></path><path class="cls-57" d="M59.63,619.32s2.49-4.83,6.7-5S73,617.71,73,617.71a7.16,7.16,0,0,0-6.71-4.11C61.28,613.6,59.63,619.32,59.63,619.32Z" transform="translate(0.93 -2.37)"></path><path class="cls-13" d="M73.82,645s-.15,8.37-6.79,8.62-5.26-8-5.26-8A23.22,23.22,0,0,1,73.82,645Z" transform="translate(0.93 -2.37)"></path><rect class="cls-58" x="136.09" y="686.14" width="2.75" height="94.43"></rect><rect class="cls-58" x="14.94" y="686.14" width="2.75" height="94.43"></rect><path class="cls-34" d="M345.14,269.18a12.7,12.7,0,0,1-6.58-4.4,9.52,9.52,0,0,1-1.93-7.83,57.76,57.76,0,0,0-.34-15.24,25.54,25.54,0,1,1,29.77,7.16,54.92,54.92,0,0,0-6.22,13.1c-1.22,5.49-7.38,8.83-13.76,7.44Q345.59,269.32,345.14,269.18Zm17.35-66.27a23.45,23.45,0,0,0-24.43,37.68l.19.23,0,.3a60.18,60.18,0,0,1,.38,16.15v.08a7.46,7.46,0,0,0,1.53,6.16,10.75,10.75,0,0,0,6.3,3.86c5.27,1.14,10.33-1.5,11.29-5.88v-.08a57.84,57.84,0,0,1,6.64-13.93l.18-.28.31-.13a23.44,23.44,0,0,0-2.44-44.17Z" transform="translate(0.93 -2.37)"></path><polygon class="cls-34" points="343.23 257.32 345.66 229.4 350.35 235.29 354.69 232.12 356.97 236.43 363.22 233.04 354.27 259.64 352.29 258.98 359.54 237.4 356.11 239.27 353.97 235.23 349.97 238.16 347.28 234.79 345.31 257.5 343.23 257.32"></polygon><rect class="cls-34" x="342.15" y="261.47" width="7.3" height="18.11" transform="translate(9.1 548.81) rotate(-77.77)"></rect><rect class="cls-34" x="341.04" y="253.44" width="11.75" height="23.94" transform="translate(14.97 545.86) rotate(-77.77)"></rect><polygon class="cls-59" points="21.67 446.98 20.41 446.54 31 415.73 54.65 409.18 62.78 375.4 81 367.11 84.79 340.88 86.11 341.07 82.21 368.02 63.93 376.35 55.76 410.26 32.03 416.83 21.67 446.98"></polygon><circle class="cls-10" cx="54.27" cy="412.09" r="3.56" transform="translate(-250.87 128.5) rotate(-39.92)"></circle><path class="cls-59" d="M57,415.33a4.23,4.23,0,1,1,.53-6h0A4.23,4.23,0,0,1,57,415.33Zm-4.56-5.46a2.89,2.89,0,1,0,4.07.36h0A2.9,2.9,0,0,0,52.42,409.87Z" transform="translate(0.93 -2.37)"></path><circle class="cls-10" cx="62.52" cy="378.47" r="3.56" transform="translate(-227.37 125.96) rotate(-39.92)"></circle><path class="cls-59" d="M65.24,381.69a4.23,4.23,0,1,1,.53-6h0A4.23,4.23,0,0,1,65.24,381.69Zm-4.57-5.46a2.89,2.89,0,1,0,4.07.36h0a2.9,2.9,0,0,0-4.07-.36Z" transform="translate(0.93 -2.37)"></path><circle class="cls-10" cx="80.45" cy="369.94" r="3.56" transform="translate(-217.72 135.48) rotate(-39.92)"></circle><path class="cls-59" d="M83.16,373.17a4.23,4.23,0,1,1,.53-6h0A4.23,4.23,0,0,1,83.16,373.17Zm-4.57-5.46a2.89,2.89,0,1,0,4.07.36h0a2.9,2.9,0,0,0-4.07-.36Z" transform="translate(0.93 -2.37)"></path><circle class="cls-10" cx="30.71" cy="418.97" r="3.56" transform="translate(-260.77 114.99) rotate(-39.92)"></circle><path class="cls-59" d="M33.43,422.19a4.23,4.23,0,1,1,.53-6h0A4.23,4.23,0,0,1,33.43,422.19Zm-4.57-5.46a2.89,2.89,0,1,0,4.07.36h0A2.9,2.9,0,0,0,28.86,416.73Z" transform="translate(0.93 -2.37)"></path><rect class="cls-60" x="711.02" y="357.76" width="57.29" height="4.01"></rect><rect class="cls-60" x="711.02" y="365.33" width="57.29" height="16.88"></rect><rect class="cls-60" x="684.11" y="387.89" width="33.8" height="2.52"></rect><rect class="cls-60" x="684.11" y="391.52" width="33.8" height="6.83"></rect><rect class="cls-61" x="777.71" y="336.12" width="2.52" height="47.3"></rect><polygon class="cls-62" points="777.81 500.47 736.57 477.4 750.74 476.47 777.81 500.47"></polygon><polygon class="cls-63" points="777.81 500.47 765.12 480.06 754.47 479.77 777.81 500.47"></polygon><polygon class="cls-64" points="746.05 482.71 745.23 487.9 777.81 500.47 746.05 482.71"></polygon><path class="cls-65" d="M65.57,525.26a123.19,123.19,0,0,1-1-16.56q0-1.56,0-3.23l3.26.07q0,1.63,0,3.16a122.43,122.43,0,0,0,.95,16.08Zm4-39-3.22-.52a114,114,0,0,1,4.8-19.23l3.07,1.07a110.75,110.75,0,0,0-4.66,18.67ZM737,471.6c-.17-.19-4.19-4.71-13.29-10.33l1.71-2.77c9.51,5.88,13.84,10.75,14,11ZM456.34,461.53v-3.26c6.51,0,13.08-.18,19.46-.48l.15,3.26C469.52,461.36,462.93,461.52,456.34,461.53Zm-19.61-.38c-6.38-.26-13-.65-19.57-1.17l.26-3.26c6.56.51,13.1.9,19.44,1.16Zm58.78-1.49-.31-3.26c6.46-.61,13-1.4,19.32-2.32l.47,3.22c-6.4.95-13,1.74-19.47,2.36Zm-97.85-1.55c-6.29-.71-12.83-1.55-19.43-2.5l.46-3.22c6.57.94,13.07,1.78,19.33,2.48ZM534.33,454l-.63-3.2c4.67-.92,9.37-1.95,14-3q2.53-.6,5-1.16l.72,3.18q-2.48.56-5,1.16C543.8,452,539,453.07,534.34,454Zm172.17-1.38a150.75,150.75,0,0,0-18.32-6.08l.81-3.15a154.06,154.06,0,0,1,18.73,6.22Zm-347.61,0c-6.21-1-12.51-2.17-19.27-3.44l.6-3.2c6.74,1.27,13,2.39,19.21,3.43Zm-276.4-2.27-2.74-1.74a72.42,72.42,0,0,1,12.81-15.25l2.18,2.44A69.14,69.14,0,0,0,82.5,450.33Zm490-4.45-.58-3.2c6.55-1.18,13.07-2.21,19.39-3l.41,3.23c-6.24.83-12.7,1.83-19.2,3Zm-252.11-.49q-9.62-2-19.14-4l.68-3.19q9.52,2,19.14,4Zm348.78-2.77c-6.18-1-12.67-1.65-19.28-2.08l.21-3.26c6.7.44,13.29,1.14,19.54,2.11Zm-58.09-1.77-.24-3.26c6.66-.5,13.27-.79,19.63-.85l0,3.26C624.24,440.09,617.71,440.37,611.12,440.85ZM282.17,437.3q-9.59-2.06-19.1-4.07l.68-3.19,19.11,4.07Zm-38.22-8c-6.89-1.39-13.15-2.61-19.14-3.71l.59-3.2c6,1.11,12.3,2.33,19.21,3.72Zm-133.44-4.07-1.42-2.93a84.6,84.6,0,0,1,18.79-6.39l.7,3.18a81.38,81.38,0,0,0-18.06,6.17Zm95.07-3c-6.65-1.07-13.14-2-19.28-2.81l.41-3.23c6.18.81,12.7,1.75,19.38,2.82ZM167,417.27l-.25,0c-4.78-.41-9.45-.62-13.91-.64q-2.63,0-5.16.1l-.13-3.26c1.73-.07,3.55-.1,5.29-.1,4.54,0,9.31.22,14.18.65l.24,0Z" transform="translate(0.93 -2.37)"></path><rect class="cls-66" width="860" height="870"></rect></svg>