<svg xmlns="http://www.w3.org/2000/svg" id="Layer_1" data-name="Layer 1" viewBox="0 0 860 870"><defs><style>.cls-1{fill:none;}.cls-2{fill:#ebebeb;}.cls-3{fill:#04134c;}.cls-4{fill:#dbdbdb;}.cls-5{fill:#263238;}.cls-6{fill:#00a4e4;}.cls-7{fill:#fff;}.cls-8{fill:#ffc727;}.cls-9{fill:#dd6a57;}.cls-10{fill:#455a64;}.cls-11{fill:#37474f;}.cls-12{opacity:0.1;isolation:isolate;}.cls-13{fill:#ab6359;}.cls-14{fill:#c7c7c7;}.cls-15{fill:#a6a6a6;}.cls-16{fill:#ff98b9;}</style></defs><title>slider-5</title><rect class="cls-1" width="860" height="870"></rect><path class="cls-2" d="M40.91,353.63a5.61,5.61,0,0,1,5.78,0l1.48.84,1.53.77A5.5,5.5,0,0,1,53,360.08l.22,7.11,23.18-.71-.22-7.11a5.61,5.61,0,0,1,2.92-5A32.12,32.12,0,0,0,82,352.51a5.5,5.5,0,0,1,5.76-.37L94,355.48l11-20.43-6.25-3.35a5.5,5.5,0,0,1-3-5,32.2,32.2,0,0,0-.11-3.46,5.61,5.61,0,0,1,2.54-5.18l6-3.74-12.22-19.7L86,298.4a5.5,5.5,0,0,1-5.76,0l-1.48-.84-1.52-.77A5.61,5.61,0,0,1,74,292l-.21-7.13-23.18.71.22,7.09a5.61,5.61,0,0,1-2.9,5,32.27,32.27,0,0,0-3,1.87,5.5,5.5,0,0,1-5.76.37L33,296.57,22,317l6.25,3.35a5.5,5.5,0,0,1,2.88,5,32.33,32.33,0,0,0,.11,3.46,5.61,5.61,0,0,1-2.56,5.14l-6,3.74,12.22,19.7ZM46.71,317a19,19,0,1,1,7.77,25.71h0A19,19,0,0,1,46.71,317Z" transform="translate(-1.27 -1.74)"></path><path class="cls-2" d="M106.5,271.15a3.87,3.87,0,0,1,3.59-1.87h2.39a3.85,3.85,0,0,1,3.57,1.87l2.41,4.3,14.07-8.12L130.06,263a3.85,3.85,0,0,1,.15-4,22.54,22.54,0,0,0,1.22-2.1,3.85,3.85,0,0,1,3.42-2.13h5V238.5h-4.9a3.85,3.85,0,0,1-3.35-2.13,22.58,22.58,0,0,0-1.22-2.1,3.85,3.85,0,0,1-.15-4l2.49-4.32-14.22-8.12L116,222.13A3.85,3.85,0,0,1,112.4,224H110a3.87,3.87,0,0,1-3.59-1.87l-2.49-4.32-14.07,8.12,2.49,4.3a3.85,3.85,0,0,1-.13,4,22.45,22.45,0,0,0-1.22,2.1,3.85,3.85,0,0,1-3.42,2.13H82.69v16.24h5a3.85,3.85,0,0,1,3.42,2.13A22.56,22.56,0,0,0,92.3,259a3.85,3.85,0,0,1,.13,4l-2.49,4.3L104,275.43ZM97.9,246.62a13.3,13.3,0,1,1,13.3,13.3A13.3,13.3,0,0,1,97.9,246.62Z" transform="translate(-1.27 -1.74)"></path><path class="cls-3" d="M673.65,85.58a3.87,3.87,0,0,1,1.87,3.59v2.39a3.85,3.85,0,0,1-1.87,3.57l-4.32,2.49,8.12,14.07,4.32-2.49a3.85,3.85,0,0,1,4,.15,22.45,22.45,0,0,0,2.1,1.22A3.85,3.85,0,0,1,690,114v5h16.24v-5a3.85,3.85,0,0,1,2.13-3.42,22.56,22.56,0,0,0,2.1-1.22,3.85,3.85,0,0,1,4-.15l4.32,2.49L727,97.63l-4.25-2.51a3.85,3.85,0,0,1-1.87-3.57V89.16a3.87,3.87,0,0,1,1.87-3.59l4.32-2.49L718.94,69l-4.3,2.49a3.85,3.85,0,0,1-4-.13,22.56,22.56,0,0,0-2.1-1.22,3.85,3.85,0,0,1-2.21-3.44V61.77H690.06v4.94a3.85,3.85,0,0,1-2.13,3.42,22.45,22.45,0,0,0-2.1,1.22,3.85,3.85,0,0,1-4,.13L677.49,69l-8.12,14.07Zm24.51-8.53a13.3,13.3,0,1,1-13.3,13.3h0a13.32,13.32,0,0,1,13.32-13.3Z" transform="translate(-1.27 -1.74)"></path><polygon class="cls-2" points="366.96 715.72 716.24 715.72 723.5 572.42 359.68 572.42 366.96 715.72"></polygon><path class="cls-4" d="M700.93,639.75h-146L552.18,590H704.13ZM556.58,638h142.7l2.88-46.23H554Z" transform="translate(-1.27 -1.74)"></path><path class="cls-4" d="M698.23,697H560.64l-2.23-44.9H701Zm-135.93-1.7H696.55l2.58-41.38H560.24Z" transform="translate(-1.27 -1.74)"></path><path class="cls-4" d="M642,620.27H617.45l-1.55-12h27.63Zm-23-1.68h21.42l1.09-8.47H618Z" transform="translate(-1.27 -1.74)"></path><path class="cls-4" d="M642,680.53H617.45l-1.55-12h27.63Zm-23-1.76h21.44l1.09-8.47H618Z" transform="translate(-1.27 -1.74)"></path><path class="cls-4" d="M529.17,639.75h-146L380.39,590h152ZM384.82,638h142.7l3-46.23H382.26Z" transform="translate(-1.27 -1.74)"></path><path class="cls-4" d="M526.48,697H388.88l-2.23-44.9H529.3Zm-135.93-1.7H524.81l2.58-41.38H388.49Z" transform="translate(-1.27 -1.74)"></path><path class="cls-4" d="M470.18,620.27H445.7l-1.55-12h27.63Zm-22.94-1.68h21.44l1.09-8.47H446.15Z" transform="translate(-1.27 -1.74)"></path><path class="cls-4" d="M470.18,680.53H445.7l-1.55-12h27.63Zm-23-1.76h21.44l1.09-8.47H446.15Z" transform="translate(-1.27 -1.74)"></path><polygon class="cls-2" points="398.28 715.72 396.09 731.34 391.67 762.72 383.05 762.72 383.05 715.72 398.28 715.72"></polygon><polygon class="cls-4" points="398.28 715.72 396.09 731.34 383.05 731.34 383.05 715.72 398.28 715.72"></polygon><polygon class="cls-2" points="684.9 715.72 687.11 731.34 691.51 762.72 700.13 762.72 700.13 715.72 684.9 715.72"></polygon><polygon class="cls-4" points="684.9 715.72 687.11 731.34 700.13 731.34 700.13 715.72 684.9 715.72"></polygon><ellipse class="cls-2" cx="637.5" cy="818.74" rx="198.77" ry="34.52"></ellipse><ellipse class="cls-2" cx="140.88" cy="819.57" rx="87.55" ry="20.99"></ellipse><polygon class="cls-5" points="17.52 763.67 120.54 763.22 223.58 763.05 429.63 762.73 635.7 763.05 738.72 763.22 841.77 763.67 738.72 764.14 635.7 764.29 429.63 764.6 223.58 764.29 120.54 764.12 17.52 763.67"></polygon><path class="cls-6" d="M140,61.92a78.57,78.57,0,1,0,78.57,78.57A78.57,78.57,0,0,0,140,61.92Zm0,115.2a36.69,36.69,0,1,1,36.69-36.69v0A36.67,36.67,0,0,1,140,177.08Z" transform="translate(-1.27 -1.74)"></path><path class="cls-7" d="M95.22,91.49a.69.69,0,0,1,1-.92l12.12,13.73a.69.69,0,0,1-1,.92Z" transform="translate(-1.27 -1.74)"></path><path class="cls-7" d="M113.67,100.57h-.09a.67.67,0,0,1-.84-.34l-8-16.48a.69.69,0,0,1,.32-.9h0l3.24-1.55A9.82,9.82,0,0,1,116.87,99Zm2.66-2.81A8.46,8.46,0,0,0,109,82.53l-2.68,1.29,7.33,15.23Z" transform="translate(-1.27 -1.74)"></path><path class="cls-7" d="M126.54,75.27a.69.69,0,0,1,.58-.75h0l10.06-1.23a.69.69,0,0,1,.2,1.36h0L128,75.8l.94,7.73,8.25-1a.69.69,0,0,1,.75.62.67.67,0,0,1-.58.75l-8.16,1,.94,7.69,9.35-1.14a.69.69,0,0,1,.17,1.37L129.7,94h-.13a.67.67,0,0,1-.69-.6Z" transform="translate(-1.27 -1.74)"></path><path class="cls-7" d="M155.48,90.13l-8.76-1.87-2.68,4.17a.69.69,0,0,1-.73.3h-.24a.71.71,0,0,1-.21-1l10.48-16.41a.75.75,0,0,1,.75-.26.69.69,0,0,1,.58.56l2.88,19.1a.71.71,0,0,1-.54.8h-.26a.71.71,0,0,1-.54-.58Zm-8-3.11,7.76,1.66-1.66-11.22Z" transform="translate(-1.27 -1.74)"></path><polygon class="cls-6" points="153.84 63.45 123.65 63.45 125.31 42.07 152.18 42.07 153.84 63.45"></polygon><polygon class="cls-6" points="96.37 73.63 75.01 94.97 61.07 78.68 80.08 59.69 96.37 73.63"></polygon><polygon class="cls-6" points="62.92 121.47 62.92 151.66 41.54 149.99 41.54 123.13 62.92 121.47"></polygon><polygon class="cls-6" points="73.08 178.95 94.44 200.3 78.15 214.24 59.14 195.25 73.08 178.95"></polygon><polygon class="cls-6" points="120.93 212.4 151.13 212.4 149.46 233.77 122.6 233.77 120.93 212.4"></polygon><polygon class="cls-6" points="178.42 202.23 199.77 180.86 213.71 197.18 194.72 216.16 178.42 202.23"></polygon><polygon class="cls-6" points="211.87 154.39 211.87 124.18 233.24 125.84 233.24 152.71 211.87 154.39"></polygon><polygon class="cls-6" points="201.7 96.9 180.33 75.54 196.63 61.6 215.63 80.61 201.7 96.9"></polygon><path class="cls-3" d="M145.23,121.28V158a3.46,3.46,0,0,1-3.48,3.42,3.39,3.39,0,0,1-3.42-3.35s0-.05,0-.08V127.38l-2.49,1.44a3.12,3.12,0,0,1-1.74.51,3.5,3.5,0,0,1-1.87-6.42l7.67-4.55s.19,0,.24-.13.19-.13.32-.19.24,0,.37,0a.37.37,0,0,1,.24,0,1.07,1.07,0,0,1,.43,0h.69a.37.37,0,0,0,.24,0,.67.67,0,0,1,.37.13.37.37,0,0,1,.24,0c.19.13.24.19.37.19a.86.86,0,0,0,.24.19l.24.19c.13,0,.19.19.24.24a.84.84,0,0,1,.19.24l.24.24v.32c0,.06.13.19.13.32s0,.24.13.32a2.67,2.67,0,0,0,0,.32.52.52,0,0,0,.13.43Z" transform="translate(-1.27 -1.74)"></path><path class="cls-8" d="M216.24,57.18C214,76.1,201.86,79.63,199.8,84.61a87.93,87.93,0,0,0-2.54,9.67H177.5A85.06,85.06,0,0,0,175,84.61c-2-5.05-14.18-8.55-16.37-27.46-1.44-12.44,7.93-32.07,28.85-32S217.63,44.74,216.24,57.18Z" transform="translate(-1.27 -1.74)"></path><rect class="cls-7" x="178.97" y="63.83" width="1.29" height="31.99" transform="translate(-12.81 32.36) rotate(-10.51)"></rect><rect class="cls-7" x="179.22" y="79.22" width="31.99" height="1.29" transform="translate(79.41 255.24) rotate(-79.36)"></rect><path class="cls-7" d="M187.42,74.64h0c-1.87,0-3.46-1.66-4.58-3.74a2.39,2.39,0,0,1-1.68.88h0c-3,0-4.21-6.17-4.27-6.44l.64-.11c.3,1.65,1.55,5.89,3.63,5.89h0a2,2,0,0,0,1.37-.84,13.94,13.94,0,0,1-1.46-5.61c0-1.76.67-2.77,1.87-2.77h0a1.87,1.87,0,0,1,1.68,1c.94,1.63.24,4.81-.94,6.85a7.2,7.2,0,0,1-.39.62c1.07,2,2.56,3.61,4.15,3.61h0c1.46,0,2.73-1.31,3.74-3.09a8.23,8.23,0,0,1-1.87-5.31c0-2.24.86-3.63,2.23-3.63h0c1.12,0,1.76,1.1,1.76,3a14.74,14.74,0,0,1-1.42,5.82,2.79,2.79,0,0,0,1.87.77h0c1.76,0,3.35-4.28,3.74-5.93l.62.17c-.19.65-1.87,6.42-4.43,6.42h0a3.37,3.37,0,0,1-2.19-.84A5.18,5.18,0,0,1,187.42,74.64Zm4-12c-1.16,0-1.57,1.61-1.59,3a8.12,8.12,0,0,0,1.46,4.7A13.69,13.69,0,0,0,192.54,65C192.54,64.27,192.43,62.63,191.44,62.63Zm-8.61,0c-1,0-1.2,1.14-1.2,2.11a12.76,12.76,0,0,0,1.23,5l.17-.26c1.07-1.87,1.72-4.85.94-6.19a1.22,1.22,0,0,0-1.12-.64Z" transform="translate(-1.27 -1.74)"></path><rect class="cls-5" x="174.06" y="91.46" width="24.4" height="4.77"></rect><rect class="cls-5" x="184.99" y="89.16" width="4.77" height="24.4" transform="translate(84.56 286.89) rotate(-89.94)"></rect><rect class="cls-5" x="184.99" y="94.69" width="4.77" height="24.4" transform="translate(79.02 292.41) rotate(-89.94)"></rect><path class="cls-8" d="M269.73,298.89a94,94,0,1,0,93.93,94v-.06A94.08,94.08,0,0,0,269.73,298.89Zm0,168a74,74,0,1,1,73.93-74v.07a74,74,0,0,1-73.93,74Zm0-168a94,94,0,1,0,93.93,94v-.06a94.08,94.08,0,0,0-93.93-94Zm0,168a74,74,0,1,1,73.93-74v.07a74,74,0,0,1-73.93,74Zm0-232.41A158.42,158.42,0,1,0,428.11,392.9v0A158.44,158.44,0,0,0,269.73,234.44Zm0,261.42A103,103,0,1,1,372.62,392.75q0,.11,0,.22A103.12,103.12,0,0,1,269.73,495.86Zm0-197a94,94,0,1,0,93.93,94v-.06a94.08,94.08,0,0,0-93.93-94Zm0,168a74,74,0,1,1,73.93-74v.07a74,74,0,0,1-73.93,74Z" transform="translate(-1.27 -1.74)"></path><path class="cls-7" d="M184.8,312.34a3.54,3.54,0,0,0-3.29-.79,6.29,6.29,0,0,0-2.24,1h-.13L176,316.18l5.82,5.16a.69.69,0,0,1-.92,1l-13.75-12.09a.69.69,0,0,1-.09-.92h0l3.63-4.1a5.61,5.61,0,0,1,9.56,5.33l.3-.11a5,5,0,0,1,5,.94,7.58,7.58,0,0,0,1.87,1.33,1,1,0,0,0,.54.11.73.73,0,0,1,.84-.26.77.77,0,0,1,.37.94l-.21.26h0a1.57,1.57,0,0,1-1.52.36A6.94,6.94,0,0,1,184.8,312.34Zm-13-6.17-3.22,3.63,6.34,5.61,3.12-3.52.17-.19a4.26,4.26,0,0,0-6.42-5.61Z" transform="translate(-1.27 -1.74)"></path><path class="cls-7" d="M180.87,295.75a.67.67,0,0,1,0-1h0l7.69-6.47a.69.69,0,0,1,.88,1l-7.18,6.06,5,5.95,6.29-5.29a.69.69,0,0,1,.88,1l-6.15,5.29,5,5.93,7.18-6.06a.67.67,0,0,1,1,.07l0,0a.65.65,0,0,1,0,.93l0,0-7.67,6.45h0a.67.67,0,0,1-.9-.11Z" transform="translate(-1.27 -1.74)"></path><path class="cls-7" d="M202.77,297.58a.6.6,0,0,1,.66-.53h0a10.78,10.78,0,0,0,6.83-1.23,7.48,7.48,0,0,0,3-3.37,3.63,3.63,0,0,0-.09-3.37,3.12,3.12,0,0,0-2.77-1.46,13,13,0,0,0-4.71,1h0a12.37,12.37,0,0,1-4.81,1,4.08,4.08,0,0,1-3.52-1.87,4.58,4.58,0,0,1-.19-4.21,8.06,8.06,0,0,1,3.29-3.74,10.85,10.85,0,0,1,6.36-1.23.62.62,0,0,1,.6.63v0a.6.6,0,0,1-.62.58h0a9.77,9.77,0,0,0-5.61,1,7,7,0,0,0-2.81,3.11,3.42,3.42,0,0,0,.09,3.11,2.84,2.84,0,0,0,2.49,1.27,11.47,11.47,0,0,0,4.36-.94h0a13.43,13.43,0,0,1,5.2-1.09,4.42,4.42,0,0,1,3.74,2,4.94,4.94,0,0,1,.17,4.51,8.64,8.64,0,0,1-3.5,4,12.27,12.27,0,0,1-7.65,1.38A.65.65,0,0,1,202.77,297.58Z" transform="translate(-1.27 -1.74)"></path><path class="cls-7" d="M213.64,273.75a.69.69,0,0,1,.36-.88h0l9.24-3.91a.69.69,0,0,1,.54,1.27L215.12,274l3,7.17,7.48-3.2a.69.69,0,0,1,.54,1.27l-7.48,3.2,3,7.13,8.66-3.74a.67.67,0,0,1,.88.36v0a.67.67,0,0,1-.36.88L221.69,291h0a.67.67,0,0,1-.82-.37Z" transform="translate(-1.27 -1.74)"></path><path class="cls-7" d="M245,277.73,236.34,280l-.54,4.92a.69.69,0,0,1-.51.6H235a.71.71,0,0,1-.6-.77l2.08-19.33a.75.75,0,0,1,.54-.58.69.69,0,0,1,.75.24L248.95,281a.71.71,0,0,1-.13,1h-.24a.71.71,0,0,1-.73-.28Zm-8.51.77,7.69-2-6.45-9.24Z" transform="translate(-1.27 -1.74)"></path><path class="cls-7" d="M262,276a3.54,3.54,0,0,0-1.87-2.81,6.29,6.29,0,0,0-2.36-.75h-.15l-4.75.47.77,7.73a.69.69,0,0,1-1.37.13l-1.87-18.2a.69.69,0,0,1,.54-.73h.13l5.44-.54a5.61,5.61,0,0,1,3.4,10.4l.3.11a5,5,0,0,1,3,4.1,7.58,7.58,0,0,0,.47,2.24,1,1,0,0,0,.32.45.73.73,0,0,1,.8.37.77.77,0,0,1-.36.94h-.34a1.57,1.57,0,0,1-1.35-.77A6.94,6.94,0,0,1,262,276Zm-5.28-13.38-4.83.49.84,8.44,4.7-.47h.24a4.24,4.24,0,0,0-1-8.42Z" transform="translate(-1.27 -1.74)"></path><path class="cls-7" d="M280.13,260.74a10.42,10.42,0,0,1,6.19,2.58.69.69,0,0,1,0,1h0a.65.65,0,0,1-.93,0l0,0a8.94,8.94,0,0,0-5.37-2.26,8.59,8.59,0,1,0-1.16,17.14,8.36,8.36,0,0,0,5.61-1.53.67.67,0,0,1,.94.18l0,.06a.65.65,0,0,1-.08.92l-.07.05a10.4,10.4,0,0,1-6.47,1.7,10,10,0,0,1,.64-19.93l.68,0Z" transform="translate(-1.27 -1.74)"></path><path class="cls-7" d="M303.52,275.8l-9.8-2.45-2.06,8.23a.69.69,0,0,1-.84.49.67.67,0,0,1-.49-.82h0l4.43-17.75a.69.69,0,0,1,1.33.34L294,272.06l9.8,2.45,2.06-8.23a.69.69,0,0,1,1.33.34l-4.43,17.75a.69.69,0,0,1-1.33-.34Z" transform="translate(-1.27 -1.74)"></path><polygon class="cls-8" points="287.04 235.58 250.77 235.58 254.38 199.38 283.43 199.38 287.04 235.58"></polygon><polygon class="cls-8" points="206.77 247.13 175.35 265.25 160.39 232.1 185.55 217.57 206.77 247.13"></polygon><polygon class="cls-8" points="143.03 297.24 124.9 328.65 95.34 307.42 109.88 282.28 143.03 297.24"></polygon><polygon class="cls-8" points="112.89 372.52 112.89 408.8 76.69 405.19 76.69 376.13 112.89 372.52"></polygon><polygon class="cls-8" points="124.43 452.8 142.56 484.21 109.39 499.18 94.87 474.03 124.43 452.8"></polygon><polygon class="cls-8" points="174.55 516.54 205.96 534.68 184.73 564.22 159.59 549.71 174.55 516.54"></polygon><polygon class="cls-8" points="249.83 546.7 286.11 546.7 282.5 582.89 253.44 582.89 249.83 546.7"></polygon><polygon class="cls-8" points="330.11 535.15 361.52 517 376.48 550.17 351.32 564.69 330.11 535.15"></polygon><polygon class="cls-8" points="393.85 485.01 411.97 453.6 441.53 474.84 427 500 393.85 485.01"></polygon><polygon class="cls-8" points="423.98 409.73 423.98 373.46 460.2 377.07 460.2 406.12 423.98 409.73"></polygon><polygon class="cls-8" points="412.44 329.48 394.31 298.07 427.48 283.08 442 308.24 412.44 329.48"></polygon><polygon class="cls-8" points="362.32 265.72 330.91 247.59 352.14 218.03 377.29 232.57 362.32 265.72"></polygon><path class="cls-3" d="M283.52,415.91a3.39,3.39,0,0,1-3.35,3.42H257.93a3.35,3.35,0,0,1-2.56-1.12,3.44,3.44,0,0,1,.19-4.86L274,396.66a7.8,7.8,0,0,0,2.62-6,8.06,8.06,0,0,0-2.06-5.43,7.89,7.89,0,0,0-6-2.62,8.18,8.18,0,0,0-5.43,2.06l-1.87,1.74a3.39,3.39,0,0,1-4.79-.16l-.08-.09a3.44,3.44,0,0,1,.24-4.86h0l1.87-1.74a14.7,14.7,0,0,1,10-3.85,15,15,0,0,1,11.09,4.92,14.7,14.7,0,0,1,3.85,10,15,15,0,0,1-4.92,11.09l-11.77,10.64h13.26a3.42,3.42,0,0,1,3.46,3.39S283.52,415.87,283.52,415.91Z" transform="translate(-1.27 -1.74)"></path><path class="cls-5" d="M393,319.09l-11.22,8.46-20.67-27.29-7.48-10a17.72,17.72,0,0,0,4.34-2.45,18.15,18.15,0,0,0,5.72-7.48l8,10.59Z" transform="translate(-1.27 -1.74)"></path><path class="cls-5" d="M371,254.81a30.46,30.46,0,1,0,.67,36.16A30.46,30.46,0,0,0,371,254.81Zm-13.1,33a17.72,17.72,0,0,1-4.34,2.45,18.17,18.17,0,1,1,4.34-2.45Z" transform="translate(-1.27 -1.74)"></path><path class="cls-8" d="M790.46,207.56a35.83,35.83,0,1,0-32.35,39,35.83,35.83,0,0,0,32.35-39ZM757.72,242.2a31.47,31.47,0,1,1,28.4-34.26v0A31.47,31.47,0,0,1,757.72,242.2Zm32.74-34.65a35.83,35.83,0,1,0-32.35,39,35.83,35.83,0,0,0,32.35-39ZM757.72,242.2a31.47,31.47,0,1,1,28.4-34.26v0A31.47,31.47,0,0,1,757.72,242.2Zm32.74-34.65a35.83,35.83,0,1,0-32.35,39,35.83,35.83,0,0,0,32.35-39ZM757.72,242.2a31.47,31.47,0,1,1,28.4-34.26v0A31.47,31.47,0,0,1,757.72,242.2ZM830,203.89a75.52,75.52,0,1,0-68.19,82.2h0A75.54,75.54,0,0,0,830,203.89ZM758.64,252.1A41.42,41.42,0,1,1,796.06,207v0A41.46,41.46,0,0,1,758.64,252.1Zm-7.15-76.89a35.84,35.84,0,1,0,39,32.41v-.05A35.83,35.83,0,0,0,751.5,175.21Zm6.23,67A31.47,31.47,0,1,1,786.12,208v0a31.47,31.47,0,0,1-28.4,34.22Zm32.74-34.65a35.83,35.83,0,1,0-32.35,39,35.83,35.83,0,0,0,32.35-39v0Zm-32.74,34.65A31.47,31.47,0,1,1,786.12,208v0a31.47,31.47,0,0,1-28.4,34.22Zm32.74-34.65a35.83,35.83,0,1,0-32.35,39,35.83,35.83,0,0,0,32.35-39v0Zm-32.74,34.65A31.47,31.47,0,1,1,786.12,208v0a31.47,31.47,0,0,1-28.4,34.22Z" transform="translate(-1.27 -1.74)"></path><polygon class="cls-8" points="761.29 135.72 732.38 138.4 732.06 117.78 757.79 115.39 761.29 135.72"></polygon><polygon class="cls-8" points="707.14 150.57 688.61 172.93 673.81 158.56 690.31 138.68 707.14 150.57"></polygon><polygon class="cls-8" points="679.38 199.36 682.08 228.29 661.44 228.59 659.07 202.86 679.38 199.36"></polygon><polygon class="cls-8" points="694.24 253.5 716.59 272.05 702.23 286.84 682.34 270.34 694.24 253.5"></polygon><polygon class="cls-8" points="743.03 281.27 771.95 278.59 772.25 299.21 746.52 301.6 743.03 281.27"></polygon><polygon class="cls-8" points="797.17 266.41 815.71 244.08 830.5 258.44 814 278.31 797.17 266.41"></polygon><polygon class="cls-8" points="824.95 217.62 822.25 188.7 842.87 188.4 845.27 214.13 824.95 217.62"></polygon><polygon class="cls-8" points="810.08 163.48 787.74 144.94 802.11 130.15 821.97 146.65 810.08 163.48"></polygon><path class="cls-7" d="M709.08,202.24v.11a.67.67,0,0,1-.84.36l-17.3-6.08a.67.67,0,0,1-.41-.86h0l1.2-3.39a9.82,9.82,0,0,1,18.52,6.51Zm-.09-3.87a8.45,8.45,0,1,0-15.94-5.61l-1,2.81L708,201.18Z" transform="translate(-1.27 -1.74)"></path><path class="cls-7" d="M700.46,175.21a.67.67,0,0,1-.12-.94h0l6.27-7.86a.69.69,0,0,1,1.07.86l-5.86,7.35,6.08,4.85L713,173a.69.69,0,0,1,1.07.86L709,180.32l6,4.83,5.86-7.35a.67.67,0,0,1,1,0l0,0a.67.67,0,0,1,.12.94h0l-6.21,7.69h0a.67.67,0,0,1-.92,0Z" transform="translate(-1.27 -1.74)"></path><path class="cls-7" d="M722.37,172.93a.6.6,0,0,1,.66-.53h0a10.76,10.76,0,0,0,6.81-1.23,7.37,7.37,0,0,0,3-3.37,3.63,3.63,0,0,0-.09-3.37A3.12,3.12,0,0,0,730,163a12.93,12.93,0,0,0-4.71,1h0a12.33,12.33,0,0,1-4.81,1,4.08,4.08,0,0,1-3.52-1.87,4.58,4.58,0,0,1-.19-4.21,8,8,0,0,1,3.29-3.74,10.85,10.85,0,0,1,6.34-1.23.64.64,0,0,1,.6.65.6.6,0,0,1-.62.58h0a9.75,9.75,0,0,0-5.61,1,7,7,0,0,0-2.81,3.11,3.42,3.42,0,0,0,.09,3.11,2.84,2.84,0,0,0,2.49,1.27,11.43,11.43,0,0,0,4.36-.94h0a13.43,13.43,0,0,1,5.2-1.09,4.42,4.42,0,0,1,3.74,2,4.94,4.94,0,0,1,.17,4.51,8.64,8.64,0,0,1-3.5,4,12.25,12.25,0,0,1-7.65,1.38A.65.65,0,0,1,722.37,172.93Z" transform="translate(-1.27 -1.74)"></path><path class="cls-7" d="M735.41,149.36a.69.69,0,0,1,1.31-.37l5.09,17.57a.69.69,0,0,1-.49.84.67.67,0,0,1-.84-.45h0Z" transform="translate(-1.27 -1.74)"></path><path class="cls-7" d="M756.71,156.64A.67.67,0,0,1,756,156s0,0,0,0a.69.69,0,0,1,.71-.67h0l6.06.17h0a.69.69,0,0,1,.6.71l-.17,6.73V163a.79.79,0,0,1-.26.51,10.06,10.06,0,1,1-5.87-17.92,10.25,10.25,0,0,1,6.3,2.39.69.69,0,0,1,0,1,.73.73,0,0,1-1,0A8.68,8.68,0,1,0,756.53,164a8.83,8.83,0,0,0,5.24-1.55l.15-5.78Z" transform="translate(-1.27 -1.74)"></path><path class="cls-7" d="M777,152.43l-7.22,14.39a.67.67,0,0,1-1.2-.6l8.08-16.11a.67.67,0,0,1,.56-.56.71.71,0,0,1,.79.58l3.24,20.09,7.17-14.29a.69.69,0,0,1,1.23.62l-8.12,16.18a.69.69,0,0,1-.94.28.65.65,0,0,1-.36-.47.41.41,0,0,1,0-.15Z" transform="translate(-1.27 -1.74)"></path><path class="cls-5" d="M770.11,219.27a3.42,3.42,0,0,1-3.42,3.42H766v4.73a3.42,3.42,0,1,1-6.85,0v-4.73H739.58a3,3,0,0,1-2.11-.75,3.33,3.33,0,0,1-.66-4.66l.1-.13,23-28.66.13-.13a.84.84,0,0,0,.19-.24.65.65,0,0,0,.32-.19l.24-.19a.67.67,0,0,1,.37-.13c0-.13.13-.19.24-.19a.53.53,0,0,0,.37-.13.37.37,0,0,0,.24,0h1.07a.56.56,0,0,0,.32,0,.61.61,0,0,1,.37.13h.24a2.05,2.05,0,0,0,.32.24l.32.19h0s.19,0,.19.13l.24.24a3,3,0,0,0,.19.24,1.68,1.68,0,0,1,.24.32.47.47,0,0,0,.13.24,2.59,2.59,0,0,1,.13.37v.24a.67.67,0,0,1,0,.37V215.7h.62a3.46,3.46,0,0,1,3.66,3.25Q770.12,219.11,770.11,219.27Zm-11-18.82-12.4,15.38h12.4Z" transform="translate(-1.27 -1.74)"></path><path class="cls-9" d="M826.76,137.33s5.2-8.57-2.36-12.33-11,5.61-11,5.61Z" transform="translate(-1.27 -1.74)"></path><polygon class="cls-10" points="781.98 192.18 795.32 198.8 825.68 135.23 812.34 128.61 781.98 192.18"></polygon><polygon class="cls-5" points="810.17 130.26 825.75 137.98 826.95 135.46 811.39 127.73 810.17 130.26"></polygon><polygon class="cls-5" points="808.84 133.04 824.41 140.77 825.62 138.25 810.04 130.52 808.84 133.04"></polygon><path class="cls-7" d="M783.24,193.92l1.27,10.35.41,3.4,2.92-1.76,8.76-5.35-.6-2.24-2.08.94-.6-2.24-2.08.94-.56-2.24-2.11.92-.56-2.24-2.11.92-.56-2.24Z" transform="translate(-1.27 -1.74)"></path><polygon class="cls-11" points="783.25 202.51 783.66 205.91 786.56 204.15 783.25 202.51"></polygon><path class="cls-5" d="M788.78,191.82c1.87-4.53,3.74-9,5.72-13.39s4.08-8.81,6.1-13.21,4.23-8.74,6.44-13.1,4.43-8.62,6.83-12.87c-1.87,4.53-3.74,9-5.72,13.39s-4.08,8.81-6.1,13.21-4.23,8.74-6.44,13.1S791.17,187.6,788.78,191.82Z" transform="translate(-1.27 -1.74)"></path><path class="cls-5" d="M794.82,194.72c1.87-4.53,3.74-9,5.72-13.39s4.08-8.81,6.1-13.21,4.23-8.74,6.44-13.1,4.43-8.62,6.83-12.87c-1.87,4.53-3.74,9-5.72,13.39s-4.08,8.81-6.1,13.21-4.23,8.74-6.44,13.1S797.2,190.48,794.82,194.72Z" transform="translate(-1.27 -1.74)"></path><path class="cls-6" d="M559,155.61A100.57,100.57,0,1,0,659.6,256.2v0A100.57,100.57,0,0,0,559,155.61Zm0,147.53a47,47,0,1,1,47-47,47,47,0,0,1-47,47Z" transform="translate(-1.27 -1.74)"></path><polygon class="cls-6" points="577.13 158.04 538.44 158.04 540.59 130.67 574.97 130.67 577.13 158.04"></polygon><polygon class="cls-6" points="503.51 171.08 476.16 198.41 458.33 177.55 482.65 153.23 503.51 171.08"></polygon><polygon class="cls-6" points="460.69 232.33 460.69 271 433.3 268.86 433.3 234.48 460.69 232.33"></polygon><polygon class="cls-6" points="473.71 305.94 501.06 333.27 480.18 351.12 455.86 326.8 473.71 305.94"></polygon><polygon class="cls-6" points="534.98 348.77 573.65 348.77 571.5 376.15 537.11 376.15 534.98 348.77"></polygon><polygon class="cls-6" points="608.57 335.75 635.92 308.39 653.75 329.27 629.43 353.59 608.57 335.75"></polygon><polygon class="cls-6" points="651.4 274.48 651.4 235.81 678.78 237.96 678.78 272.34 651.4 274.48"></polygon><polygon class="cls-6" points="638.38 200.88 611.02 173.53 631.9 155.7 656.22 180.02 638.38 200.88"></polygon><path class="cls-7" d="M499.56,272.64a.6.6,0,0,1-.22-.82v0a10.76,10.76,0,0,0,1.53-6.75A7.37,7.37,0,0,0,499,261a3.63,3.63,0,0,0-3.14-1.23,3.14,3.14,0,0,0-2.43,2,13,13,0,0,0-.9,4.73h0a12.33,12.33,0,0,1-.94,4.83,4.08,4.08,0,0,1-3.09,2.51,4.58,4.58,0,0,1-3.95-1.48,8,8,0,0,1-2.11-4.47,10.83,10.83,0,0,1,1.35-6.34.62.62,0,0,1,.82-.31h0a.6.6,0,0,1,.31.79v0a9.75,9.75,0,0,0-1.25,5.61,7,7,0,0,0,1.76,3.74,3.42,3.42,0,0,0,2.9,1.12,2.84,2.84,0,0,0,2.13-1.87,11.45,11.45,0,0,0,.84-4.38h0a13.41,13.41,0,0,1,1-5.2,4.42,4.42,0,0,1,3.35-2.69,4.94,4.94,0,0,1,4.21,1.61,8.62,8.62,0,0,1,2.28,4.77,12.25,12.25,0,0,1-1.72,7.58.65.65,0,0,1-.84.39Z" transform="translate(-1.27 -1.74)"></path><path class="cls-7" d="M483.73,246.86l-.8,5.87a.69.69,0,0,1-.79.58.67.67,0,0,1-.58-.75h0l1.87-13.1a.67.67,0,0,1,.75-.58h0a.69.69,0,0,1,.6.77l-.8,5.87,17.44,2.39a.67.67,0,0,1-.07,1.35l-.12,0Z" transform="translate(-1.27 -1.74)"></path><path class="cls-7" d="M504.12,227.11a3.54,3.54,0,0,0-3.37.22,6.27,6.27,0,0,0-1.87,1.66l-.11.11-2,4.34,7.07,3.22a.69.69,0,0,1-.56,1.25l-16.65-7.48a.69.69,0,0,1-.36-.84h0l2.26-5a5.61,5.61,0,0,1,10.7,2.26l.24-.21a5,5,0,0,1,5.07-.6,7.48,7.48,0,0,0,2.17.71,1,1,0,0,0,.54,0,.73.73,0,0,1,.73-.51.77.77,0,0,1,.64.79,2.82,2.82,0,0,1-.11.32h0a1.57,1.57,0,0,1-1.35.79A6.94,6.94,0,0,1,504.12,227.11ZM489.9,225l-2,4.49,7.71,3.5,1.87-4.28.11-.22a4.24,4.24,0,0,0-7.76-3.4h0Z" transform="translate(-1.27 -1.74)"></path><path class="cls-7" d="M514.49,211.88l-5.84,6.79L511,223a.69.69,0,0,1,0,.79l-.19.17a.71.71,0,0,1-.94-.28l-9.35-17a.75.75,0,0,1,.11-.79.69.69,0,0,1,.77-.24l18.26,6.7a.71.71,0,0,1,.45.86.23.23,0,0,1-.15.21.73.73,0,0,1-.77.21Zm-6.55,5.52,5.18-6-10.59-3.87Z" transform="translate(-1.27 -1.74)"></path><path class="cls-7" d="M514.34,194.89l-4.86,3.42a.69.69,0,0,1-.8-1.12l10.76-7.63a.69.69,0,0,1,.79,1.12l-4.83,3.42,10.18,14.35a.68.68,0,1,1-1.1.79Z" transform="translate(-1.27 -1.74)"></path><path class="cls-7" d="M528.63,185.71a.69.69,0,0,1,.41-.86h0l9.47-3.33a.69.69,0,0,1,.45,1.29l-8.87,3.12,2.58,7.33,7.75-2.73a.69.69,0,0,1,.45,1.29l-7.75,2.73,2.56,7.3,8.87-3.12A.69.69,0,0,1,545,200l-9.34,3.26h0a.67.67,0,0,1-.8-.43Z" transform="translate(-1.27 -1.74)"></path><path class="cls-7" d="M558.24,189.73a.67.67,0,0,1-.71-.63v0a.69.69,0,0,1,.67-.71h0l6.06-.13h0a.71.71,0,0,1,.64.69l.15,6.73v.13a.8.8,0,0,1-.24.51,10.06,10.06,0,1,1-6.73-17.62,10.27,10.27,0,0,1,6.42,2.08.69.69,0,0,1,.11,1,.73.73,0,0,1-1,.13,8.68,8.68,0,1,0-5.13,15.4,8.83,8.83,0,0,0,5.14-1.87l-.13-5.78Z" transform="translate(-1.27 -1.74)"></path><path class="cls-7" d="M577.68,191.77l-3.74-10.5a.73.73,0,0,1,.39-.88.65.65,0,0,1,.86.33l0,0,3.54,9.84,8.31-6.38a.65.65,0,0,1,.92.12l0,.05a.67.67,0,0,1-.12.94h0L579,192l-2.47,8.46a.65.65,0,0,1-.8.46h0a.69.69,0,0,1-.47-.84Z" transform="translate(-1.27 -1.74)"></path><path class="cls-3" d="M568,254.7a15.23,15.23,0,0,1,4.55,10.91,15.45,15.45,0,0,1-26.42,11,3.52,3.52,0,1,1,5-5A8.29,8.29,0,0,0,557,274a8.53,8.53,0,0,0,6-2.43,8.34,8.34,0,0,0,2.49-6A8.1,8.1,0,0,0,563,259.7a8.34,8.34,0,0,0-5.91-2.49,3.07,3.07,0,0,1-2.56-1.12h0a3.54,3.54,0,0,1-.13-5l6.36-6.47h-10.1a3.52,3.52,0,0,1,0-7H569a3.5,3.5,0,0,1,3.55,3.44v0a3.74,3.74,0,0,1-.43,1.68,4.44,4.44,0,0,1-.62.88l-7.86,8.1A14.16,14.16,0,0,1,568,254.7Z" transform="translate(-1.27 -1.74)"></path><circle class="cls-8" cx="625.26" cy="168.44" r="11.69"></circle><rect class="cls-8" x="612.88" y="178.34" width="24.79" height="3.57"></rect><rect class="cls-12" x="612.88" y="178.34" width="24.79" height="3.57"></rect><rect class="cls-8" x="600.16" y="227.54" width="50.21" height="3.57"></rect><rect class="cls-12" x="600.16" y="227.54" width="50.21" height="3.57"></rect><rect class="cls-8" x="600.16" y="237.57" width="50.21" height="3.57"></rect><rect class="cls-12" x="600.16" y="237.57" width="50.21" height="3.57"></rect><rect class="cls-8" x="602.03" y="231.11" width="46.47" height="6.45"></rect><rect class="cls-8" x="615.16" y="181.91" width="20.22" height="3.57"></rect><path class="cls-8" d="M647.07,229.28H605.91s9.35-9.35,11.34-20.58c1.63-9.47,2.43-21.46,2.43-21.46h13.56s.8,12,2.45,21.46C637.7,219.91,647.07,229.28,647.07,229.28Z" transform="translate(-1.27 -1.74)"></path><path class="cls-5" d="M68,58.25l-1.09-1.52a31.78,31.78,0,0,1,3.18-2.13l1,1.61A36.56,36.56,0,0,0,68,58.25Z" transform="translate(-1.27 -1.74)"></path><path class="cls-5" d="M558.11,381.5c-2.53,0-5.07-.11-7.48-.24l.11-1.87c2.43.15,4.92.22,7.48.24Zm7.48-.13V379.5c2.49-.13,5-.34,7.35-.62l.22,1.87c-2.41.24-4.92.47-7.46.6Zm-22.45-.75c-2.51-.28-5-.64-7.48-1l.32-1.87c2.39.41,4.86.77,7.33,1Zm37.42-1-.37-1.87c2.45-.49,4.85-1.09,7.15-1.76l.52,1.87a70.71,70.71,0,0,1-7.3,1.74Zm-52.25-1.5c-2.45-.58-4.9-1.25-7.26-2l.56-1.87c2.32.71,4.71,1.38,7.13,1.87ZM595,375.39l-.69-1.74a72.27,72.27,0,0,0,6.66-3.07l.86,1.65A73.56,73.56,0,0,1,595,375.39Zm-81-1.87c-2.34-.9-4.66-1.87-6.9-3l.8-1.68c2.21,1,4.51,2,6.79,2.94Zm94.36-5.29-1-1.55a71.08,71.08,0,0,0,5.89-4.42l1.2,1.44a72.4,72.4,0,0,1-6,4.6ZM500.42,367c-2.17-1.23-4.32-2.56-6.4-3.95l1-1.55c2.06,1.37,4.17,2.68,6.29,3.89ZM487.9,358.7c-1.87-1.52-3.91-3.12-5.82-4.79l1.23-1.4c1.87,1.65,3.74,3.22,5.72,4.71ZM620,358.61l-1.33-1.31c1.68-1.7,3.35-3.55,4.94-5.48L625,353a70.92,70.92,0,0,1-5.07,5.65Zm-143.4-9.78c-1.74-1.7-3.5-3.54-5.24-5.41l1.37-1.27c1.72,1.87,3.46,3.74,5.18,5.33Zm153-1.87L628,345.88c1.38-2,2.73-4.06,4-6.23l1.61,1c-1.33,2.28-2.69,4.42-4.1,6.44Zm-163.23-9.22c-1.55-1.87-3.14-3.74-4.75-5.82l1.48-1.16c1.59,2,3.16,4,4.71,5.78Zm171-3.74-1.67-.86c1.1-2.11,2.19-4.36,3.26-6.68l1.7.79c-1.09,2.47-2.19,4.75-3.31,6.88Zm-180.23-8q-2.23-3-4.4-6.08l1.53-1.09q2.17,3,4.38,6Zm186.54-5.61-1.74-.71c.9-2.23,1.87-4.56,2.68-7l1.76.64q-1.38,3.7-2.75,7.07Zm-195.22-6.66q-2.11-3.09-4.19-6.21l1.55-1q2.08,3.12,4.19,6.19Zm200.4-7.48-1.78-.6q1.18-3.52,2.28-7.11l1.87.54q-1.25,3.69-2.43,7.22Zm-208.72-5L435.93,295l1.55-1,4.15,6.27Zm213.16-9.35-1.87-.52q1-3.57,2-7.2l1.87.49q-1,3.7-2.08,7.3Zm-221.46-3.14q-2.1-3.11-4.23-6.19l1.53-1.07q2.13,3.09,4.23,6.21Zm225.39-11.36-1.87-.47q.94-3.61,1.87-7.26l1.87.45q-1,3.72-1.93,7.33Zm-233.85-1q-2.19-3-4.43-6l1.5-1.12q2.26,3,4.45,6Zm-9-11.92c-1.59-2-3.18-3.91-4.75-5.74l1.42-1.22c1.59,1.87,3.2,3.74,4.79,5.8Zm246.59-1.68-1.87-.45,1.87-7.28,1.87.45Zm-256.3-9.63c-1.7-1.87-3.46-3.65-5.18-5.35l1.31-1.33c1.76,1.72,3.52,3.55,5.24,5.41Zm259.91-4.9-1.87-.45q.9-3.63,1.87-7.26l1.87.47q-1.12,3.7-2,7.33ZM123.86,243.8c-2.51,0-5-.19-7.48-.41l.17-1.87c2.45.22,4.94.36,7.48.39Zm7.48-.13-.09-1.87c2.47-.13,4.94-.37,7.39-.67l.24,1.87c-2.53.39-5.07.62-7.58.77Zm262.55-.88c-1.87-1.66-3.74-3.27-5.61-4.81l1.18-1.46c1.87,1.55,3.85,3.18,5.72,4.86Zm-285.16-.22c-2.47-.41-5-.9-7.48-1.48l.43-1.87c2.39.56,4.85,1,7.28,1.46Zm37.55-.73L145.9,240a69,69,0,0,0,7.2-1.87l.52,1.87c-2.41.73-4.88,1.33-7.35,1.85ZM94,239.08c-2.39-.75-4.79-1.61-7.11-2.51l.69-1.74c2.28.9,4.64,1.72,7,2.47Zm66.75-1.25-.54-1.87,7.13-2.23.56,1.87Zm507.28-3.91-1.87-.47q1-3.63,1.87-7.26l1.87.51q-.92,3.57-1.87,7.2Zm-285.82-.36c-2-1.44-4.08-2.84-6.15-4.15l1-1.57c2.1,1.33,4.21,2.75,6.23,4.21ZM80,233.56c-2.26-1.09-4.51-2.26-6.68-3.52l.94-1.63c2.13,1.22,4.34,2.38,6.57,3.46Zm95.05-.22-.58-1.87,7.11-2.3.58,1.87Zm14.24-4.64-.58-1.87,7.11-2.32.58,1.87ZM66.88,226c-2.08-1.42-4.13-2.92-6.08-4.47L62,220.11c1.87,1.53,3.93,3,6,4.4Zm302.84-.37c-2.15-1.2-4.38-2.34-6.59-3.39l.8-1.68c2.24,1.09,4.51,2.24,6.68,3.44ZM203.5,224.1l-.56-1.87,7.2-2.11.56,1.87Zm14.27-4.42-.54-1.87q3.61-1.09,7.2-2.1l.51,1.87ZM672,219.51l-1.87-.52q1-3.61,2.15-7.18l1.87.56q-1,3.5-2.1,7.09Zm-315.66-.22c-2.06-.84-4.17-1.65-6.29-2.38l-.65-.22.62-1.78.49.17c2.32.8,4.47,1.63,6.55,2.47ZM55.11,216.59c-1.87-1.72-3.63-3.52-5.31-5.37L51.18,210a72.84,72.84,0,0,0,5.22,5.26Zm177.09-1-.49-1.87q3.65-1,7.28-1.87l.45,1.87q-3.61.92-7.24,1.87Zm110.17-1.23c-2.39-.73-4.79-1.4-7.17-2l.47-1.87c2.39.62,4.83,1.31,7.24,2ZM246.72,212l-.39-1.87q3.74-.8,7.35-1.5l.36,1.87q-3.67.69-7.31,1.5ZM328,210.59c-2.41-.52-4.88-1-7.31-1.4l.32-1.87c2.45.41,4.94.9,7.39,1.42Zm-66.58-1.31-.3-1.87c2.51-.39,5-.75,7.48-1l.22,1.87c-2.53.3-4.94.65-7.41,1Zm51.91-1.18c-2.47-.32-5-.56-7.48-.77l.15-1.87c2.47.21,5,.47,7.48.77Zm-37.14-.64-.17-1.87c2.51-.22,5-.39,7.48-.51V207c-2.24.06-4.83.3-7.31.51Zm22.3-.58q-3.26-.11-6.45-.11h-1V204.9h1q3.26,0,6.53.13ZM44.92,205.44c-1.53-2-3-4.06-4.38-6.15l1.57-1c1.35,2.06,2.79,4.08,4.3,6Zm631.58-.3-1.78-.6q1.2-3.57,2.45-7.09l1.76.64Q677.67,201.63,676.5,205.14ZM36.69,192.74c-1.2-2.21-2.3-4.49-3.29-6.79l1.72-.75c1,2.24,2.06,4.49,3.24,6.66Zm644.9-1.59-1.74-.69q1.38-3.52,2.86-7l1.72.75Q682.93,187.67,681.58,191.15ZM30.66,179c-.8-2.36-1.52-4.81-2.13-7.24l1.87-.45c.6,2.39,1.31,4.79,2.1,7.11Zm656.8-1.48-1.68-.8c1.1-2.32,2.23-4.58,3.37-6.73l1.65.88c-1.1,2.11-2.23,4.4-3.33,6.66Zm6.94-13.1-1.61-1c1.29-2.19,2.62-4.34,4-6.42l1.57,1c-1.37,2-2.68,4.08-3.95,6.27Zm-667.4,0q-.34-2-.6-4.06-.22-1.72-.39-3.42l1.87-.19q.17,1.68.37,3.39.24,2,.58,4ZM702.57,152l-1.5-1.1c1.5-2,3-4,4.64-5.89l1.44,1.2c-1.57,1.76-3.12,3.72-4.58,5.71ZM25.44,149.3c-.09-2.1-.15-4.21-.15-6.29v-1.25h1.87V143c0,2.06,0,4.13.15,6.19ZM712,140.55l-1.35-1.29c1.74-1.87,3.54-3.61,5.37-5.28l1.27,1.38c-1.76,1.65-3.54,3.39-5.26,5.18ZM27.46,134.37l-1.87-.13c.17-2.51.43-5,.77-7.48l1.87.24C27.89,129.42,27.65,131.9,27.46,134.37Zm695.48-3.84-1.16-1.46c1.87-1.55,4-3.07,6-4.49l1.07,1.53c-2,1.4-4,2.88-5.93,4.42Zm12.16-8.42-1-1.61c2.13-1.27,4.36-2.49,6.6-3.63l.84,1.66c-2.21,1.12-4.4,2.41-6.49,3.57ZM29.45,119.67l-1.87-.37c.51-2.47,1.09-4.94,1.76-7.33l1.87.51C30.55,114.82,30,117.22,29.45,119.67Zm3.95-14.29-1.76-.62c.84-2.36,1.76-4.73,2.77-7l1.76.77C35.13,100.74,34.29,103.06,33.39,105.38Zm5.93-13.58L37.68,91c1.18-2.23,2.43-4.42,3.74-6.55l1.59,1c-1.23,2-2.53,4.15-3.67,6.34Zm7.84-12.57-1.52-1.1c1.48-2,3-4,4.68-5.93l1.42,1.22c-1.57,1.87-3.11,3.84-4.56,5.84ZM56.76,68l-1.33-1.31c1.87-1.87,3.63-3.55,5.5-5.18l1.23,1.4c-1.81,1.53-3.55,3.24-5.43,5Z" transform="translate(-1.27 -1.74)"></path><path class="cls-5" d="M749.14,115.08l-.71-1.72q1.72-.73,3.52-1.4l.67,1.74Q750.8,114.37,749.14,115.08Z" transform="translate(-1.27 -1.74)"></path><circle class="cls-3" cx="69.26" cy="53.67" r="15.25"></circle><circle class="cls-3" cx="336.36" cy="209.26" r="15.25"></circle><circle class="cls-7" cx="751" cy="111.1" r="15.25"></circle><circle class="cls-3" cx="558.46" cy="381.86" r="15.25"></circle><path class="cls-8" d="M137.37,610.47a85.48,85.48,0,0,1-1.66,32.87,90.41,90.41,0,0,1-5,14.54c-2.62,6-5.35,11.88-4.7,18.46.64.43-1.55.36-1.61-.28-17.59-10-40.13-11.84-53.67-28.21-6.42-7.75-9.63-17.59-11.22-27.41-1.66-10.7-2.13-22.54.64-33.09,2.32-8.92,7.48-17.53,15.92-21.89s20-4.12,29.09-1.29C124.82,570.25,134.58,591.44,137.37,610.47Z" transform="translate(-1.27 -1.74)"></path><path class="cls-5" d="M146.39,740.64c-2.39-8-4.79-16-7.26-24-4.83-15.62-9.84-31.2-15.4-46.58q-5-13.83-10.53-27.39a166,166,0,0,1,2.1-17c1.48-6.81,3.61-13.39,5.61-20.07.13-.41-.54-.62-.71-.24-3.95,9.19-9.09,21-9.22,31.8q-6.44-15.34-13.83-30.25a129.57,129.57,0,0,1,.75-25.14.3.3,0,1,0-.6-.11h0a89.2,89.2,0,0,0-1.72,22.24q-5.61-11.22-12-22.09c-.37-.65-1.29,0-1,.65,6.6,12.72,12.74,25.72,18.48,38.87a84.62,84.62,0,0,0-27.54-16c-.43-.15-.77.49-.32.65a100.37,100.37,0,0,1,29.82,19.74q6.19,14.46,11.82,29.15c-11-10.79-26.06-17.88-40.63-21.68-.51-.13-.64.64-.15.77,16.84,5.07,29.93,14.63,42.77,26.19q2.23,5.93,4.38,11.9,8.14,22.6,15.51,45.48,3.55,11,7,21.94c2.45,7.89,4.38,16.22,7.58,23.83.3.73,1.61.56,1.44-.32A227.92,227.92,0,0,0,146.39,740.64Z" transform="translate(-1.27 -1.74)"></path><path class="cls-5" d="M117.22,595.07a43.72,43.72,0,0,0-6.34,15.79c0,.15.21.22.24,0A136.29,136.29,0,0,1,118,595.37C118.27,594.94,117.52,594.62,117.22,595.07Z" transform="translate(-1.27 -1.74)"></path><path class="cls-5" d="M85.85,631.68a46.34,46.34,0,0,0-15.79-5.31c-.15,0-.22.19,0,.24,2.54,1,5.2,1.87,7.76,2.77s5.11,2.3,7.63,3.14a.46.46,0,1,0,.39-.84Z" transform="translate(-1.27 -1.74)"></path><path class="cls-5" d="M77,587.63A31,31,0,0,0,72,584.48a.26.26,0,0,0-.24.43,31,31,0,0,0,5,3.26C77,588.38,77.32,587.85,77,587.63Z" transform="translate(-1.27 -1.74)"></path><path class="cls-8" d="M196.66,670.18c-12.67,3.74-25.41,7.24-38.05,10.94-1.1.34-22.45-40.69-14.78-61.83,7.15-19.57,23.53-34.2,43-40.84,9-3.07,20.17-5.61,29.71-3.54,8.49,1.87,14.5,8.83,17.25,16.84,3.74,10.85,2.51,23.82.47,34.89a61,61,0,0,1-12.46,28.47C215.1,663.09,206.52,667.23,196.66,670.18Z" transform="translate(-1.27 -1.74)"></path><path class="cls-5" d="M215,631.2A168.93,168.93,0,0,1,190.18,641a104.24,104.24,0,0,0-16.58,6c5.35-11.92,11.22-23.59,17.45-35.17,8.18-2.38,16.84-6.06,23-11.86a.36.36,0,0,0-.47-.52c-6.75,4.77-14.2,7.63-21.66,10.85q2.53-4.66,5.13-9.35c.49-.86-.71-1.72-1.29-.88a267.78,267.78,0,0,0-18,30.23,138.31,138.31,0,0,1-1.31-27.69.19.19,0,0,0-.37,0,92.21,92.21,0,0,0,.32,30.42c-4.43,8.87-8.49,17.94-12.12,27.15-1.44-5.61-3.33-11-4.58-16.54a76,76,0,0,1-1.87-24.32.19.19,0,1,0-.37,0,86.06,86.06,0,0,0,5.31,44.75c-2.11,5.61-4.13,11.09-6,16.65a332,332,0,0,0-16.84,87.93.54.54,0,0,0,1.07,0,435.78,435.78,0,0,1,18.88-86.84c3.74-11,7.89-21.76,12.53-32.29,7.48-2.21,15-5.2,22.28-7.76s14.52-5.35,20.58-10.06C215.53,631.44,215.27,631.07,215,631.2Z" transform="translate(-1.27 -1.74)"></path><path class="cls-5" d="M226.81,619.28c-7.75,2.75-15.08,6.6-22.82,9.35-.36.13-.15.71.21.64,8.19-1.68,16.31-4.23,22.9-9.6C227.38,619.52,227.09,619.19,226.81,619.28Z" transform="translate(-1.27 -1.74)"></path><path class="cls-5" d="M163.58,602.57c0-.41-.51-.65-.64-.22-2.13,7.15-3.59,14.72-1.52,22,0,.28.52.3.54,0C162.33,617,161.94,609.81,163.58,602.57Z" transform="translate(-1.27 -1.74)"></path><path class="cls-5" d="M195.57,586.07a18.91,18.91,0,0,0-3.37,12.14c0,.28.45.43.52.11.94-4.08,2.53-7.8,3.74-11.77a.52.52,0,0,0-.9-.49Z" transform="translate(-1.27 -1.74)"></path><path class="cls-8" d="M46,688.29c3.74,11.79,12.53,28.06,26.51,28.21,9.05,0,18.18-1,27.26-1.12,9.73-.15,19.47-.13,29.17.45.79,0-1.16-29.11-24.53-43.31-6.55-4-14.55-5.24-22-6.85a101.77,101.77,0,0,0-26-2.71c-5.37.21-9.82,1.35-11.75,6.85S44.23,682.68,46,688.29Z" transform="translate(-1.27 -1.74)"></path><path class="cls-5" d="M56,673.53c5.61,1.46,11.41,3.14,17.1,4.94a59.74,59.74,0,0,0-4.71-4.6,80.56,80.56,0,0,0-7.76-5.44c-.22-.15,0-.58.19-.47a32,32,0,0,1,13.79,11c7.11,2.3,14.14,4.83,20.92,7.61A78.69,78.69,0,0,1,109,693.59a54,54,0,0,0-4.85-8.44c-3.11-4-7.3-6.27-11.36-9.11a.36.36,0,0,1,.36-.62h0a33.23,33.23,0,0,1,18.24,19.87,77.81,77.81,0,0,1,13.26,12c15.45,17.57,27.63,40.93,27.69,64.77,0,.56-.92.73-1,.13a132.15,132.15,0,0,0-29.48-63.33c-1.1-1.29-2.24-2.53-3.4-3.74a106.45,106.45,0,0,0-12.78-1c-5,0-9.92.73-14.87,1.14-8.16.65-17.17.77-24.54-3.35-.32-.19-.11-.75.26-.62,16.41,6,33.67-1.61,50,1.87A76.83,76.83,0,0,0,92.17,687.6l-1.52-.6c-10.53,1.27-21.65,4-31.8.58a.25.25,0,1,1,.13-.49h0c9.92,2.47,19.4-.64,29.18-1.14-10.64-4.15-21.5-7.48-32.18-11.56C55.11,674.11,55.08,673.29,56,673.53Z" transform="translate(-1.27 -1.74)"></path><path class="cls-5" d="M51.41,683.9a141.14,141.14,0,0,0,15.32,1.16.1.1,0,0,1,0,.21,31.8,31.8,0,0,1-15.45-1,.21.21,0,0,1,.13-.37Z" transform="translate(-1.27 -1.74)"></path><path class="cls-5" d="M86,673.8a25.11,25.11,0,0,1,7.58,5.28.32.32,0,0,1-.39.51c-1.29-.94-2.6-1.87-3.95-2.68a37.29,37.29,0,0,1-3.74-2.34C85.23,674.26,85.61,673.65,86,673.8Z" transform="translate(-1.27 -1.74)"></path><path class="cls-8" d="M168.54,711.74c-.17.39.39.75.6.34h0a.54.54,0,0,0,.36.24,234.94,234.94,0,0,0,28.55,5c7.73.69,16.63,1.12,23.4-3.37,9.17-6.08,15.19-22.32,10.23-32.65-5.86-12.25-23.52-5.61-32.38-1.25A65,65,0,0,0,168.54,711.74Z" transform="translate(-1.27 -1.74)"></path><path class="cls-5" d="M161.67,717.4a91.16,91.16,0,0,1,17-13A58.33,58.33,0,0,1,196,686.8c.34-.22.62.3.32.54a78.09,78.09,0,0,0-14.57,15.32,160.64,160.64,0,0,1,21.38-9.73,28.47,28.47,0,0,1,11.49-11.51c.09,0,.22,0,.13.15a47.16,47.16,0,0,0-10.38,10.89c4.34-1.63,8.74-3.12,13.1-4.58.39-.13.54.47.17.62-7.8,3-15.79,6.27-23.53,10a90.57,90.57,0,0,0,28.49,0,.21.21,0,0,1,.11.41,56.12,56.12,0,0,1-30.23.45,141.7,141.7,0,0,0-14.33,8,35.9,35.9,0,0,1,11.58,1,88.13,88.13,0,0,0,20.43,2.23.23.23,0,0,1,0,.47c-11.82,2-23-3.33-34.7-1.87a90.61,90.61,0,0,0-12.2,10,91.67,91.67,0,0,0-17.79,25.09c-4.92,10-7.6,20.58-11.58,31a.38.38,0,1,1-.73-.21C136.6,754.52,146.78,732,161.67,717.4Z" transform="translate(-1.27 -1.74)"></path><path class="cls-5" d="M197.31,689.38a13.47,13.47,0,0,1,3-3.74,11.94,11.94,0,0,1,3.48-2.62c.11,0,.19.11.11.19-1,1.1-2.32,1.87-3.37,3s-1.87,2.3-3,3.35a.17.17,0,0,1-.26-.13Z" transform="translate(-1.27 -1.74)"></path><path class="cls-5" d="M216.79,695.72c1.76-.43,3.61-.41,5.39-.77a51,51,0,0,0,5.22-1.57.21.21,0,0,1,.17.37,17.34,17.34,0,0,1-10.78,2.51.28.28,0,0,1,0-.54Z" transform="translate(-1.27 -1.74)"></path><polygon class="cls-10" points="111.73 748.03 113.28 765.65 118.56 825.11 165.12 825.11 171.69 765.65 173.63 748.03 111.73 748.03"></polygon><polygon class="cls-5" points="111.73 748.03 113.28 765.65 171.69 765.65 173.63 748.03 111.73 748.03"></polygon><rect class="cls-10" x="107.11" y="743.22" width="71.13" height="14.29"></rect><path class="cls-13" d="M589,825.89c3.74,1.22,110.88-.17,114.92-2.82,1.55-1,2.26-16.59,2.58-35.54V787c0-3.89.13-7.91.13-12V773.3l-5.18-55.56-71.65.71,7.07,55.06v2.19l.43,11.39v1.18s-40.76,18.88-44.9,22.24S585.26,824.69,589,825.89Z" transform="translate(-1.27 -1.74)"></path><path class="cls-2" d="M589,825.89c3.74,1.22,110.88-.17,114.92-2.82,1.55-1,2.26-16.59,2.58-35.54V787c0-3.89.13-7.91.13-12V773.3l-69.78.19v2.19l.43,11.39v1.18s-40.76,18.88-44.9,22.24S585.26,824.69,589,825.89Z" transform="translate(-1.27 -1.74)"></path><path class="cls-8" d="M589,825.89c1.87.62,31,.56,59.49,0,5.72-.11,11.41-.24,16.84-.39,20.28-.56,37-1.38,38.61-2.41s2.24-16.16,2.56-34.7V787h0l-69,.13v1.18s-40.76,18.86-44.9,22.24S585.26,824.69,589,825.89Z" transform="translate(-1.27 -1.74)"></path><path class="cls-5" d="M590.18,821.72c18.05-.67,90.92-1.7,108.82-1,.15,0,.15.11,0,.11-17.88,1.07-90.75,1.5-108.82,1.18C589.8,822,589.8,821.74,590.18,821.72Z" transform="translate(-1.27 -1.74)"></path><path class="cls-5" d="M629.71,787.39c7.09-1.42,15.79-.45,21.29,4.55.21.19,0,.49-.3.43a99.88,99.88,0,0,0-21-4.08.45.45,0,0,1,0-.9Z" transform="translate(-1.27 -1.74)"></path><path class="cls-5" d="M624.62,790.55c7.09-1.42,15.79-.45,21.29,4.55.21.19,0,.49-.3.43a99.94,99.94,0,0,0-21-4.08.45.45,0,0,1,0-.9Z" transform="translate(-1.27 -1.74)"></path><path class="cls-5" d="M619.53,793.71c7.09-1.42,15.79-.45,21.29,4.55.21.19,0,.49-.3.43a99.9,99.9,0,0,0-21-4.08.45.45,0,0,1,0-.9Z" transform="translate(-1.27 -1.74)"></path><path class="cls-5" d="M648.49,825.87c5.72-.11,11.41-.24,16.84-.39,20.28-.56,37-1.38,38.61-2.41s2.24-16.16,2.56-34.7V787h0C697,793.6,663.64,815.79,648.49,825.87Z" transform="translate(-1.27 -1.74)"></path><path class="cls-11" d="M632.7,787.33h77.13s-15.53-180.19-15-183.34c.77-4,5.33-22.26,11.39-46.1,1.87-7.48,3.95-15.45,6.08-23.74,5.74-22.45,12.09-46.92,17.62-68.23,8.29-31.93,14.76-56.74,14.76-56.74H679.38s-7.61,24.15-17.23,55.58c-15.64,51.07-36.56,121.38-38.63,138.44C620.18,630.84,632.7,787.33,632.7,787.33Z" transform="translate(-1.27 -1.74)"></path><path class="cls-5" d="M636.1,774.18c11.79-.24,8.4-.34,20.19-.45,5.76,0,43.66-.39,49.05.51a.13.13,0,0,1,0,.24c-5.39.9-43.29.56-49.05.51-11.79-.11-8.4-.21-20.19-.45a.18.18,0,1,1,0-.36Z" transform="translate(-1.27 -1.74)"></path><path class="cls-5" d="M680.41,593c2.53-11.22,6.3-22.08,9.6-33q10-33.36,20.19-66.69,5.07-16.67,10.18-33.32,2.58-8.4,5.2-16.84c1.72-5.48,3.74-10.91,5.22-16.43.64-2.24,1-1,.17,1.87-1.63,5.76-3.24,11.51-4.92,17.25q-5,17-10,34.09-10.1,33.92-20.24,67.76-5.09,17-10.21,34A139.09,139.09,0,0,0,681.38,598a75.69,75.69,0,0,0-.67,17.57c.75,11.8,2.11,23.59,3.2,35.36l3.29,35.4q3.26,35.23,6.45,70.45c.26,3,.52,5.95.77,8.94,0,1-1.42.92-1.53,0-2.54-23.22-4.49-46.53-6.68-69.78s-4.34-46.28-6.51-69.42c-.54-5.82-1.16-11.64-1.16-17.47A72.12,72.12,0,0,1,680.41,593Z" transform="translate(-1.27 -1.74)"></path><path class="cls-5" d="M686.8,409.19c4.55,35.11,13.19,101,19.49,148.73C721,500,744.76,409.19,744.76,409.19Z" transform="translate(-1.27 -1.74)"></path><path class="cls-13" d="M670.75,826.92c3.74,1.23,110.88.22,114.92-2.39,1.55-1,2.32-16.59,2.69-35.54v-.6c0-3.89.15-7.91.17-12v-1.68c.24-27.28-1.72-55.56-1.72-55.56l-70,.45,1.87,55.06v2.19l.39,11.39v1.18s-40.84,18.71-44.9,22.08S667,825.7,670.75,826.92Z" transform="translate(-1.27 -1.74)"></path><path class="cls-2" d="M670.75,826.92c3.74,1.23,110.88.22,114.92-2.39,1.55-1,2.32-16.59,2.69-35.54v-.6c0-3.89.15-7.91.17-12v-1.68H718.76v2.19l.39,11.39v1.18s-40.84,18.71-44.9,22.08S667,825.7,670.75,826.92Z" transform="translate(-1.27 -1.74)"></path><path class="cls-8" d="M670.75,826.92c3.74,1.23,110.88.22,114.92-2.39,1.55-1,2.32-16.59,2.69-35.54v-.6l-69.13-.13v1.18s-40.84,18.71-44.9,22.08S667,825.7,670.75,826.92Z" transform="translate(-1.27 -1.74)"></path><path class="cls-5" d="M671.91,822.75c18.05-.62,90.92-1.37,108.82-.6.15,0,.15.11,0,.11-17.88,1-90.75,1.18-108.82.79C671.54,823,671.54,822.77,671.91,822.75Z" transform="translate(-1.27 -1.74)"></path><path class="cls-5" d="M711.52,788.59c7.09-1.38,15.79-.37,21.27,4.62.21.19,0,.49-.3.43a99.9,99.9,0,0,0-21-4.15.45.45,0,0,1,0-.9Z" transform="translate(-1.27 -1.74)"></path><path class="cls-5" d="M706.47,791.71c7.09-1.38,15.79-.37,21.27,4.62.21.19,0,.49-.3.43a99.92,99.92,0,0,0-20.93-4.19.45.45,0,0,1,0-.86Z" transform="translate(-1.27 -1.74)"></path><path class="cls-5" d="M701.38,794.85c7.09-1.38,15.79-.37,21.27,4.62.21.19,0,.49-.3.43a99.88,99.88,0,0,0-20.93-4.15.45.45,0,0,1,0-.9Z" transform="translate(-1.27 -1.74)"></path><path class="cls-11" d="M681.58,409.19s1.52,31.28,8.66,56.12c.58,2,1.2,4.06,1.87,6A116.31,116.31,0,0,1,711,481s.75,25.16,1.52,53.24c.84,31.37,1.7,66.38,1.52,73.8-.65,27.78,3.48,180.49,3.48,180.49l77.13.32s-13.94-170.54-13.84-180.72c.15-16.35-3.74-88.64-6.73-141.36-1.87-32.48-3.35-57.51-3.35-57.51Z" transform="translate(-1.27 -1.74)"></path><path class="cls-5" d="M720,774.74c11.79-.19,8.4-.3,20.19-.37,5.76,0,43.66-.21,49.05.71a.13.13,0,0,1,0,.24c-5.39.86-43.29.37-49.05.3-11.79-.17-8.4-.24-20.19-.54a.17.17,0,0,1,0-.34Z" transform="translate(-1.27 -1.74)"></path><path class="cls-5" d="M764.1,420.29c1.42,43,2.92,86.06,4.85,129.08s4.53,86.3,8.14,129.36c2,24.06,3.93,57.88,6.51,81.88,0,.17-.22.22-.24,0-5.61-42.69-8.76-95.41-11.51-138.44s-4.64-86.06-6.1-129c-.82-24.32-1.46-48.64-2.19-73C763.56,420,764.09,420,764.1,420.29Z" transform="translate(-1.27 -1.74)"></path><path class="cls-5" d="M688.82,469.37a143.23,143.23,0,0,1,22.06,11.54.26.26,0,0,1-.22.45c-7.48-3.61-15-7.09-22.26-11.11a.51.51,0,0,1,.43-.88Z" transform="translate(-1.27 -1.74)"></path><path class="cls-5" d="M688.39,442.85c.51,2.75,1.18,5.46,1.76,8.18s1,5.16,1.65,7.69a13.1,13.1,0,0,0,3.59,6.45c1,.94,2.11,1.76,3.18,2.62.58.47,1.2.9,1.87,1.37a8.13,8.13,0,0,0-.21-1.1q-.28-1.55-.52-3.12-.58-3.46-1.1-6.94c-.69-4.55-1.33-9.15-2.28-13.66a.15.15,0,0,1,.28,0c1.14,4.47,2.38,8.89,3.37,13.38.49,2.21,2.21,13.1,2.28,13.88s.15,1.59.17,2.39a9.52,9.52,0,0,1,0,2.45c0,.21-.28.17-.37,0h0a9.64,9.64,0,0,1-.69-2.38c-.21-.79-.37-1.57-.52-2.36a2,2,0,0,0-.13-.86c-1.07-.65-2.08-1.52-3.07-2.24s-2.19-1.55-3.2-2.41a12.29,12.29,0,0,1-3.91-6.12,44.58,44.58,0,0,1-1.29-7.84c-.36-3.11-.6-6.21-1-9.35C688.08,442.73,688.36,442.73,688.39,442.85Z" transform="translate(-1.27 -1.74)"></path><path class="cls-13" d="M723,328.49c-10.66,17.74-56.12,56.12-72.12,57-11.58.65-51.78-31.13-62.58-42.3-10.42-10.78,27.37-40.09,33.92-34.18,9.24,8.34,29.48,32.35,34,33.11,3.14.54,22.45-8.53,52.38-25.63C725.27,307,729.38,317.9,723,328.49Z" transform="translate(-1.27 -1.74)"></path><path class="cls-13" d="M608.62,292.12c-6.45-3.63-13.54-8.32-21.21-9.5s-15.77,7.78-16.28,10.66-.79,21.4,6.85,22.73,5.44-13.3,6-14.84,1.22-3.52,2.62-3.11,24.53,16.84,24.53,16.84Z" transform="translate(-1.27 -1.74)"></path><path class="cls-13" d="M608,293.07c-.43,0-19.47-11.73-27.15-12.93s-15.77,7.78-16.28,10.66-.79,21.4,6.85,22.73,5.44-13.3,6-14.84,1.22-3.52,2.62-3.11,24.53,16.84,24.53,16.84Z" transform="translate(-1.27 -1.74)"></path><path class="cls-5" d="M574.24,313a9.2,9.2,0,0,0,2.06-4.28,15.94,15.94,0,0,0,.58-4.92,26.6,26.6,0,0,1-.19-4.36,8.55,8.55,0,0,1,1.78-3.85c.79-1,1.87-.41,2.73.11a38.61,38.61,0,0,1,3.74,2.6c1.33,1,2.64,2,4,3a40.13,40.13,0,0,1,4,3.22s0,.26-.13.19a41.55,41.55,0,0,1-3.57-2.41q-2-1.4-4-2.77c-1.25-.84-2.47-1.76-3.74-2.58-.45-.3-1.33-1-1.87-1s-1.14,1.4-1.37,1.87a7.28,7.28,0,0,0-.47,4.17,21.9,21.9,0,0,1,0,4.32,11.22,11.22,0,0,1-1,3.93,15.94,15.94,0,0,1-2.39,3C574.33,313.35,574.13,313.15,574.24,313Z" transform="translate(-1.27 -1.74)"></path><path class="cls-13" d="M628.75,317.39s-17.77-23-21.51-27.59c-7.48-9.24-42-31-47.13-32.42s-8.83,8.85,14.5,24.32c12.29,8.16,13.32,16.2,12.33,20.37s-6.42,11.36-13.49,9.92-9.86-12.63-16.2-15-4.12,10.42-.71,18.15a44.24,44.24,0,0,0,16.54,18.32c5.74,3.39,23.33,15,23.33,15Z" transform="translate(-1.27 -1.74)"></path><path class="cls-5" d="M565.59,305.42c2.32,2.54,4.88,5.76,8.38,6.51s6.4-1.18,8.61-3.85a13.68,13.68,0,0,0,3.59-9.5,16.84,16.84,0,0,0-3.48-8.83,40.75,40.75,0,0,0-8.51-8.1c-.13-.11,0-.3.19-.21,3,2,12.46,8,12.91,17.32a14,14,0,0,1-3.74,9.67c-2.08,2.54-4.85,4.88-8.34,4.56-4.27-.39-7.28-4.45-9.84-7.48C565.16,305.34,565.39,305.29,565.59,305.42Z" transform="translate(-1.27 -1.74)"></path><path class="cls-8" d="M623,309.63l-29.33,52.83s43.8,25.82,58,24.41S707,352,723.15,330.11c9.82-13.32,2.92-24.6-16.22-14.63-19.66,10.25-47.26,24.32-49.22,24.71S623,309.63,623,309.63Z" transform="translate(-1.27 -1.74)"></path><path class="cls-7" d="M653.52,348.32a13.32,13.32,0,0,1-1.12,3.61,13.1,13.1,0,0,1-2,3.2,13.1,13.1,0,0,1,1.12-3.61A13.36,13.36,0,0,1,653.52,348.32Z" transform="translate(-1.27 -1.74)"></path><path class="cls-7" d="M614.14,336.51a13.34,13.34,0,0,1-1.12,3.61,13.1,13.1,0,0,1-2,3.2,13.1,13.1,0,0,1,1.12-3.61A13.36,13.36,0,0,1,614.14,336.51Z" transform="translate(-1.27 -1.74)"></path><path class="cls-7" d="M694.4,328a13.34,13.34,0,0,1-1.12,3.61,13.1,13.1,0,0,1-2,3.2,13.1,13.1,0,0,1,1.12-3.61A13.36,13.36,0,0,1,694.4,328Z" transform="translate(-1.27 -1.74)"></path><path class="cls-7" d="M650.38,376.86a13.34,13.34,0,0,1-3.61-1.12,13.1,13.1,0,0,1-3.2-2,13.1,13.1,0,0,1,3.61,1.12A13.34,13.34,0,0,1,650.38,376.86Z" transform="translate(-1.27 -1.74)"></path><path class="cls-7" d="M607.18,361.79a13.36,13.36,0,0,1-3.61-1.12,13.1,13.1,0,0,1-3.2-2,13.1,13.1,0,0,1,3.61,1.12A13.34,13.34,0,0,1,607.18,361.79Z" transform="translate(-1.27 -1.74)"></path><path class="cls-7" d="M626.77,320.29a13.36,13.36,0,0,1-3.61-1.12,13.1,13.1,0,0,1-3.2-2,13.1,13.1,0,0,1,3.61,1.12A13.34,13.34,0,0,1,626.77,320.29Z" transform="translate(-1.27 -1.74)"></path><path class="cls-7" d="M675.24,343.3a13.36,13.36,0,0,1,1.76,3.35,13.1,13.1,0,0,1,.84,3.74,13.1,13.1,0,0,1-1.76-3.35A13.36,13.36,0,0,1,675.24,343.3Z" transform="translate(-1.27 -1.74)"></path><path class="cls-7" d="M629.54,351.76a13.36,13.36,0,0,1,1.76,3.35,13.1,13.1,0,0,1,.84,3.74,13.1,13.1,0,0,1-1.76-3.35A13.36,13.36,0,0,1,629.54,351.76Z" transform="translate(-1.27 -1.74)"></path><path class="cls-7" d="M710.54,330.19a13.36,13.36,0,0,1,1.76,3.35,13.1,13.1,0,0,1,.84,3.74,13.1,13.1,0,0,1-1.76-3.35A13.34,13.34,0,0,1,710.54,330.19Z" transform="translate(-1.27 -1.74)"></path><path class="cls-7" d="M695.69,355a13.36,13.36,0,0,1,3.35-1.76,13.1,13.1,0,0,1,3.74-.84,13.1,13.1,0,0,1-3.35,1.76A13.34,13.34,0,0,1,695.69,355Z" transform="translate(-1.27 -1.74)"></path><path class="cls-7" d="M634.61,336.1a13.36,13.36,0,0,1,3.35-1.76,13.1,13.1,0,0,1,3.74-.84,13.1,13.1,0,0,1-3.35,1.76A13.34,13.34,0,0,1,634.61,336.1Z" transform="translate(-1.27 -1.74)"></path><path class="cls-7" d="M664.34,365.68a13.36,13.36,0,0,1,3.35-1.76,13.1,13.1,0,0,1,3.74-.84,13.1,13.1,0,0,1-3.35,1.76A13.34,13.34,0,0,1,664.34,365.68Z" transform="translate(-1.27 -1.74)"></path><path class="cls-7" d="M618.31,373.2a13.34,13.34,0,0,1,3.35-1.76,13.1,13.1,0,0,1,3.74-.84,13.1,13.1,0,0,1-3.35,1.76A13.34,13.34,0,0,1,618.31,373.2Z" transform="translate(-1.27 -1.74)"></path><path class="cls-5" d="M620.05,343.77c1.87-4,9.47-20.11,11-24.32,0,0,0-.13-.11,0-2.26,3.74-10.2,19.33-12.12,23.35A242.55,242.55,0,0,0,608,367.12c0,.15.17.3.26.15C612.74,359.73,616.27,351.68,620.05,343.77Z" transform="translate(-1.27 -1.74)"></path><path class="cls-5" d="M723.17,330.11c-13.1,17.74-42.64,43-60.89,52.79l56-71.09h0C728.35,310.9,730.69,319.9,723.17,330.11Z" transform="translate(-1.27 -1.74)"></path><path class="cls-8" d="M778.62,455.66c-.28.28-113.29-7.48-114.25-8.7-1.33-1.74,34.44-116.59,43.4-133.46,3.74-7.18,22.09-8.23,29.32-1.42,18.09,17,30.68,72,33.32,88.51C774.82,427.77,779.63,454.67,778.62,455.66Z" transform="translate(-1.27 -1.74)"></path><path class="cls-7" d="M724.74,344.93a13.34,13.34,0,0,1-1.12,3.61,13.1,13.1,0,0,1-2,3.2,13.1,13.1,0,0,1,1.12-3.61A13.34,13.34,0,0,1,724.74,344.93Z" transform="translate(-1.27 -1.74)"></path><path class="cls-7" d="M711.8,391.64a13.34,13.34,0,0,1-1.12,3.61,13.1,13.1,0,0,1-2,3.2,13.1,13.1,0,0,1,1.12-3.61A13.36,13.36,0,0,1,711.8,391.64Z" transform="translate(-1.27 -1.74)"></path><path class="cls-7" d="M699,442.47a13.36,13.36,0,0,1-1.12,3.61,13.1,13.1,0,0,1-2,3.2,13.19,13.19,0,0,1,1.12-3.61A13.34,13.34,0,0,1,699,442.47Z" transform="translate(-1.27 -1.74)"></path><path class="cls-7" d="M751.23,380.47a13.36,13.36,0,0,1-1.12,3.61,13.1,13.1,0,0,1-2,3.2,13.1,13.1,0,0,1,1.12-3.61A13.36,13.36,0,0,1,751.23,380.47Z" transform="translate(-1.27 -1.74)"></path><path class="cls-7" d="M767.64,413.64a13.34,13.34,0,0,1-1.12,3.61,13.1,13.1,0,0,1-2,3.2,13.1,13.1,0,0,1,1.12-3.61A13.36,13.36,0,0,1,767.64,413.64Z" transform="translate(-1.27 -1.74)"></path><path class="cls-7" d="M723.17,432.09A13.34,13.34,0,0,1,722,435.7a13.1,13.1,0,0,1-2,3.2,13.1,13.1,0,0,1,1.12-3.61A13.36,13.36,0,0,1,723.17,432.09Z" transform="translate(-1.27 -1.74)"></path><path class="cls-7" d="M689.67,371.91a13.34,13.34,0,0,1-1.12,3.61,13.1,13.1,0,0,1-2,3.2,13.19,13.19,0,0,1,1.12-3.61A13.36,13.36,0,0,1,689.67,371.91Z" transform="translate(-1.27 -1.74)"></path><path class="cls-7" d="M738.25,365.94a13.36,13.36,0,0,1-3.61-1.12,13.1,13.1,0,0,1-3.2-2,13.1,13.1,0,0,1,3.61,1.12A13.34,13.34,0,0,1,738.25,365.94Z" transform="translate(-1.27 -1.74)"></path><path class="cls-7" d="M748.5,407.19a13.34,13.34,0,0,1-3.61-1.12,13.1,13.1,0,0,1-3.2-2,13.1,13.1,0,0,1,3.61,1.12A13.34,13.34,0,0,1,748.5,407.19Z" transform="translate(-1.27 -1.74)"></path><path class="cls-7" d="M743.06,453.38l-2-.13-.77-.34a13.68,13.68,0,0,1-3.2-2A13.1,13.1,0,0,1,740.7,452,14.14,14.14,0,0,1,743.06,453.38Z" transform="translate(-1.27 -1.74)"></path><path class="cls-7" d="M700.82,414.39a13.36,13.36,0,0,1-3.61-1.12,13.1,13.1,0,0,1-3.2-2,13.1,13.1,0,0,1,3.61,1.12A13.34,13.34,0,0,1,700.82,414.39Z" transform="translate(-1.27 -1.74)"></path><path class="cls-7" d="M738.25,330.23a13.36,13.36,0,0,1-3.61-1.12,13.1,13.1,0,0,1-3.2-2,13.1,13.1,0,0,1,3.61,1.12A13.34,13.34,0,0,1,738.25,330.23Z" transform="translate(-1.27 -1.74)"></path><path class="cls-7" d="M748.37,336.23a13.36,13.36,0,0,1,1.76,3.35,13.1,13.1,0,0,1,.84,3.74,13.1,13.1,0,0,1-1.76-3.35A13.36,13.36,0,0,1,748.37,336.23Z" transform="translate(-1.27 -1.74)"></path><path class="cls-7" d="M763.52,389a13.36,13.36,0,0,1,1.76,3.35,13.1,13.1,0,0,1,.84,3.74,13.1,13.1,0,0,1-1.76-3.35A13.36,13.36,0,0,1,763.52,389Z" transform="translate(-1.27 -1.74)"></path><path class="cls-7" d="M762.21,436.54a13.36,13.36,0,0,1,1.76,3.35,13.19,13.19,0,0,1,.84,3.74,13.1,13.1,0,0,1-1.76-3.35A13.36,13.36,0,0,1,762.21,436.54Z" transform="translate(-1.27 -1.74)"></path><path class="cls-7" d="M708.47,366.71a13.36,13.36,0,0,1,1.76,3.35,13.1,13.1,0,0,1,.84,3.74,13.1,13.1,0,0,1-1.76-3.35A13.36,13.36,0,0,1,708.47,366.71Z" transform="translate(-1.27 -1.74)"></path><path class="cls-7" d="M724.93,409.4a13.34,13.34,0,0,1,1.76,3.35,13.1,13.1,0,0,1,.84,3.74,13.1,13.1,0,0,1-1.76-3.35A13.34,13.34,0,0,1,724.93,409.4Z" transform="translate(-1.27 -1.74)"></path><path class="cls-7" d="M680.2,426.81a13.34,13.34,0,0,1,1.76,3.35,13.1,13.1,0,0,1,.84,3.74,13.1,13.1,0,0,1-1.76-3.35A13.34,13.34,0,0,1,680.2,426.81Z" transform="translate(-1.27 -1.74)"></path><path class="cls-7" d="M710.54,330.19a13.36,13.36,0,0,1,1.76,3.35,13.1,13.1,0,0,1,.84,3.74,13.1,13.1,0,0,1-1.76-3.35A13.34,13.34,0,0,1,710.54,330.19Z" transform="translate(-1.27 -1.74)"></path><path class="cls-7" d="M695.69,355a13.36,13.36,0,0,1,3.35-1.76,13.1,13.1,0,0,1,3.74-.84,13.1,13.1,0,0,1-3.35,1.76A13.34,13.34,0,0,1,695.69,355Z" transform="translate(-1.27 -1.74)"></path><path class="cls-7" d="M741.24,429.41a13.36,13.36,0,0,1,3.35-1.76,13.1,13.1,0,0,1,3.74-.84,13.1,13.1,0,0,1-3.35,1.76A13.34,13.34,0,0,1,741.24,429.41Z" transform="translate(-1.27 -1.74)"></path><path class="cls-7" d="M681.25,397.5a13.34,13.34,0,0,1,3.35-1.76,13.1,13.1,0,0,1,3.74-.84,13.1,13.1,0,0,1-3.35,1.76A13.34,13.34,0,0,1,681.25,397.5Z" transform="translate(-1.27 -1.74)"></path><path class="cls-7" d="M760.34,359a14.48,14.48,0,0,1-2.81,1.38,13.39,13.39,0,0,1-3.74.84,13.36,13.36,0,0,1,3.35-1.76,13.75,13.75,0,0,1,3-.77A1.4,1.4,0,0,1,760.34,359Z" transform="translate(-1.27 -1.74)"></path><path class="cls-7" d="M706.15,429.41a13.36,13.36,0,0,1,3.35-1.76,13.1,13.1,0,0,1,3.74-.84,13.1,13.1,0,0,1-3.35,1.76A13.36,13.36,0,0,1,706.15,429.41Z" transform="translate(-1.27 -1.74)"></path><path class="cls-7" d="M723.17,383.08a13.36,13.36,0,0,1,3.35-1.76,13.1,13.1,0,0,1,3.74-.84,13.1,13.1,0,0,1-3.35,1.76A13.34,13.34,0,0,1,723.17,383.08Z" transform="translate(-1.27 -1.74)"></path><path class="cls-5" d="M707.1,315.35h0c-.67,5.11-1.87,17,6.21,16.84a17.16,17.16,0,0,0,9-3.74,45.38,45.38,0,0,0,7.3-6.45,66.64,66.64,0,0,0,7-8.46c0-.13.28,0,.19.15-2.11,3-3.93,6.15-6.34,8.94a39.4,39.4,0,0,1-7.89,7.15,17.1,17.1,0,0,1-9.5,3.57,6.51,6.51,0,0,1-6.27-5.35A28.72,28.72,0,0,1,707.1,315.35Z" transform="translate(-1.27 -1.74)"></path><polygon class="cls-2" points="625.43 477.31 694.39 470.5 653.47 385.23 584.51 392.02 625.43 477.31"></polygon><polygon class="cls-14" points="620.72 477.76 689.65 470.96 648.74 385.69 579.8 392.49 620.72 477.76"></polygon><path class="cls-15" d="M642.69,388.16a6.14,6.14,0,0,0,3.35,3.31c.69.28.79-.6.09-.86a4.58,4.58,0,0,1-2.23-2.08,4.73,4.73,0,0,1-.21-.47,3.26,3.26,0,0,1-.26-1.66,1.09,1.09,0,0,1,.32-.64h.13a.84.84,0,0,1,.49,0,1.87,1.87,0,0,1,.84.43,4.17,4.17,0,0,1,.79.86,5.73,5.73,0,0,1,.36.49v.11a.73.73,0,0,1,.09.17v.11l1-.09a7.24,7.24,0,0,0-1.1-1.61,3.74,3.74,0,0,0-2.81-1.42,1.52,1.52,0,0,0-1.4,1.55A4,4,0,0,0,642.69,388.16Z" transform="translate(-1.27 -1.74)"></path><path class="cls-15" d="M637.28,388.69a6.14,6.14,0,0,0,3.31,3.31c.69.28.79-.6.09-.86a4.58,4.58,0,0,1-2.23-2.08,4.76,4.76,0,0,1-.21-.47,3.26,3.26,0,0,1-.26-1.66,1.09,1.09,0,0,1,.32-.64h.13a.84.84,0,0,1,.49,0,1.87,1.87,0,0,1,.84.43,4.19,4.19,0,0,1,.79.86,5.62,5.62,0,0,1,.36.49v.11a.73.73,0,0,1,.09.17v.11l1-.09a7.24,7.24,0,0,0-1.1-1.61,3.74,3.74,0,0,0-2.81-1.42,1.52,1.52,0,0,0-1.4,1.55A4,4,0,0,0,637.28,388.69Z" transform="translate(-1.27 -1.74)"></path><path class="cls-15" d="M631.9,389.23a6.14,6.14,0,0,0,3.31,3.31c.69.28.79-.6.09-.86a4.58,4.58,0,0,1-2.23-2.08,4.76,4.76,0,0,1-.21-.47,3.26,3.26,0,0,1-.26-1.66,1.09,1.09,0,0,1,.32-.64h.13a.84.84,0,0,1,.49,0,1.87,1.87,0,0,1,.84.43,4.17,4.17,0,0,1,.79.86,5.62,5.62,0,0,1,.36.49v.11a.73.73,0,0,1,.09.17V389l1-.09a7.26,7.26,0,0,0-1.1-1.61,3.74,3.74,0,0,0-2.81-1.42,1.52,1.52,0,0,0-1.4,1.55A4,4,0,0,0,631.9,389.23Z" transform="translate(-1.27 -1.74)"></path><path class="cls-15" d="M626.49,389.75a6.14,6.14,0,0,0,3.31,3.31c.69.28.79-.6.09-.86a4.58,4.58,0,0,1-2.23-2.08,4.8,4.8,0,0,1-.21-.47,3.26,3.26,0,0,1-.26-1.66,1.09,1.09,0,0,1,.32-.64h.13a.84.84,0,0,1,.49,0,1.87,1.87,0,0,1,.84.43,4.17,4.17,0,0,1,.79.86,5.62,5.62,0,0,1,.36.49v.11a.71.71,0,0,1,.09.17v.11l1-.09a7.26,7.26,0,0,0-1.1-1.61,3.74,3.74,0,0,0-2.81-1.42,1.52,1.52,0,0,0-1.4,1.55A4,4,0,0,0,626.49,389.75Z" transform="translate(-1.27 -1.74)"></path><path class="cls-15" d="M621.1,390.35a6.14,6.14,0,0,0,3.31,3.31c.69.28.79-.6.09-.86a4.58,4.58,0,0,1-2.23-2.08,4.83,4.83,0,0,1-.21-.47,3.26,3.26,0,0,1-.36-1.78,1.09,1.09,0,0,1,.32-.64h.13a.84.84,0,0,1,.49,0,1.87,1.87,0,0,1,.84.43,4.17,4.17,0,0,1,.79.86,5.62,5.62,0,0,1,.36.49v.11a.73.73,0,0,1,.09.17V390l1-.09a7.24,7.24,0,0,0-1.1-1.61,3.74,3.74,0,0,0-2.81-1.42,1.52,1.52,0,0,0-1.4,1.55A4,4,0,0,0,621.1,390.35Z" transform="translate(-1.27 -1.74)"></path><path class="cls-15" d="M615.69,390.82a6.14,6.14,0,0,0,3.31,3.31c.69.28.79-.6.09-.86a4.58,4.58,0,0,1-2.23-2.08,4.84,4.84,0,0,1-.21-.47,3.26,3.26,0,0,1-.26-1.66,1.09,1.09,0,0,1,.32-.64h.13a.84.84,0,0,1,.49,0,1.87,1.87,0,0,1,.84.43,4.17,4.17,0,0,1,.79.86,5.62,5.62,0,0,1,.36.49v.11a.71.71,0,0,1,.09.17v.11l1-.09a7.26,7.26,0,0,0-1.1-1.61,3.74,3.74,0,0,0-2.81-1.42,1.52,1.52,0,0,0-1.4,1.55A4,4,0,0,0,615.69,390.82Z" transform="translate(-1.27 -1.74)"></path><path class="cls-15" d="M610.31,391.34a6.14,6.14,0,0,0,3.31,3.31c.69.28.79-.6.09-.86a4.58,4.58,0,0,1-2.23-2.08,4.76,4.76,0,0,1-.21-.47,3.26,3.26,0,0,1-.26-1.66,1.09,1.09,0,0,1,.32-.64h.13a.84.84,0,0,1,.49,0,1.87,1.87,0,0,1,.84.43,4.17,4.17,0,0,1,.79.86,5.62,5.62,0,0,1,.36.49v.11a.73.73,0,0,1,.09.17v.11l1-.09a7.24,7.24,0,0,0-1.1-1.61,3.74,3.74,0,0,0-2.81-1.42,1.52,1.52,0,0,0-1.4,1.55A4,4,0,0,0,610.31,391.34Z" transform="translate(-1.27 -1.74)"></path><path class="cls-15" d="M604.88,391.89a6.14,6.14,0,0,0,3.31,3.31c.69.28.79-.6.09-.86a4.58,4.58,0,0,1-2.23-2.08,4.73,4.73,0,0,1-.21-.47,3.26,3.26,0,0,1-.26-1.66,1.09,1.09,0,0,1,.32-.64H606a.84.84,0,0,1,.49,0,1.87,1.87,0,0,1,.84.43,4.17,4.17,0,0,1,.79.86,5.62,5.62,0,0,1,.36.49v.11a.73.73,0,0,1,.09.17v.11l1-.09a7.24,7.24,0,0,0-1.1-1.61,3.74,3.74,0,0,0-2.81-1.42,1.52,1.52,0,0,0-1.4,1.55A4,4,0,0,0,604.88,391.89Z" transform="translate(-1.27 -1.74)"></path><path class="cls-15" d="M599.51,392.41a6.14,6.14,0,0,0,3.31,3.31c.69.28.79-.6.09-.86a4.58,4.58,0,0,1-2.23-2.08,4.7,4.7,0,0,1-.21-.47,3.26,3.26,0,0,1-.26-1.66,1.09,1.09,0,0,1,.32-.64h.13a.84.84,0,0,1,.49,0,1.87,1.87,0,0,1,.84.43,4.17,4.17,0,0,1,.79.86,5.62,5.62,0,0,1,.36.49v.11a.73.73,0,0,1,.09.17v.11l1-.09a7.26,7.26,0,0,0-1.1-1.61,3.74,3.74,0,0,0-2.81-1.42,1.52,1.52,0,0,0-1.4,1.55A4,4,0,0,0,599.51,392.41Z" transform="translate(-1.27 -1.74)"></path><path class="cls-15" d="M594.12,393a6.14,6.14,0,0,0,3.31,3.31c.69.28.79-.6.09-.86a4.58,4.58,0,0,1-2.23-2.08,4.8,4.8,0,0,1-.21-.47,3.26,3.26,0,0,1-.26-1.66,1.09,1.09,0,0,1,.32-.64h.13a.84.84,0,0,1,.49,0,1.87,1.87,0,0,1,.84.43,4.17,4.17,0,0,1,.79.86,5.62,5.62,0,0,1,.36.49v.11a.71.71,0,0,1,.09.17v.11l1-.09a7.24,7.24,0,0,0-1.1-1.61,3.74,3.74,0,0,0-2.81-1.42,1.52,1.52,0,0,0-1.4,1.55A4,4,0,0,0,594.12,393Z" transform="translate(-1.27 -1.74)"></path><path class="cls-15" d="M588.72,393.48a6.14,6.14,0,0,0,3.31,3.31c.69.28.79-.6.09-.86a4.58,4.58,0,0,1-2.23-2.08,4.84,4.84,0,0,1-.21-.47,3.26,3.26,0,0,1-.26-1.66,1.09,1.09,0,0,1,.32-.64h.13a.84.84,0,0,1,.49,0,1.87,1.87,0,0,1,.84.43,4.17,4.17,0,0,1,.79.86,5.7,5.7,0,0,1,.36.49V393a.71.71,0,0,1,.09.17v.11l1-.09a7.26,7.26,0,0,0-1.1-1.61,3.74,3.74,0,0,0-2.81-1.42,1.52,1.52,0,0,0-1.4,1.55A4,4,0,0,0,588.72,393.48Z" transform="translate(-1.27 -1.74)"></path><path class="cls-15" d="M583.33,394.09a6.14,6.14,0,0,0,3.31,3.31c.69.28.79-.6.09-.86a4.58,4.58,0,0,1-2.23-2.08,4.77,4.77,0,0,1-.21-.47,3.26,3.26,0,0,1-.26-1.66,1.09,1.09,0,0,1,.32-.64h.13a.84.84,0,0,1,.49,0,1.87,1.87,0,0,1,.84.43,4.17,4.17,0,0,1,.79.86,5.62,5.62,0,0,1,.36.49v.11a.73.73,0,0,1,.09.17v.11l1-.09a7.24,7.24,0,0,0-1.1-1.61,3.74,3.74,0,0,0-2.81-1.42,1.52,1.52,0,0,0-1.4,1.55A4,4,0,0,0,583.33,394.09Z" transform="translate(-1.27 -1.74)"></path><path class="cls-13" d="M750.62,326.75c18.45,25.69,58.14,84.35,46.43,97.9-19.25,22.28-66.24,41.79-81,46.21-6.36,1.87-29.11-44.28-23.1-48.08,7.18-4.56,53.24-22.64,53.47-24.88s-8.38-34-11.22-59C731.7,308,742.91,316,750.62,326.75Z" transform="translate(-1.27 -1.74)"></path><path class="cls-13" d="M716.1,419.56s-19.36-5.61-32.2-8.79c-7.17-1.74-19.72-3.63-25.55-2.51-8.74,1.68-44.24,14.33-41.36,23,2.6,7.86,31.8-6.88,31.8-6.88s-30.7,12.27-25.82,21.16,35.54-12.16,35.54-12.16-31.26,13.32-24.77,21.68c4.9,6.32,33.67-11.22,33.67-11.22s-26.79,11.64-22,18.35c5.26,7.48,32.91-7.05,32.91-7.05,15,15,27.93,17,37.75,15.68C718.34,470.55,716.1,419.56,716.1,419.56Z" transform="translate(-1.27 -1.74)"></path><path class="cls-5" d="M657.62,420.08c-23.29,7.31-32.48,18-32.18,17.81,7.13-5.61,19.66-11.6,23.2-13.23s5.61-2.81,9.05-4.43A.09.09,0,0,0,657.62,420.08Z" transform="translate(-1.27 -1.74)"></path><path class="cls-5" d="M665.18,432.09a83.1,83.1,0,0,0-26.62,12.52c-.3.24-.13.3.22.13,4.43-2.21,22-10.5,26.51-12.48C665.29,432.16,665.25,432.07,665.18,432.09Z" transform="translate(-1.27 -1.74)"></path><path class="cls-5" d="M672.38,442A61.74,61.74,0,0,0,652,452.24c-.3.22,0,.32.3.13,6.7-3.54,11.94-6.36,20.15-10.14C672.6,442.17,672.53,441.93,672.38,442Z" transform="translate(-1.27 -1.74)"></path><path class="cls-8" d="M707.12,415.65,733,470.93s61.74-33.3,66.47-49S762.1,337.5,749.4,323.45s-16.84-8.29-16.56,7.73,12.95,65.95,12.65,66.88S707.12,415.65,707.12,415.65Z" transform="translate(-1.27 -1.74)"></path><path class="cls-7" d="M751.23,380.47a13.36,13.36,0,0,1-1.12,3.61,13.1,13.1,0,0,1-2,3.2,13.1,13.1,0,0,1,1.12-3.61A13.36,13.36,0,0,1,751.23,380.47Z" transform="translate(-1.27 -1.74)"></path><path class="cls-7" d="M767.64,413.64a13.34,13.34,0,0,1-1.12,3.61,13.1,13.1,0,0,1-2,3.2,13.1,13.1,0,0,1,1.12-3.61A13.36,13.36,0,0,1,767.64,413.64Z" transform="translate(-1.27 -1.74)"></path><path class="cls-7" d="M723.17,432.09A13.34,13.34,0,0,1,722,435.7a13.1,13.1,0,0,1-2,3.2,13.1,13.1,0,0,1,1.12-3.61A13.36,13.36,0,0,1,723.17,432.09Z" transform="translate(-1.27 -1.74)"></path><path class="cls-7" d="M748.5,407.19a13.34,13.34,0,0,1-3.61-1.12,13.1,13.1,0,0,1-3.2-2,13.1,13.1,0,0,1,3.61,1.12A13.34,13.34,0,0,1,748.5,407.19Z" transform="translate(-1.27 -1.74)"></path><path class="cls-7" d="M743.9,454a13.34,13.34,0,0,1-3.61-1.12,13.1,13.1,0,0,1-3.2-2A13.1,13.1,0,0,1,740.7,452,13.36,13.36,0,0,1,743.9,454Z" transform="translate(-1.27 -1.74)"></path><path class="cls-7" d="M791.62,423.2a13.34,13.34,0,0,1-3.61-1.12,13.1,13.1,0,0,1-3.2-2,13.1,13.1,0,0,1,3.61,1.12A13.34,13.34,0,0,1,791.62,423.2Z" transform="translate(-1.27 -1.74)"></path><path class="cls-7" d="M777.7,370.6a13.36,13.36,0,0,1-3.61-1.12,13.1,13.1,0,0,1-3.2-2,13.1,13.1,0,0,1,3.61,1.12A13.34,13.34,0,0,1,777.7,370.6Z" transform="translate(-1.27 -1.74)"></path><path class="cls-7" d="M738.25,330.23a13.71,13.71,0,0,1-3.61-1.1,17.06,17.06,0,0,1-1.87-1v-.71a14.78,14.78,0,0,1,2.21.8A13.67,13.67,0,0,1,738.25,330.23Z" transform="translate(-1.27 -1.74)"></path><path class="cls-7" d="M748.37,336.23a13.36,13.36,0,0,1,1.76,3.35,13.1,13.1,0,0,1,.84,3.74,13.1,13.1,0,0,1-1.76-3.35A13.36,13.36,0,0,1,748.37,336.23Z" transform="translate(-1.27 -1.74)"></path><path class="cls-7" d="M763.52,389a13.36,13.36,0,0,1,1.76,3.35,13.1,13.1,0,0,1,.84,3.74,13.1,13.1,0,0,1-1.76-3.35A13.36,13.36,0,0,1,763.52,389Z" transform="translate(-1.27 -1.74)"></path><path class="cls-7" d="M762.21,436.54a13.36,13.36,0,0,1,1.76,3.35,13.19,13.19,0,0,1,.84,3.74,13.1,13.1,0,0,1-1.76-3.35A13.36,13.36,0,0,1,762.21,436.54Z" transform="translate(-1.27 -1.74)"></path><path class="cls-7" d="M724.93,409.4a13.34,13.34,0,0,1,1.76,3.35,13.1,13.1,0,0,1,.84,3.74,13.1,13.1,0,0,1-1.76-3.35A13.34,13.34,0,0,1,724.93,409.4Z" transform="translate(-1.27 -1.74)"></path><path class="cls-7" d="M741.24,429.41a13.36,13.36,0,0,1,3.35-1.76,13.1,13.1,0,0,1,3.74-.84,13.1,13.1,0,0,1-3.35,1.76A13.34,13.34,0,0,1,741.24,429.41Z" transform="translate(-1.27 -1.74)"></path><path class="cls-7" d="M753.85,361.26a13.36,13.36,0,0,1,3.35-1.76,13.1,13.1,0,0,1,3.74-.84,13.1,13.1,0,0,1-3.35,1.76A13.36,13.36,0,0,1,753.85,361.26Z" transform="translate(-1.27 -1.74)"></path><path class="cls-7" d="M783.62,399.71a13.36,13.36,0,0,1,3.35-1.76,13.1,13.1,0,0,1,3.74-.84,13.1,13.1,0,0,1-3.35,1.76A13.36,13.36,0,0,1,783.62,399.71Z" transform="translate(-1.27 -1.74)"></path><path class="cls-7" d="M713.18,426.81a7.49,7.49,0,0,1-.64.43l-.15-.34A5.61,5.61,0,0,1,713.18,426.81Z" transform="translate(-1.27 -1.74)"></path><path class="cls-5" d="M740.87,374.49q-1.25-5.61-2.45-11.22c-.41-1.87-.82-3.91-1.25-5.86l-.6-2.69c-.09-.45-.24-.9-.32-1.35a6.94,6.94,0,0,0-.45-1.87c0-.09-.21,0-.19,0,.11,1-.11.62.09,1.4a17,17,0,0,1,.3,1.78c.13.9.28,1.87.43,2.71.3,1.87.64,3.74,1,5.61l.15.73v-.21c-.69-2-1.4-4-2.1-6,.47,2.08,1,4.1,1.68,6.12.39,1.16.84,2.3,1.31,3.44.49,2.47,1,4.94,1.48,7.48,1.61,7.61,3.27,15.27,5.48,22.75-3.24,1.48-6.53,2.81-9.77,4.3s-6.45,3-9.69,4.56-6.45,3-9.63,4.64c-1.52.75-3,1.55-4.55,2.32s-3.22,1.87-4.88,2.68c-.17,0,0,.32.15.24,1.74-.8,3.57-1.37,5.33-2.13l4.62-2c3.26-1.46,6.49-3,9.73-4.49s6.47-3,9.69-4.56,6.34-3.26,9.54-4.81a.36.36,0,0,0,.21-.24.41.41,0,0,0,.17-.43C744.54,389.74,742.59,382.12,740.87,374.49Z" transform="translate(-1.27 -1.74)"></path><path class="cls-5" d="M732.88,437.46c-1.87-4-9.77-20-12-23.78h-.11c1.44,4.06,8.7,20,10.63,24.06a242.56,242.56,0,0,0,12.23,23.7c0,.13.34,0,.26-.11C740.76,453.15,736.7,445.35,732.88,437.46Z" transform="translate(-1.27 -1.74)"></path><path class="cls-5" d="M777.52,443.58c-1.42.8-2.75,1.87-4.1,2.75l-4.19,2.9c-2.73,1.87-5.48,3.87-8.4,5.5-.17,0,0,.34.15.24,3-1.7,5.95-3.26,8.83-5.11a43.63,43.63,0,0,0,7.86-6.08.13.13,0,0,0-.15-.21Z" transform="translate(-1.27 -1.74)"></path><path class="cls-13" d="M713.39,326.75c5.74,1,16.09-9.13,19.47-16.39.22-.51-.84-5.52-1.87-11.67-.6-3.74-1.18-7.91-1.44-11.77,0-.79-2.64.84-2.64.84l-4.9,1.53-16.22,5.09A61.51,61.51,0,0,1,709.1,309a8.64,8.64,0,0,1,0,1.59v.26C708.69,313.84,707.77,325.74,713.39,326.75Z" transform="translate(-1.27 -1.74)"></path><path class="cls-5" d="M709,310.53v.26a15.28,15.28,0,0,0,2.49,0c16.24-1.44,16.84-22.24,16.84-22.24l-6.42.71-16.22,5.09A61.51,61.51,0,0,1,709,309,8.61,8.61,0,0,1,709,310.53Z" transform="translate(-1.27 -1.74)"></path><path class="cls-13" d="M731.87,261c2.73,8.55-1.46,33.39-7.48,39-8.74,8.14-23.22,9.09-30.16-1.46-6.73-10.21-.69-42.5,6.06-47.61C710.23,243.35,727.85,248.32,731.87,261Z" transform="translate(-1.27 -1.74)"></path><path class="cls-1" d="M725,299.69h0" transform="translate(-1.27 -1.74)"></path><path class="cls-5" d="M707.77,277.36s.11.09.11.17c-.34,1.66-.43,3.63,1,4.43h0C707,281.49,707.1,278.89,707.77,277.36Z" transform="translate(-1.27 -1.74)"></path><path class="cls-5" d="M709.48,275.86c2.73.24,2.06,5.61-.47,5.46S707.18,275.65,709.48,275.86Z" transform="translate(-1.27 -1.74)"></path><path class="cls-5" d="M698.16,275.86s-.15,0-.15.13c-.15,1.68-.62,3.59-2.21,4v.09C697.71,280,698.29,277.49,698.16,275.86Z" transform="translate(-1.27 -1.74)"></path><path class="cls-5" d="M696.89,273.91c-2.68-.54-3.57,4.86-1.09,5.37S699.13,274.36,696.89,273.91Z" transform="translate(-1.27 -1.74)"></path><path class="cls-5" d="M711.93,273.63a21.37,21.37,0,0,1-2-1A3.63,3.63,0,0,1,708,271.2a1.16,1.16,0,0,1,.36-1.37,2.88,2.88,0,0,1,2.92,0A4.23,4.23,0,0,1,713.5,272a1.23,1.23,0,0,1-1.57,1.68Z" transform="translate(-1.27 -1.74)"></path><path class="cls-5" d="M695.13,270.92a21.22,21.22,0,0,0,2.23-.3,3.63,3.63,0,0,0,2.23-.73,1.16,1.16,0,0,0,.11-1.4,2.88,2.88,0,0,0-2.77-.9,4.23,4.23,0,0,0-2.75,1.29,1.23,1.23,0,0,0,1,2Z" transform="translate(-1.27 -1.74)"></path><path class="cls-5" d="M708,292.62c-.45.34-.92.84-1.53.8a4.49,4.49,0,0,1-1.76-.65h0a2.28,2.28,0,0,0,2,1.18,1.87,1.87,0,0,0,1.52-1.33C708.22,292.62,708.09,292.59,708,292.62Z" transform="translate(-1.27 -1.74)"></path><path class="cls-5" d="M706.88,287.46a5.78,5.78,0,0,1-4.15,2.08,7.26,7.26,0,0,1-2.08-.17l-.39-.09-.36-.09a.43.43,0,0,1-.3-.41h0a.82.82,0,0,1,0-.17h0v-.15c.13-1.31.51-3.26.51-3.26-.51.19-3,1-2.94.3a86.94,86.94,0,0,1,4.38-17.08.15.15,0,1,1,.3,0c-.79,5.39-2.51,10.61-3.37,16a10.12,10.12,0,0,1,2.81-.49c.19,0-.79,3.74-.79,4.36h0a8,8,0,0,0,6.17-1.1C706.88,287.12,707,287.25,706.88,287.46Z" transform="translate(-1.27 -1.74)"></path><path class="cls-5" d="M701.51,288.71A6.87,6.87,0,0,0,704,291.2a3.09,3.09,0,0,0,1.87.36c1.38-.19,1.57-1.42,1.46-2.51a7.37,7.37,0,0,0-.39-1.68A8.89,8.89,0,0,1,701.51,288.71Z" transform="translate(-1.27 -1.74)"></path><path class="cls-16" d="M704,291.2a3.09,3.09,0,0,0,1.87.36c1.38-.19,1.57-1.42,1.46-2.51A3.18,3.18,0,0,0,704,291.2Z" transform="translate(-1.27 -1.74)"></path><path class="cls-5" d="M695.32,261.75c7.91,6,19.55-1.87,19.55-1.87a8.92,8.92,0,0,0,8.76,6.1s.9,14,4.56,14.12c5.61.24,8.27-18.58,6.7-22.45a10,10,0,0,0-6.25-5,9.11,9.11,0,0,0-3.52-5.71c-3.74-3.11-17,.13-17,.13a12.23,12.23,0,0,0-3.12-4.71,3.44,3.44,0,0,0-4.87.09l-.11.12a8.25,8.25,0,0,1,1.16,3.5c.45,4.1-2.86,3.93-2.66.24a5.74,5.74,0,0,1,1.5-3.74c-1.52-2.49-4.15-3.4-5.84-2.21C691.12,242.56,688.73,256.74,695.32,261.75Z" transform="translate(-1.27 -1.74)"></path><path class="cls-13" d="M726.86,281.21s5.61-8,9.35-5.95-.67,13.62-5,15.17a4.34,4.34,0,0,1-5.73-2.21l-.07-.17Z" transform="translate(-1.27 -1.74)"></path><path class="cls-5" d="M734.83,278.55a11,11,0,0,0-5.72,6.83,2.39,2.39,0,0,1,3.59-.64v.17a2.68,2.68,0,0,0-2.94.92,12.89,12.89,0,0,0-1.42,2.38c-.15.26-.62.11-.52-.19h0C727.72,284.24,730.71,278.91,734.83,278.55Z" transform="translate(-1.27 -1.74)"></path><path class="cls-7" d="M708.88,310.38l5.89,14.2,17.53-18.26,5.09,5.74s-17,28.88-17.14,27.58l-6-12.23-8.32,8.7.45-21.5Z" transform="translate(-1.27 -1.74)"></path><path class="cls-5" d="M705.46,325.44c.19-3.54.28-7.13.64-10.64a.12.12,0,0,1,.24,0c.75,3.4,0,17,0,20.2h0c.36-.37,7.78-7.61,7.86-7.48,1.29,1.87,5.71,10.85,6,11.65,2.69-4.58,13.1-21.27,16.2-25.61a.13.13,0,0,1,.21.11c-2.38,4.85-16,27.29-16.24,27.24a138.43,138.43,0,0,1-6.3-12.93c-1.25,1.57-8.74,9.75-8.77,9.2A111.46,111.46,0,0,1,705.46,325.44Z" transform="translate(-1.27 -1.74)"></path></svg>